<svg width="20" height="20" viewBox="0 0 20 20" fill="none" xmlns="http://www.w3.org/2000/svg">
<g clip-path="url(#clip0_669_15671)">
<path fill-rule="evenodd" clip-rule="evenodd" d="M10.0021 7.34836L16.061 1.28972C16.6398 0.710934 17.5261 0.658804 18.0406 1.17328C18.5551 1.68775 18.503 2.57401 17.9242 3.1528L11.8653 9.21144L18.6959 16.0417C19.2747 16.6205 19.3268 17.5068 18.8123 18.0212C18.2978 18.5357 17.4115 18.4836 16.8327 17.9048L10.0021 11.0745L3.25178 17.8245C2.67297 18.4033 1.78667 18.4555 1.27217 17.941C0.757674 17.4265 0.809806 16.5402 1.38861 15.9615L8.13894 9.21144L2.16028 3.23306C1.58147 2.65427 1.52933 1.76801 2.04383 1.25354L2.04384 1.25354C2.55833 0.739064 3.44463 0.791197 4.02344 1.36998L10.0021 7.34836Z" fill="#B4B4B4"/>
</g>
<defs>
<clipPath id="clip0_669_15671">
<rect width="18.3333" height="18.3333" fill="white" transform="translate(0.833252 0.833252)"/>
</clipPath>
</defs>
</svg>