<svg width="44" height="44" viewBox="0 0 44 44" fill="none" xmlns="http://www.w3.org/2000/svg">
<path d="M36.0801 19.8H7.9201C6.7057 19.8 6.6001 20.7834 6.6001 22C6.6001 23.2166 6.7057 24.2 7.9201 24.2H36.0801C37.2945 24.2 37.4001 23.2166 37.4001 22C37.4001 20.7834 37.2945 19.8 36.0801 19.8ZM36.0801 28.6H7.9201C6.7057 28.6 6.6001 29.5834 6.6001 30.8C6.6001 32.0166 6.7057 33 7.9201 33H36.0801C37.2945 33 37.4001 32.0166 37.4001 30.8C37.4001 29.5834 37.2945 28.6 36.0801 28.6ZM7.9201 15.4H36.0801C37.2945 15.4 37.4001 14.4166 37.4001 13.2C37.4001 11.9834 37.2945 11 36.0801 11H7.9201C6.7057 11 6.6001 11.9834 6.6001 13.2C6.6001 14.4166 6.7057 15.4 7.9201 15.4Z" fill="#17303E"/>
</svg>
