<svg width="24" height="24" viewBox="0 0 24 24" fill="none" xmlns="http://www.w3.org/2000/svg">
<rect width="24" height="24" rx="4" fill="#6D9200"/>
<path d="M17.3142 6.14979L17.3142 6.1498C18.5143 7.20703 19.1583 9.50642 18.7081 13.1365C18.4956 14.8933 17.722 15.8616 16.9409 16.4108C16.3219 16.8462 15.6949 17.0182 15.358 17.1106C15.2725 17.1341 15.2056 17.1525 15.1624 17.1687L15.157 17.1707L15.1569 17.1704L15.1509 17.1719C14.9013 17.2343 13.1471 17.6733 10.866 17.4831C10.6636 17.729 10.4112 18.0077 10.1918 18.25C10.1381 18.3093 10.0864 18.3664 10.038 18.4202L10.0372 18.4211L10.0372 18.4211C9.95302 18.5105 9.87602 18.5987 9.80245 18.6829C9.77841 18.7105 9.75473 18.7376 9.7313 18.7642C9.6368 18.8714 9.54612 18.9703 9.4537 19.0501C9.36112 19.1299 9.26458 19.1926 9.1576 19.2252C9.04972 19.2581 8.93431 19.2595 8.80609 19.2218L8.80335 19.221L8.80338 19.2209C8.58302 19.1422 8.4851 18.939 8.44147 18.7681C8.41939 18.6816 8.41027 18.6001 8.40662 18.5405C8.4048 18.5106 8.40434 18.4859 8.40434 18.4686C8.40434 18.46 8.40445 18.4532 8.40457 18.4484L8.40474 18.4429L8.40477 18.442V17.0471C6.72345 16.5581 5.89263 15.4333 5.48741 14.2C5.08142 12.9644 5.10183 11.6179 5.11587 10.6916L5.11598 10.6841L17.3142 6.14979ZM17.3142 6.14979L17.3134 6.14915M17.3142 6.14979L17.3134 6.14915M17.3134 6.14915C16.9395 5.83277 15.4669 4.76027 12.251 4.75995L12.2496 4.75987L12.2412 4.75943L12.2087 4.75789C12.1801 4.75664 12.1382 4.75504 12.0842 4.7536C11.9762 4.75073 11.8201 4.74853 11.6269 4.75118C11.2408 4.75646 10.7064 4.78115 10.1138 4.85876C8.93079 5.01367 7.50531 5.38065 6.56592 6.23465L6.56588 6.2346M17.3134 6.14915L6.56588 6.2346M6.56588 6.2346L6.5642 6.23629M6.56588 6.2346L6.5642 6.23629M6.5642 6.23629C5.51034 7.29014 5.14416 8.79619 5.11598 10.6841L6.5642 6.23629ZM12.5061 9.22935L12.5061 9.22947C12.9084 9.25821 13.2238 9.38814 13.442 9.62113C13.6597 9.85351 13.7746 10.182 13.7892 10.5966M12.5061 9.22935L13.402 10.6005M12.5061 9.22935H12.5025C12.3465 9.22935 12.2576 9.34437 12.2489 9.45822C12.2445 9.5149 12.2596 9.57417 12.2983 9.61997C12.3375 9.66623 12.3969 9.69415 12.4719 9.69476M12.5061 9.22935L12.4719 9.69476M13.7892 10.5966C13.7893 10.5973 13.7893 10.5981 13.7893 10.5988L13.7393 10.6005L13.789 10.5943C13.7891 10.5951 13.7891 10.5958 13.7892 10.5966ZM13.7892 10.5966C13.7973 10.6666 13.775 10.7252 13.7338 10.7663C13.6934 10.8067 13.6378 10.8275 13.5832 10.8296C13.5285 10.8318 13.4707 10.8155 13.4259 10.7766C13.3805 10.7371 13.3526 10.678 13.352 10.6029M13.352 10.6029C13.3521 10.6036 13.3522 10.6043 13.3522 10.605L13.402 10.6005M13.352 10.6029C13.3243 10.301 13.2424 10.0897 13.1027 9.94675C12.9633 9.80406 12.7593 9.72245 12.4719 9.69476M13.352 10.6029C13.352 10.6021 13.352 10.6013 13.352 10.6005H13.402M13.402 10.6005L12.4719 9.69476M14.7451 10.9102C14.7592 10.2247 14.5449 9.59364 14.1173 9.11938C13.6896 8.64493 13.0518 8.331 12.2259 8.27382C12.1503 8.26568 12.087 8.28675 12.0413 8.3277C11.9963 8.36809 11.9722 8.42458 11.9678 8.48142C11.959 8.59616 12.0312 8.72134 12.1878 8.73874L12.1878 8.73881L12.1903 8.73896C12.882 8.78046 13.4102 9.03585 13.7621 9.42195C14.1142 9.80827 14.2934 10.3293 14.2797 10.9085L14.2796 10.9085V10.9097C14.2796 11.0561 14.4 11.1346 14.5104 11.1389C14.5665 11.141 14.6251 11.125 14.6705 11.086C14.7169 11.0462 14.7449 10.9862 14.7451 10.9102ZM14.7451 10.9102C14.7451 10.91 14.7451 10.9099 14.7451 10.9097H14.6951L14.745 10.9107C14.7451 10.9106 14.7451 10.9104 14.7451 10.9102ZM15.2354 11.2754C15.2354 11.3515 15.2634 11.4124 15.3085 11.4542C15.353 11.4952 15.4112 11.5149 15.4681 11.5149C15.5249 11.5149 15.5831 11.4952 15.6276 11.4542C15.6728 11.4124 15.7008 11.3513 15.7008 11.2751L15.7008 11.2745L11.8841 7.73333L11.8834 7.78332C11.8835 7.78333 11.8836 7.78333 11.8837 7.78333C12.8003 7.7973 13.6307 8.10966 14.2351 8.6968C14.8391 9.28362 15.2214 10.1486 15.2354 11.2754ZM15.2354 11.2754C15.2354 11.2753 15.2354 11.2752 15.2354 11.2751H15.2854M15.2354 11.2754C15.2354 11.2755 15.2354 11.2756 15.2354 11.2757L15.2854 11.2751M15.2854 11.2751C15.2854 11.5281 15.6508 11.5281 15.6508 11.2751H15.2854ZM17.597 12.8428L17.5969 12.8435C17.4298 14.2913 16.8119 15.0581 16.1918 15.4819C15.7056 15.8141 15.2214 15.9356 14.9315 16.0084C14.8508 16.0287 14.7851 16.0452 14.7386 16.0614C14.719 16.0649 14.6856 16.072 14.6393 16.0818C14.2304 16.1688 12.8186 16.469 11.0718 16.3692L11.0468 16.3678L11.0306 16.387L11.0689 16.4191L11.0306 16.387L11.0306 16.3871L11.0304 16.3873L11.0296 16.3883L11.0264 16.392L11.0141 16.4067L10.967 16.4628L10.7953 16.6667C10.6513 16.8375 10.4546 17.0702 10.2438 17.3178C9.8222 17.8132 9.34568 18.3668 9.12163 18.6049C9.08988 18.6366 9.05843 18.6584 9.03055 18.6701C9.00247 18.6819 8.9815 18.6821 8.96684 18.677C8.9531 18.6721 8.93659 18.6596 8.92268 18.6277C8.90842 18.595 8.89831 18.5446 8.89831 18.4711V18.4699V18.4687V18.4674V18.4661V18.4648V18.4634V18.4619V18.4604V18.4589V18.4573V18.4557V18.454V18.4523V18.4505V18.4487V18.4469V18.445V18.443V18.4411V18.439V18.437V18.4349V18.4327V18.4305V18.4283V18.426V18.4237V18.4214V18.419V18.4165V18.4141V18.4115V18.409V18.4064V18.4037V18.4011V18.3984V18.3956V18.3928V18.39V18.3871V18.3842V18.3812V18.3782V18.3752V18.3721V18.369V18.3659V18.3627V18.3595V18.3563V18.353V18.3497V18.3463V18.3429V18.3395V18.336V18.3325V18.329V18.3254V18.3218V18.3181V18.3145V18.3107V18.307V18.3032V18.2994V18.2956V18.2917V18.2878V18.2838V18.2798V18.2758V18.2718V18.2677V18.2636V18.2595V18.2553V18.2511V18.2468V18.2426V18.2383V18.2339V18.2296V18.2252V18.2208V18.2163V18.2118V18.2073V18.2028V18.1982V18.1936V18.189V18.1844V18.1797V18.175V18.1702V18.1655V18.1607V18.1558V18.151V18.1461V18.1412V18.1363V18.1313V18.1263V18.1213V18.1163V18.1112V18.1061V18.101V18.0959V18.0907V18.0855V18.0803V18.0751V18.0698V18.0645V18.0592V18.0539V18.0485V18.0431V18.0377V18.0323V18.0269V18.0214V18.0159V18.0104V18.0048V17.9993V17.9937V17.9881V17.9825V17.9768V17.9712V17.9655V17.9598V17.954V17.9483V17.9425V17.9367V17.9309V17.9251V17.9192V17.9134V17.9075V17.9016V17.8957V17.8897V17.8838V17.8778V17.8718V17.8658V17.8598V17.8537V17.8477V17.8416V17.8355V17.8294V17.8232V17.8171V17.8109V17.8048V17.7986V17.7924V17.7862V17.7799V17.7737V17.7674V17.7611V17.7548V17.7485V17.7422V17.7359V17.7295V17.7232V17.7168V17.7104V17.704V17.6976V17.6912V17.6847V17.6783V17.6718V17.6654V17.6589V17.6524V17.6459V17.6394V17.6328V17.6263V17.6198V17.6132V17.6066V17.6001V17.5935V17.5869V17.5803V17.5737V17.5671V17.5604V17.5538V17.5472V17.5405V17.5339V17.5272V17.5205V17.5138V17.5071V17.5005V17.4938V17.487V17.4803V17.4736V17.4669V17.4602V17.4534V17.4467V17.4399V17.4332V17.4264V17.4197V17.4129V17.4061V17.3994V17.3926V17.3858V17.379V17.3723V17.3655V17.3587V17.3519V17.3451V17.3383V17.3315V17.3247V17.3179V17.3111V17.3043V17.2975V17.2907V17.2839V17.2771V17.2703V17.2635V17.2566V17.2498V17.243V17.2362V17.2294V17.2226V17.2158V17.209V17.2022V17.1954V17.1886V17.1818V17.175V17.1683V17.1615V17.1547V17.1479V17.1411V17.1344V17.1276V17.1208V17.1141V17.1073V17.1006V17.0938V17.0871V17.0803V17.0736V17.0669V17.0602V17.0534V17.0467V17.04V17.0333V17.0267V17.02V17.0133V17.0066V17V16.9933V16.9867V16.98V16.9734V16.9668V16.9602V16.9536V16.947V16.9404V16.9338V16.9272V16.9207V16.9141V16.9076V16.9011V16.8946V16.8881V16.8816V16.8751V16.8686V16.8621V16.8557V16.8493V16.8428V16.8364V16.83V16.8236V16.8172V16.8109V16.8045V16.7982V16.7919V16.7856V16.7793V16.773V16.7667V16.7605V16.7542V16.748V16.7418V16.7356V16.7294V16.7232V16.7171V16.711V16.7048V16.6987V16.6927V16.6866V16.6805V16.6745V16.6685V16.6625V16.6565V16.6506V16.6446V16.6387V16.6328V16.6269V16.621V16.6152V16.6093V16.6035V16.5977V16.592V16.5862V16.5805V16.5748V16.5691V16.5634V16.5577V16.5521V16.5465V16.5409V16.5353V16.5298V16.5243V16.5188V16.5133V16.5078V16.5024V16.497V16.4916V16.4862V16.4809V16.4756V16.4703V16.465V16.4598V16.4546V16.4494V16.4442V16.4391V16.4339V16.4288V16.4238V16.4187V16.4137V16.4087V16.4038V16.3988V16.3939V16.389V16.3842V16.3793V16.3745V16.3698V16.365V16.3603V16.3556V16.3509V16.3463V16.3417V16.3371V16.3326V16.3281V16.3236V16.3191V16.3147V16.3103V16.3059V16.3016V16.2973V16.293V16.2888V16.2845V16.2804V16.2762V16.2721V16.268V16.264V16.2599V16.2559V16.252V16.2481V16.2442V16.2403V16.2365V16.2327V16.229V16.2252V16.2215V16.2179V16.2143V16.2107V16.2072V16.2036V16.2002V16.1967V16.1933V16.1899V16.1866V16.1833V16.1801V16.1768V16.1736V16.1705V16.1674V16.1643V16.1613V16.1583V16.1553V16.1524V16.1495V16.1467V16.1439V16.1411V16.1384V16.1357V16.133V16.1304V16.1279V16.1253V16.1228V16.1204V16.118V16.1156V16.1133V16.111V16.1088V16.1066V16.1044V16.1023V16.1002V16.0982V16.0962V16.0942V16.0923V16.0905V16.0887V16.0869V16.0852V16.0835V16.0818V16.0802V16.0787V16.0772V16.0757V16.0743V16.0729V16.0716V16.0703V16.0691V16.0679V16.0668V16.0657V16.0646V16.0636V16.0627V16.0618V16.0609V16.0601V16.0593V16.0586V16.0579V16.0573V16.0567V16.0562V16.0557V16.0553V16.0549V16.0546V16.0543V16.0541V16.0539V16.0538V16.0537L8.84831 16.0537H8.89831V16.0157L8.86166 16.0055C7.46215 15.6175 6.80529 14.6915 6.49989 13.6677C6.21534 12.7138 6.23678 11.6778 6.2526 10.9138C6.25382 10.8549 6.25501 10.7975 6.25602 10.7419L6.25602 10.7419C6.28405 9.17175 6.56459 7.92395 7.42115 7.06678C8.19626 6.36145 9.38418 6.06092 10.3863 5.93828C10.8864 5.87709 11.3376 5.86047 11.6638 5.85915C11.8269 5.8585 11.9587 5.86167 12.0495 5.865C12.0949 5.86666 12.1302 5.86836 12.1539 5.86964L12.1809 5.8712L12.1877 5.87163L12.1894 5.87174L12.1898 5.87176L12.1898 5.87177L12.1933 5.82189L12.1898 5.87189H12.1933C14.9077 5.87189 16.1894 6.71075 16.49 6.95646C16.9844 7.38242 17.36 8.10127 17.5624 9.09259C17.7648 10.0836 17.7932 11.3427 17.597 12.8428ZM10.1954 10.6917L10.1915 10.6786L10.1916 10.676C10.1919 10.6696 10.1925 10.6601 10.1937 10.6481C10.1962 10.6242 10.201 10.5908 10.2108 10.5534C10.2305 10.4777 10.2689 10.3906 10.342 10.3297L10.6793 10.0486C10.8682 9.89118 10.9541 9.55554 10.776 9.22808C10.6903 9.05698 10.4934 8.74746 10.3506 8.57532C10.2777 8.45956 10.1501 8.3039 10.0422 8.17856C9.98742 8.11495 9.93708 8.05844 9.90044 8.01783C9.88212 7.99751 9.8672 7.98116 9.85686 7.96988L9.84491 7.95688L9.84385 7.95574C9.76645 7.83417 9.65679 7.76337 9.53065 7.74366C9.4081 7.72451 9.27463 7.75421 9.14475 7.82388H9.1294H9.11705L9.10611 7.82963C8.83396 7.97287 8.5466 8.19516 8.35153 8.45526C8.15707 8.71453 8.04878 9.01969 8.15409 9.32253L8.15415 9.32273L8.15557 9.32758L8.16128 9.34625C8.16643 9.36269 8.1744 9.38714 8.18577 9.41969C8.20852 9.48481 8.2449 9.58238 8.29973 9.71328C8.40938 9.97501 8.59282 10.37 8.88862 10.9053C9.17166 11.443 9.48282 11.8672 9.76439 12.2332L9.76471 12.2336C10.0765 12.6305 10.5009 13.0547 10.9531 13.4221L10.9538 13.4227C11.4063 13.7762 11.9779 14.136 12.5101 14.4285C13.0413 14.7205 13.5373 14.9477 13.838 15.0336L13.8375 15.0356H13.8518H13.8715C14.1722 15.137 14.4747 15.0288 14.7321 14.8358C14.9922 14.6407 15.2145 14.3534 15.3577 14.0812L15.3635 14.0703V14.0579V14.0426C15.4329 13.9136 15.4627 13.7874 15.4474 13.6686C15.4315 13.5457 15.3682 13.4369 15.2624 13.346C14.8942 13.0062 14.3853 12.6386 13.9598 12.4117C13.6283 12.231 13.2935 12.3505 13.1387 12.5361L13.1387 12.5361L13.1372 12.5381L12.885 12.8744C12.8253 12.9454 12.7405 12.9768 12.6661 12.9897C12.6292 12.9961 12.5961 12.9978 12.5724 12.9978C12.5605 12.9978 12.5511 12.9974 12.5448 12.997L12.5391 12.9966C11.6148 12.7608 11.0278 12.1811 10.671 11.658C10.4924 11.3961 10.3718 11.1489 10.296 10.9673C10.258 10.8765 10.2313 10.8022 10.2142 10.7508C10.2056 10.7251 10.1994 10.7052 10.1954 10.6917Z" fill="white" stroke="white" stroke-width="0.1"/>
</svg>
