<svg width="60" height="60" viewBox="0 0 60 60" fill="none" xmlns="http://www.w3.org/2000/svg">
<g clip-path="url(#clip0_669_15694)">
<path d="M30 60C46.5685 60 60 46.5685 60 30C60 13.4315 46.5685 0 30 0C13.4315 0 0 13.4315 0 30C0 46.5685 13.4315 60 30 60Z" fill="#6D9200"/>
<path d="M49.1532 32.5218C49.1438 32.4937 49.125 32.4655 49.1063 32.428L45.1969 24.1312C46.5751 23.9624 47.6344 23.4374 48.3376 22.5562C48.5344 22.303 48.6188 21.9937 48.5907 21.6749C48.574 21.5184 48.5255 21.367 48.4481 21.2299C48.3707 21.0929 48.2661 20.9731 48.1407 20.878C47.925 20.6999 47.6813 20.6155 47.4001 20.6155C47.0344 20.6155 46.6875 20.7749 46.4626 21.0655C46.0501 21.5812 45.3188 21.8437 44.2782 21.8437C41.4938 21.8437 36.7688 19.9405 33.0469 17.9437V17.9718C32.8219 17.128 32.2594 16.4249 31.5 16.0124H31.5282V12.9374C31.5282 12.0937 30.8438 11.3999 29.9907 11.3999C29.1469 11.3999 28.4532 12.0937 28.4532 12.9374V16.0124H28.4813C27.7313 16.4249 27.1688 17.1187 26.9438 17.9624V17.9437C23.2313 19.9405 18.4969 21.8437 15.7125 21.8437C14.6719 21.8437 13.9407 21.5812 13.5282 21.0655C13.4161 20.9245 13.2735 20.8107 13.1111 20.7328C12.9488 20.6548 12.7708 20.6147 12.5907 20.6155C12.3094 20.6155 12.0657 20.6999 11.85 20.878C11.5969 21.0749 11.4469 21.3562 11.4 21.6749C11.3625 21.9937 11.4563 22.303 11.6438 22.5562C12.3469 23.4374 13.4063 23.9624 14.7844 24.1312L10.875 32.428C10.8563 32.4562 10.8469 32.4843 10.8375 32.503C10.7855 32.601 10.7597 32.7108 10.7625 32.8218C10.7719 35.4562 12.9188 37.603 15.5532 37.603C18.1875 37.603 20.3344 35.4562 20.3344 32.8124C20.3344 32.7655 20.325 32.7187 20.3157 32.6624C20.3069 32.6092 20.2878 32.5583 20.2594 32.5124C20.25 32.4843 20.2313 32.4562 20.2125 32.428L16.3219 24.178C19.9688 23.9812 24.4688 21.9562 27.2907 20.4749L27.2813 20.4374C27.5719 20.9062 27.975 21.2812 28.4625 21.553H28.4438V43.0124H24.4219L23.2688 45.6843H21.4219L19.8469 48.5905H39.6282L38.0532 45.6843H36.6844L35.5313 43.0124H31.5094V21.553H31.4907C31.9688 21.2905 32.3813 20.9155 32.6625 20.4468V20.4749C35.4938 21.9562 39.9844 23.9812 43.6313 24.178L39.6938 32.5124C39.6469 32.6062 39.6282 32.7093 39.6282 32.8218C39.6375 35.4562 41.7844 37.603 44.4094 37.603C47.0532 37.603 49.2001 35.4562 49.2001 32.8124C49.2154 32.713 49.199 32.6113 49.1532 32.5218ZM18.5063 32.0999H12.6282L15.5719 25.8749L18.5063 32.0999ZM41.4938 32.0999L44.4282 25.8749L47.3719 32.0999H41.4938Z" fill="#17303E"/>
</g>
<defs>
<clipPath id="clip0_669_15694">
<rect width="60" height="60" fill="white"/>
</clipPath>
</defs>
</svg>
