<svg width="60" height="60" viewBox="0 0 60 60" fill="none" xmlns="http://www.w3.org/2000/svg">
<g clip-path="url(#clip0_669_15700)">
<path d="M30 36.1875C36.0937 36.1875 40.9687 31.3125 40.9687 25.2188C40.9687 19.125 36.0937 14.1562 30 14.1562C23.9062 14.1562 19.0312 19.0312 19.0312 25.125C19.0312 31.2188 23.9062 36.1875 30 36.1875ZM30 38.1563C17.9062 38.1563 8.15625 47.9063 8.15625 60H51.8437C51.8437 47.9063 42.0937 38.1563 30 38.1563Z" fill="#6D9200"/>
<path d="M29.2504 9.75C29.2504 9.75 29.3441 9.84375 29.4379 9.84375L29.5316 9.9375C29.6254 10.0312 29.8129 10.0312 30.0004 10.0312C30.1879 10.0312 30.2816 10.0312 30.4691 9.9375C30.5629 9.9375 30.5629 9.84375 30.6566 9.84375C30.6566 9.84375 30.7504 9.75 30.8441 9.75L33.0941 7.6875C33.2816 7.5 33.4691 7.21875 33.4691 6.9375C33.4691 6.65625 33.3754 6.375 33.1879 6.09375C33.0004 5.90625 32.6254 5.71875 32.3441 5.71875C32.0629 5.71875 31.7816 5.8125 31.5941 6L31.3129 6.28125V1.125C31.1254 0.46875 30.6566 0 30.0004 0C29.3441 0 28.8754 0.46875 28.8754 1.125V6.28125L28.5941 6C28.4066 5.8125 28.1254 5.71875 27.8441 5.71875C27.5629 5.71875 27.1879 5.8125 27.0004 6.09375C26.5316 6.5625 26.6254 7.3125 27.0941 7.6875L29.2504 9.75ZM38.9066 12.375C38.9066 12.4688 39.0004 12.5625 39.0941 12.75C39.1879 12.8438 39.2816 12.9375 39.3754 13.125C39.4691 13.125 39.4691 13.2188 39.5629 13.2188L39.6566 13.3125C39.7504 13.3125 39.9379 13.4062 40.0316 13.4062H40.1254L43.1254 13.0312C43.7816 12.9375 44.1566 12.375 44.1566 11.8125C44.0629 11.25 43.5941 10.7812 43.0316 10.7812H42.8441L42.3754 10.875L45.5629 6.5625C45.7504 6.28125 45.8441 6 45.7504 5.71875C45.6566 5.4375 45.5629 5.15625 45.2816 4.96875C45.0941 4.78125 44.8129 4.78125 44.6254 4.78125C44.2504 4.78125 43.8754 4.96875 43.6879 5.25L40.6879 9.375L40.5941 8.90625C40.5004 8.34375 40.0316 7.96875 39.4691 7.96875H39.2816C39.0004 8.0625 38.7191 8.15625 38.5316 8.4375C38.3441 8.71875 38.3441 9 38.3441 9.28125L38.9066 12.375ZM54.7504 18C54.5629 17.5312 54.1879 17.25 53.6254 17.25C53.5316 17.25 53.3441 17.25 53.2504 17.3438L48.2816 18.9375L48.4691 18.5625C48.5629 18.2812 48.5629 18 48.4691 17.7188C48.3754 17.4375 48.1879 17.25 47.9066 17.0625C47.8129 16.875 47.7191 16.875 47.5316 16.875C47.0629 16.875 46.6879 17.1562 46.5004 17.5312L45.1879 20.25C45.1879 20.3438 45.1879 20.3438 45.0941 20.5312V20.7188C45.0941 20.8125 45.0941 21 45.1879 21.1875C45.1879 21.2812 45.2816 21.4688 45.3754 21.5625L45.4691 21.6562C45.5629 21.75 45.6566 21.8438 45.7504 21.8438L48.3754 23.3438C48.5629 23.4375 48.7504 23.5312 48.9379 23.5312C49.3129 23.5312 49.6879 23.3438 49.9691 22.9688C50.1566 22.6875 50.1566 22.4062 50.0629 22.125C49.9691 21.8438 49.7816 21.5625 49.5004 21.4688L49.1254 21.2812L54.0941 19.6875C54.5629 19.2188 54.9379 18.5625 54.7504 18ZM17.5316 10.7812L17.0629 10.6875H16.8754C16.3129 10.6875 15.8441 11.1562 15.7504 11.7188C15.6566 12.375 16.1254 12.9375 16.7816 12.9375L19.7816 13.3125H19.8754C19.9691 13.3125 20.1566 13.3125 20.2504 13.2188C20.2504 13.2188 20.3441 13.2188 20.4379 13.125C20.4379 13.125 20.5316 13.125 20.6254 13.0312C20.7191 12.9375 20.8129 12.8438 20.9066 12.6562C21.0004 12.5625 21.0004 12.4688 21.0004 12.2812L21.5629 9.28125C21.6566 9 21.5629 8.71875 21.3754 8.4375C21.1879 8.15625 20.9066 7.96875 20.6254 7.96875H20.4379C19.8754 7.96875 19.4066 8.34375 19.3129 8.90625V9.375L16.2191 5.15625C16.0316 4.875 15.6566 4.6875 15.2816 4.6875C15.0004 4.6875 14.8129 4.78125 14.6254 4.875C14.3441 5.0625 14.2504 5.34375 14.1566 5.625C14.0629 5.90625 14.1566 6.1875 14.3441 6.46875L17.5316 10.7812ZM10.5941 21.1875C10.3129 21.375 10.1254 21.5625 10.0316 21.8438C9.93788 22.125 10.0316 22.4062 10.1254 22.6875C10.3129 23.0625 10.6879 23.25 11.1566 23.25C11.3441 23.25 11.5316 23.1562 11.7191 23.0625L14.4379 21.5625C14.5316 21.5625 14.6254 21.4688 14.6254 21.375L14.5316 21.1875L14.7191 21.2812C14.8129 21.1875 14.9066 21.0938 14.9066 20.9062C14.9066 20.8125 15.0004 20.625 15.0004 20.4375C15.0004 20.3438 15.0004 20.3438 14.9066 20.1562V19.9688L13.5941 17.25C13.4066 16.875 13.0316 16.5938 12.5629 16.5938C12.3754 16.5938 12.2816 16.5938 12.0941 16.6875C11.8129 16.7812 11.6254 17.0625 11.5316 17.3438C11.4379 17.625 11.4379 17.9062 11.5316 18.1875L11.7191 18.5625L6.75038 16.9688C6.65663 16.9688 6.56288 16.875 6.37538 16.875C5.90663 16.875 5.43788 17.1562 5.25038 17.625C5.06288 18.1875 5.34413 18.8438 6.00038 19.0312L10.9691 20.625L10.5941 21.1875Z" fill="#17303E"/>
</g>
<defs>
<clipPath id="clip0_669_15700">
<rect width="60" height="60" fill="white"/>
</clipPath>
</defs>
</svg>
