<svg width="60" height="60" viewBox="0 0 60 60" fill="none" xmlns="http://www.w3.org/2000/svg">
<g clip-path="url(#clip0_669_15687)">
<path d="M58.973 48.2792L47.1139 36.4732C49.067 33.1816 50.0937 29.4232 50.0853 25.5957C50.0958 21.3328 48.8413 17.1625 46.4805 13.6129C44.1198 10.0632 40.7589 7.29377 36.8235 5.65512C32.888 4.01646 28.5548 3.58227 24.3725 4.4075C20.1901 5.23272 16.3466 7.28027 13.3285 10.2909C10.3104 13.3016 8.25338 17.14 7.41784 21.3204C6.58231 25.5007 7.00581 29.8349 8.63476 33.7744C10.2637 37.7139 13.0248 41.0815 16.5687 43.451C20.1125 45.8205 24.2796 47.0853 28.5426 47.0853C32.7603 47.0764 36.8797 45.811 40.3752 43.4507L52.0751 55.1241C52.5242 55.5823 53.0611 55.9454 53.6537 56.1915C54.2463 56.4377 54.8824 56.5619 55.524 56.5567C56.8132 56.5565 58.0511 56.0518 58.973 55.1506C59.8723 54.2331 60.376 52.9996 60.376 51.7149C60.376 50.4302 59.8723 49.1967 58.973 48.2792ZM40.0833 24.1896L34.6181 28.1692L36.8201 34.563C36.9329 34.9182 36.9294 35.3002 36.8101 35.6533C36.6908 36.0064 36.4619 36.3122 36.1568 36.5263C35.8608 36.7439 35.5029 36.8613 35.1354 36.8613C34.7679 36.8613 34.4101 36.7439 34.114 36.5263L28.6487 32.5732L23.0774 36.4732C22.7828 36.7044 22.4171 36.8263 22.0427 36.8181C21.6335 36.8424 21.2291 36.7201 20.9019 36.4732C20.6015 36.2556 20.3779 35.9482 20.2635 35.5954C20.1491 35.2425 20.1496 34.8624 20.2651 34.5099L22.361 28.0896L17.0019 24.1896C16.6954 23.9743 16.466 23.6664 16.3474 23.3111C16.2288 22.9558 16.2273 22.5718 16.3431 22.2155C16.4588 21.8593 16.6858 21.5496 16.9906 21.3319C17.2954 21.1142 17.662 20.9999 18.0366 21.006H24.7753L26.8712 14.5856C26.9885 14.236 27.2133 13.9323 27.5135 13.7179C27.8136 13.5035 28.1738 13.3894 28.5426 13.3918C28.9114 13.3894 29.2716 13.5035 29.5718 13.7179C29.8719 13.9323 30.0967 14.236 30.214 14.5856L32.2834 21.006H39.0486C39.4188 21.0133 39.7777 21.1344 40.0767 21.3527C40.3758 21.571 40.6003 21.876 40.7201 22.2264C40.8356 22.5789 40.8361 22.9589 40.7217 23.3118C40.6073 23.6646 40.3837 23.972 40.0833 24.1896Z" fill="#6D9200"/>
<path d="M27.5866 12.0491C27.939 11.2586 29.061 11.2586 29.4134 12.0491L32.8235 19.6993C32.9688 20.0253 33.2769 20.2491 33.6319 20.2866L41.9614 21.1657C42.8221 21.2566 43.1688 22.3237 42.5259 22.9031L36.3039 28.5103C36.0387 28.7493 35.9211 29.1115 35.9951 29.4606L37.733 37.6542C37.9126 38.5008 37.0048 39.1603 36.2551 38.7279L28.9996 34.5432C28.6904 34.3648 28.3096 34.3648 28.0004 34.5432L20.7449 38.7279C19.9952 39.1603 19.0874 38.5008 19.267 37.6542L21.0049 29.4606C21.0789 29.1115 20.9613 28.7493 20.6961 28.5103L14.4741 22.9031C13.8312 22.3237 14.1779 21.2566 15.0386 21.1657L23.3681 20.2866C23.7231 20.2491 24.0312 20.0253 24.1765 19.6993L27.5866 12.0491Z" fill="#17303E"/>
</g>
<defs>
<clipPath id="clip0_669_15687">
<rect width="60" height="60" fill="white"/>
</clipPath>
</defs>
</svg>
