<svg width="16" height="16" viewBox="0 0 16 16" fill="none" xmlns="http://www.w3.org/2000/svg">
<path d="M14.1501 3.37509L12.628 1.8501C12.4783 1.7001 12.2787 1.6001 12.0542 1.6001H7.98712C7.08887 1.6001 6.39024 2.3251 6.39024 3.20009V9.60008C6.41519 10.5001 7.11383 11.2001 8.01207 11.2001H12.8027C13.676 11.2001 14.3996 10.5001 14.3996 9.60008V3.95009C14.3996 3.72509 14.2998 3.52509 14.1501 3.37509ZM13.2019 9.60008C13.2019 9.82508 13.0023 10.0001 12.8027 10.0001H7.98712C7.76256 10.0001 7.5879 9.82508 7.5879 9.60008V3.22509C7.5879 3.00009 7.76256 2.82509 7.98712 2.82509H11.1809L11.2058 4.00009C11.2058 4.45009 11.5551 4.80009 12.0043 4.80009H13.177V9.60008H13.2019ZM8.41129 12.8001C8.41129 13.0251 8.21168 13.2001 8.01207 13.2001H3.19649C2.97193 13.2001 2.79727 13.0251 2.79727 12.8001V6.42509C2.79727 6.20009 2.99688 6.02509 3.19649 6.02509H5.61675V4.80009H3.19649C2.32319 4.80009 1.59961 5.52509 1.59961 6.40009L1.62456 12.8001C1.62456 13.7001 2.32319 14.4001 3.22144 14.4001H8.01207C8.88536 14.4001 9.60895 13.7001 9.60895 12.8001V12.0001H8.41129V12.8001Z" fill="#6D9200"/>
</svg>
