<svg width="24" height="24" viewBox="0 0 24 24" fill="none" xmlns="http://www.w3.org/2000/svg">
<g clip-path="url(#clip0_868_22376)">
<path fill-rule="evenodd" clip-rule="evenodd" d="M12.0026 8.81829L19.2733 1.54791C19.9679 0.853366 21.0314 0.790808 21.6488 1.40818C22.2662 2.02555 22.2037 3.08906 21.5091 3.7836L14.2384 11.054L22.4351 19.2503C23.1297 19.9449 23.1922 21.0084 22.5748 21.6257C21.9574 22.2431 20.8939 22.1806 20.1993 21.486L12.0026 13.2897L3.90219 21.3897C3.20762 22.0842 2.14406 22.1468 1.52667 21.5294C0.90927 20.9121 0.971828 19.8485 1.6664 19.154L9.76678 11.054L2.59241 3.87994C1.89784 3.1854 1.83527 2.12189 2.45267 1.50452L2.45268 1.50452C3.07007 0.887147 4.13363 0.949707 4.8282 1.64425L12.0026 8.81829Z" fill="#17303E"/>
</g>
<defs>
<clipPath id="clip0_868_22376">
<rect width="22" height="22" fill="white" transform="translate(1 1)"/>
</clipPath>
</defs>
</svg>
