<svg width="103" height="104" viewBox="0 0 103 104" fill="none" xmlns="http://www.w3.org/2000/svg">
<rect y="2" width="100" height="100" rx="50" fill="white"/>
<ellipse cx="51.2255" cy="52.2175" rx="51.2255" ry="51.7327" fill="#EC8E00"/>
<path d="M71.0563 33.3411C63.9269 33.3411 55.7007 38.3683 52.6212 49.0191C50.5963 49.0617 48.4026 49.1896 46.3355 49.4026C47.6011 45.3126 49.1198 41.2653 50.3431 37.5162C50.4697 37.1328 50.0057 36.792 48.276 36.1103C47.0105 35.5991 45.9558 35.6843 45.6183 36.2381C40.6404 42.4156 33.3423 45.1848 28.4066 45.1848C23.1334 45.1848 19.8429 41.5635 19.8429 36.1529C19.8429 34.5766 20.1804 33.3411 20.6022 31.8074C16.2149 32.063 13.2197 34.7044 13.2197 38.9647C13.2197 45.057 18.6195 49.4452 26.6348 49.4452C33.2157 49.4452 40.092 46.0795 44.5215 41.0097H44.5637C43.72 43.4807 42.581 46.7612 41.5263 50.3398C40.1342 50.7659 39.2483 51.3197 39.2483 51.9588C39.2483 52.896 40.092 53.3221 40.6404 53.4925C39.3327 58.3067 38.3202 63.2913 38.4468 67.1682C38.489 69.6818 39.8811 71.0877 42.3279 71.0877C43.2559 71.0877 44.4793 70.8747 45.2387 70.6191C44.395 68.5741 43.9731 65.6345 43.9731 62.6522C43.9731 59.3292 44.5637 55.9209 45.4496 52.5552C47.8542 52.2144 50.1322 52.257 51.8618 52.3422C51.7775 52.683 51.7353 52.9813 51.6931 53.3221C50.301 63.2913 55.5742 70.4912 64.6441 70.4912C81.0965 70.4912 83.6277 51.9588 83.6277 48.4227C83.6277 39.4334 78.7763 33.3411 71.0563 33.3411ZM65.2347 67.509C59.16 67.509 55.3632 61.5871 56.5023 54.0037C56.6288 53.1091 56.7976 52.2144 57.0085 51.4049C58.2319 50.6807 58.949 50.1268 58.949 49.8286C58.949 49.573 58.4428 49.4026 57.5991 49.2748C60.2568 40.8393 65.9518 36.7068 70.5923 36.7068C75.6546 36.7068 78.8607 41.6488 78.8607 48.5931C78.8607 57.199 73.6718 67.509 65.2347 67.509Z" fill="white"/>
</svg>