<svg width="32" height="32" viewBox="0 0 32 32" fill="none" xmlns="http://www.w3.org/2000/svg">
<g clip-path="url(#clip0_3010_34)">
<path d="M11.174 19.1928L10.7444 19.2539V19.6878V24.7111V25.3333V25.8333H11.2444H21.5555H22.0555V25.3333V19.7618V19.2618H21.5555H18.5091C17.6037 19.2618 16.9 18.5575 16.9 17.7254C16.9 17.1349 17.2508 16.6123 17.7814 16.3547L18.1667 16.1676L18.041 15.7581C17.9848 15.5752 17.9546 15.3814 17.9546 15.18C17.9546 14.3285 18.5009 13.5861 19.2963 13.2806L19.7049 13.1237L19.6034 12.6979C19.5596 12.5141 19.5363 12.3227 19.5363 12.1253C19.5363 10.7309 20.7122 9.5708 22.2 9.5708C23.6877 9.5708 24.8636 10.7308 24.8636 12.1253C24.8636 12.3227 24.8404 12.5142 24.7966 12.6978L24.695 13.1236L25.1037 13.2805C25.8992 13.586 26.4455 14.3285 26.4455 15.18C26.4455 15.3814 26.4152 15.5753 26.359 15.758L26.2331 16.1676L26.6186 16.3547C27.1492 16.6123 27.5 17.1349 27.5 17.7254C27.5 18.5575 26.7963 19.2618 25.8909 19.2618H22.8444H22.3444V19.7618V25.3333V25.8333H22.8444H27.0333C27.3077 25.8333 27.5 26.0437 27.5 26.2667C27.5 26.4896 27.3077 26.7 27.0333 26.7H5.76665C5.49224 26.7 5.29999 26.4896 5.29999 26.2667C5.29999 26.0437 5.49224 25.8333 5.76665 25.8333H9.95554H10.4555V25.3333V24.7111V19.6878V19.2539L10.026 19.1928C7.4577 18.8272 5.29999 15.9581 5.29999 12.2667C5.29999 8.29421 7.78302 5.29999 10.6 5.29999C13.417 5.29999 15.9 8.29421 15.9 12.2667C15.9 15.9581 13.7423 18.8272 11.174 19.1928Z" fill="#87745C" stroke="#17303E"/>
</g>
<defs>
<clipPath id="clip0_3010_34">
<rect width="32" height="32" fill="white"/>
</clipPath>
</defs>
</svg>
