<svg width="32" height="32" viewBox="0 0 32 32" fill="none" xmlns="http://www.w3.org/2000/svg">
<path d="M29.3125 3.89285H20.9018C20.7952 3.89285 20.693 3.93518 20.6177 4.01053C20.5423 4.08588 20.5 4.18807 20.5 4.29463V7.05356H19.6964V4.02678C19.6967 3.77822 19.7956 3.53993 19.9713 3.36418C20.1471 3.18842 20.3854 3.08956 20.6339 3.08928H29.3125C29.4191 3.08928 29.5212 3.04695 29.5966 2.9716C29.6719 2.89625 29.7143 2.79405 29.7143 2.68749C29.7143 2.58093 29.6719 2.47874 29.5966 2.40339C29.5212 2.32804 29.4191 2.28571 29.3125 2.28571H20.6339C20.1723 2.28622 19.7298 2.46981 19.4034 2.79622C19.077 3.12262 18.8934 3.56517 18.8928 4.02678V7.09744C18.6388 7.16771 18.4147 7.31937 18.2551 7.52916C18.0954 7.73895 18.009 7.9953 18.009 8.25892C18.009 8.52254 18.0954 8.77889 18.2551 8.98868C18.4147 9.19847 18.6388 9.35013 18.8928 9.4204V11.389H13.1071V9.42035C13.3612 9.35007 13.5852 9.19842 13.7449 8.98863C13.9045 8.77884 13.991 8.52249 13.991 8.25887C13.991 7.99524 13.9045 7.73889 13.7449 7.5291C13.5852 7.31931 13.3612 7.16766 13.1071 7.09738V4.02678C13.1066 3.56518 12.923 3.12263 12.5966 2.79623C12.2702 2.46983 11.8277 2.28623 11.3661 2.28571H2.68749C2.58093 2.28571 2.47874 2.32804 2.40339 2.40339C2.32804 2.47874 2.28571 2.58093 2.28571 2.68749C2.28571 2.79405 2.32804 2.89625 2.40339 2.9716C2.47874 3.04695 2.58093 3.08928 2.68749 3.08928H11.3661C11.6146 3.08956 11.8529 3.18842 12.0287 3.36418C12.2044 3.53993 12.3033 3.77822 12.3036 4.02678V7.05356H11.5V4.29463C11.5 4.18807 11.4577 4.08588 11.3823 4.01053C11.307 3.93518 11.2048 3.89285 11.0982 3.89285H2.68749C2.58093 3.89285 2.47874 3.93518 2.40339 4.01053C2.32804 4.08588 2.28571 4.18807 2.28571 4.29463C2.28571 4.40119 2.32804 4.50339 2.40339 4.57874C2.47874 4.65409 2.58093 4.69642 2.68749 4.69642H10.6964V7.09744C10.4423 7.16771 10.2183 7.31937 10.0587 7.52916C9.89902 7.73895 9.81258 7.9953 9.81258 8.25892C9.81258 8.52254 9.89902 8.77889 10.0587 8.98868C10.2183 9.19847 10.4423 9.35013 10.6964 9.4204V11.389H8.96804C8.43543 11.3896 7.92479 11.6014 7.54817 11.978C7.17156 12.3547 6.95971 12.8653 6.95912 13.3979V27.7053C6.95971 28.238 7.17156 28.7486 7.54817 29.1252C7.92479 29.5018 8.43543 29.7137 8.96804 29.7143H22.2284C22.761 29.7137 23.2716 29.5018 23.6482 29.1252C24.0249 28.7486 24.2367 28.238 24.2373 27.7053V13.3979C24.2367 12.8653 24.0249 12.3547 23.6482 11.978C23.2716 11.6014 22.761 11.3896 22.2284 11.389H21.3036V9.42035C21.5576 9.35007 21.7817 9.19842 21.9413 8.98863C22.101 8.77884 22.1874 8.52249 22.1874 8.25887C22.1874 7.99524 22.101 7.73889 21.9413 7.5291C21.7817 7.31931 21.5576 7.16766 21.3036 7.09738V4.69642H29.3125C29.4191 4.69642 29.5212 4.65409 29.5966 4.57874C29.6719 4.50339 29.7143 4.40119 29.7143 4.29463C29.7143 4.18807 29.6719 4.08588 29.5966 4.01053C29.5212 3.93518 29.4191 3.89285 29.3125 3.89285ZM10.6161 8.25892C10.6162 8.15239 10.6585 8.05026 10.7339 7.97494C10.8092 7.89961 10.9113 7.85725 11.0178 7.85713H12.7857C12.8923 7.85713 12.9945 7.89946 13.0698 7.97481C13.1452 8.05016 13.1875 8.15236 13.1875 8.25892C13.1875 8.36548 13.1452 8.46768 13.0698 8.54302C12.9945 8.61837 12.8923 8.66071 12.7857 8.66071H11.0178C10.9113 8.66059 10.8092 8.61822 10.7339 8.5429C10.6585 8.46757 10.6162 8.36544 10.6161 8.25892ZM12.3036 9.46428V11.389H11.5V9.46428H12.3036ZM22.2284 12.1926C22.5479 12.1929 22.8543 12.32 23.0803 12.546C23.3062 12.772 23.4334 13.0784 23.4337 13.3979V27.7053C23.4334 28.0249 23.3062 28.3313 23.0803 28.5573C22.8543 28.7832 22.5479 28.9103 22.2284 28.9107H8.96804C8.64848 28.9103 8.3421 28.7832 8.11614 28.5573C7.89017 28.3313 7.76306 28.0249 7.76269 27.7053V13.3979C7.76306 13.0784 7.89017 12.772 8.11614 12.546C8.3421 12.32 8.64848 12.1929 8.96804 12.1926H11.0961L11.0982 12.1927L11.1003 12.1926H12.7033L12.7053 12.1927L12.7074 12.1926H19.2925L19.2946 12.1927L19.2967 12.1926H20.8996L20.9017 12.1927L20.9038 12.1926H22.2284ZM19.6964 11.389V9.46428H20.5V11.389H19.6964ZM21.3839 8.25892C21.3838 8.36544 21.3414 8.46757 21.2661 8.5429C21.1908 8.61822 21.0887 8.66059 20.9821 8.66071H19.2143C19.1077 8.66071 19.0055 8.61837 18.9302 8.54302C18.8548 8.46768 18.8125 8.36548 18.8125 8.25892C18.8125 8.15236 18.8548 8.05016 18.9302 7.97481C19.0055 7.89946 19.1077 7.85713 19.2143 7.85713H20.9821C21.0887 7.85725 21.1908 7.89961 21.2661 7.97494C21.3414 8.05026 21.3838 8.15239 21.3839 8.25892Z" fill="#17303E"/>
<rect x="6.85715" y="10.9714" width="17.8286" height="18.7429" rx="4" fill="#87745C"/>
<path d="M20.018 14.4326H11.2223C10.9307 14.433 10.6511 14.549 10.4449 14.7552C10.2387 14.9614 10.1227 15.2409 10.1224 15.5325V17.3466C10.1228 17.6382 10.2387 17.9178 10.4449 18.124C10.6511 18.3302 10.9307 18.4462 11.2223 18.4465H20.018C20.3096 18.4462 20.5892 18.3302 20.7954 18.124C21.0016 17.9178 21.1175 17.6382 21.1179 17.3466V15.5325C21.1176 15.2409 21.0016 14.9614 20.7954 14.7552C20.5892 14.549 20.3096 14.433 20.018 14.4326ZM20.3143 17.3466C20.3142 17.4252 20.283 17.5005 20.2274 17.556C20.1719 17.6116 20.0966 17.6428 20.018 17.6429H11.2223C11.1437 17.6428 11.0684 17.6116 11.0129 17.556C10.9573 17.5005 10.9261 17.4252 10.926 17.3466V15.5325C10.9261 15.454 10.9573 15.3787 11.0128 15.3231C11.0684 15.2675 11.1437 15.2363 11.2223 15.2362H20.018C20.0966 15.2363 20.1719 15.2675 20.2275 15.3231C20.283 15.3787 20.3142 15.454 20.3143 15.5325V17.3466ZM16.8417 20.1692C16.5758 20.0716 16.2981 20.0096 16.0159 19.9848C15.9389 19.9779 15.8615 19.9934 15.7931 20.0294C15.7246 20.0655 15.668 20.1205 15.6301 20.1879C15.5921 20.2553 15.5744 20.3322 15.5791 20.4094C15.5838 20.4866 15.6107 20.5608 15.6565 20.6231C15.8179 20.8407 15.9203 21.0964 15.9537 21.3652C15.9909 21.6811 15.9291 21.9838 15.846 22.144C15.72 21.8635 15.5705 21.5942 15.3991 21.339C15.313 21.2108 15.2122 21.0931 15.099 20.9881C14.7988 20.7115 14.4273 20.5242 14.0264 20.4474C13.9616 20.434 13.8944 20.4369 13.8309 20.4557C13.7675 20.4745 13.7096 20.5088 13.6626 20.5554C13.6156 20.602 13.5808 20.6594 13.5613 20.7227C13.5418 20.786 13.5383 20.8531 13.551 20.9181C13.6324 21.3174 13.6342 21.7288 13.5564 22.1289C13.4653 22.5818 13.3282 22.8387 13.1545 23.164C13.0189 23.4085 12.8988 23.6612 12.795 23.9207C12.5066 24.6583 12.5095 25.4779 12.8032 26.2134C13.1187 26.9858 13.7739 27.6182 14.6008 27.9485C14.9781 28.0995 15.3795 28.1816 15.7858 28.1908C15.8755 28.2057 15.9663 28.2134 16.0572 28.2135C16.1716 28.2138 16.2857 28.201 16.3972 28.1753C16.484 28.1553 16.5687 28.1272 16.6502 28.0914C16.8076 28.0503 16.9612 27.9962 17.1096 27.9296C18.3698 27.3624 19.3078 26.0344 19.4437 24.625C19.6261 22.7316 18.4832 20.7744 16.8417 20.1692ZM16.9148 26.235C16.8978 26.4858 16.7663 27.1137 16.3712 27.3321C16.205 27.3696 16.0353 27.3888 15.8649 27.3893C15.7119 27.354 15.5682 27.2866 15.4432 27.1917C15.259 27.0538 15.1347 26.8737 15.1265 26.7328C15.1224 26.6617 15.1471 26.4632 15.4646 26.1568C15.5711 26.0553 15.6943 25.973 15.8289 25.9136C15.9862 25.8354 16.182 25.7379 16.3436 25.5057C16.4286 25.3828 16.4896 25.2449 16.5234 25.0993C16.7989 25.4391 16.9417 25.8376 16.9148 26.235ZM18.6437 24.5479C18.5724 25.2885 18.2094 26.018 17.6833 26.555C17.6991 26.4671 17.7102 26.3785 17.7165 26.2894C17.7807 25.3412 17.2305 24.4105 16.2806 23.8606C16.2115 23.8206 16.1322 23.8021 16.0526 23.8074C15.973 23.8127 15.8967 23.8416 15.8336 23.8904C15.7705 23.9392 15.7233 24.0057 15.6981 24.0814C15.6729 24.157 15.6708 24.2385 15.692 24.3154C15.757 24.5505 15.8084 24.8681 15.6842 25.0464C15.6418 25.1072 15.5993 25.1303 15.4708 25.1943C15.2627 25.2902 15.072 25.4201 14.9065 25.5786C14.3964 26.071 14.3083 26.5033 14.3243 26.7792C14.3267 26.8176 14.3312 26.8558 14.3377 26.8938C13.9207 26.6034 13.6149 26.1799 13.4705 25.6927C13.3262 25.2055 13.3519 24.6837 13.5435 24.213C13.636 23.983 13.7428 23.7591 13.8634 23.5424C14.0435 23.2049 14.2299 22.856 14.3442 22.2872C14.3982 22.017 14.4224 21.7417 14.4162 21.4662C14.4634 21.4995 14.5083 21.536 14.5505 21.5755C14.6201 21.6396 14.6819 21.7118 14.7344 21.7905C14.9525 22.1117 15.22 22.6273 15.2918 23.0007C15.3022 23.0547 15.3235 23.106 15.3545 23.1514C15.3856 23.1968 15.4256 23.2354 15.4721 23.2647C15.7837 23.4612 16.0216 23.1898 16.2128 22.9716C16.3077 22.8634 16.4278 22.7191 16.46 22.6749C16.6989 22.3462 16.8135 21.7953 16.7518 21.2713C16.7401 21.1722 16.722 21.0739 16.6974 20.9771C17.9209 21.5133 18.7853 23.0792 18.6437 24.5479Z" fill="#17303E"/>
</svg>
