<svg width="100" height="103" viewBox="0 0 100 103" fill="none" xmlns="http://www.w3.org/2000/svg">
<rect y="3" width="100" height="100" rx="50" fill="white"/>
<g clip-path="url(#clip0_3010_2151)">
<path d="M58.8259 54.8109H47.6278H38.2537C37.9159 54.8109 37.5816 54.7434 37.2694 54.612C36.9574 54.4808 36.6739 54.2884 36.435 54.0457C36.1963 53.803 36.0069 53.515 35.8776 53.198C35.7483 52.881 35.6818 52.5411 35.6818 52.198V40.1187C35.682 39.7547 35.757 39.3947 35.902 39.0618C36.0469 38.7289 36.2586 38.4304 36.5235 38.1853L46.8089 28.6832C47.2811 28.2437 47.8983 27.9999 48.5388 27.9999C49.1792 27.9998 49.7964 28.2435 50.2687 28.6829L60.5559 38.1854C60.8207 38.4305 61.0323 38.729 61.1773 39.0619C61.3222 39.3948 61.3972 39.7547 61.3976 40.1187V52.198C61.3976 52.8909 61.1267 53.5555 60.6444 54.0455C60.1622 54.5355 59.508 54.8108 58.8259 54.8109ZM53.1678 51.6746L58.3117 51.6753V40.3499L48.5389 31.3227L38.7677 40.3499V51.6753L43.9101 51.6746C43.9101 51.6746 53.0823 51.6175 53.1678 51.6746Z" fill="url(#paint0_linear_3010_2151)"/>
<path d="M61.5532 54.8109H50.3551H40.981C40.6432 54.8109 40.3089 54.7434 39.9967 54.612C39.6847 54.4808 39.4012 54.2884 39.1623 54.0457C38.9236 53.803 38.7341 53.515 38.6049 53.198C38.4756 52.881 38.4091 52.5411 38.4091 52.198V40.1187C38.4093 39.7547 38.4843 39.3947 38.6293 39.0618C38.7742 38.7289 38.9859 38.4304 39.2508 38.1853L49.5362 28.6832C50.0084 28.2437 50.6256 27.9999 51.2661 27.9999C51.9065 27.9998 52.5236 28.2435 52.996 28.6829L63.2831 38.1854C63.548 38.4305 63.7596 38.729 63.9046 39.0619C64.0495 39.3948 64.1245 39.7547 64.1249 40.1187V52.198C64.1249 52.8909 63.854 53.5555 63.3716 54.0455C62.8895 54.5355 62.2353 54.8108 61.5532 54.8109ZM55.8951 51.6746L61.039 51.6753V40.3499L51.2662 31.3227L41.495 40.3499V51.6753L46.6374 51.6746C46.6374 51.6746 55.8096 51.6175 55.8951 51.6746Z" fill="url(#paint1_linear_3010_2151)"/>
<path d="M16.8617 67.3489H19.7974L18.2383 62.8458H18.1388L16.4305 67.1337C16.3807 67.2992 16.4968 67.3489 16.8617 67.3489ZM15.0704 70.7262C14.805 71.4215 15.5846 71.4878 16.2148 71.5209C16.3144 71.6202 16.3144 71.9679 16.2148 72.0672C15.6012 72.0506 14.7718 72.0341 14.0918 72.0341C13.5776 72.0341 13.0469 72.0506 12.6157 72.0672C12.5161 71.9679 12.5161 71.6202 12.6157 71.5209C13.3289 71.4712 13.843 71.3718 14.2743 70.3454L18.0393 61.4718C18.2549 61.4718 18.7028 61.2897 18.9515 61.1406L22.3683 70.6103C22.6503 71.4215 23.2142 71.4712 23.861 71.5209C23.9605 71.6202 23.9605 71.9679 23.861 72.0672C23.2805 72.0506 22.6503 72.0341 21.9702 72.0341C21.3234 72.0341 20.4111 72.0506 19.7974 72.0672C19.6979 71.9679 19.6979 71.6202 19.7974 71.5209C20.577 71.4712 21.2073 71.4215 21.0248 70.8421L20.0628 68.0442H16.5631C16.1651 68.0442 16.0656 68.1105 15.9826 68.3257L15.0704 70.7262ZM26.4703 61.3558H29.8704C29.8704 61.3558 31.2138 61.3393 31.8607 61.3227C31.9436 61.8857 32.0266 62.5313 32.1095 63.9219C31.9436 64.0047 31.7778 64.0213 31.6285 63.9882C31.2802 62.8458 31.0149 62.0181 29.7708 62.0181H27.7806C27.3824 62.0181 27.1835 62.1836 27.1835 62.581V70.0144C27.1835 71.3884 27.4655 71.4712 28.6265 71.5209C28.726 71.6202 28.726 71.9679 28.6265 72.0672C27.963 72.0506 27.1006 72.0341 26.4868 72.0341C25.8565 72.0341 24.9775 72.0506 24.3306 72.0672C24.2311 71.9679 24.2311 71.6202 24.3306 71.5209C25.4917 71.4712 25.7736 71.3884 25.7736 70.0144V63.3756C25.7736 62.0015 25.4917 61.9188 24.3306 61.8691C24.2311 61.7697 24.2311 61.4221 24.3306 61.3227C25.1599 61.3393 26.4703 61.3558 26.4703 61.3558ZM35.8127 67.3489H38.7483L37.1893 62.8458H37.0897L35.3814 67.1337C35.3316 67.2992 35.4478 67.3489 35.8127 67.3489ZM34.0213 70.7262C33.7559 71.4215 34.5355 71.4878 35.1658 71.5209C35.2653 71.6202 35.2653 71.9679 35.1658 72.0672C34.5521 72.0506 33.7228 72.0341 33.0427 72.0341C32.5285 72.0341 31.9978 72.0506 31.5666 72.0672C31.4671 71.9679 31.4671 71.6202 31.5666 71.5209C32.2798 71.4712 32.794 71.3718 33.2252 70.3454L36.9902 61.4718C37.2059 61.4718 37.6537 61.2897 37.9025 61.1406L41.3192 70.6103C41.6012 71.4215 42.1651 71.4712 42.812 71.5209C42.9115 71.6202 42.9115 71.9679 42.812 72.0672C42.2315 72.0506 41.6012 72.0341 40.9211 72.0341C40.2742 72.0341 39.3621 72.0506 38.7483 72.0672C38.6489 71.9679 38.6489 71.6202 38.7483 71.5209C39.5279 71.4712 40.1582 71.4215 39.9757 70.8421L39.0137 68.0442H35.5141C35.116 68.0442 35.0165 68.1105 34.9335 68.3257L34.0213 70.7262ZM46.1178 62.8624V66.7198C46.3003 66.7695 46.9637 66.8026 47.3784 66.8026C48.9872 66.8026 49.8497 66.0741 49.8497 64.2862C49.8497 62.1836 48.7052 61.8028 47.5608 61.8028C46.3666 61.8028 46.1178 62.3822 46.1178 62.8624ZM44.708 63.3756C44.708 62.0015 44.426 61.9188 43.265 61.8691C43.1654 61.7697 43.1654 61.4221 43.265 61.3227C43.9284 61.3393 44.7909 61.3558 45.4046 61.3558C46.0681 61.3558 47.03 61.24 47.6769 61.24C50.7453 61.24 51.3921 63.0113 51.3921 63.9882C51.3921 65.3953 50.48 67.3655 47.4613 67.3655C46.8808 67.3655 46.4827 67.3159 46.1178 67.1999V70.0144C46.1178 71.3884 46.5159 71.4547 47.8096 71.5209C47.9091 71.6202 47.9091 71.9679 47.8096 72.0672C46.9803 72.0506 46.0016 72.0341 45.4211 72.0341C44.824 72.0341 44.0113 72.0506 43.265 72.0672C43.1654 71.9679 43.1654 71.6202 43.265 71.5209C44.426 71.4712 44.708 71.3884 44.708 70.0144V63.3756ZM61.8748 70.0144C61.8748 71.3884 62.1568 71.4712 63.3178 71.5209C63.4173 71.6202 63.4173 71.9679 63.3178 72.0672C62.5715 72.0506 61.7587 72.0341 61.1782 72.0341C60.5646 72.0341 59.7684 72.0506 59.0221 72.0672C58.9225 71.9679 58.9225 71.6202 59.0221 71.5209C60.1831 71.4712 60.4651 71.3884 60.4651 70.0144V64.1206C60.3324 64.1703 60.2495 64.2365 60.1664 64.3358L55.6385 69.9647C55.4394 70.213 55.2736 70.3454 55.1575 70.7427C55.2736 71.4215 55.6551 71.4878 56.5672 71.5209C56.6668 71.6202 56.6668 71.9679 56.5672 72.0672C55.8209 72.0506 55.0082 72.0341 54.4277 72.0341C53.8141 72.0341 53.0178 72.0506 52.2715 72.0672C52.172 71.9679 52.172 71.6202 52.2715 71.5209C53.4325 71.4712 53.7145 71.3884 53.7145 70.0144V63.3756C53.7145 62.0015 53.4325 61.9188 52.2715 61.8691C52.172 61.7697 52.172 61.4221 52.2715 61.3227C53.0511 61.3393 53.8472 61.3558 54.4111 61.3558C55.0413 61.3558 55.8376 61.3393 56.5672 61.3227C56.6668 61.4221 56.6668 61.7697 56.5672 61.8691C55.4062 61.9188 55.1242 62.0015 55.1242 63.3756V69.2693C55.1906 69.2693 55.2902 69.2196 55.4062 69.0872L59.9675 63.4252C60.1499 63.1935 60.3157 62.8955 60.3986 62.6306C60.2826 61.9685 59.9177 61.9188 59.0221 61.8691C58.9225 61.7697 58.9225 61.4221 59.0221 61.3227C59.8016 61.3393 60.5977 61.3558 61.1616 61.3558C61.7919 61.3558 62.5881 61.3393 63.3178 61.3227C63.4173 61.4221 63.4173 61.7697 63.3178 61.8691C62.1568 61.9188 61.8748 62.0015 61.8748 63.3756V70.0144ZM73.9821 70.0144C73.9821 71.3884 74.264 71.4712 75.4251 71.5209C75.5245 71.6202 75.5245 71.9679 75.4251 72.0672C74.6953 72.0506 73.8992 72.0341 73.2854 72.0341C72.6551 72.0341 71.8755 72.0506 71.1292 72.0672C71.0297 71.9679 71.0297 71.6202 71.1292 71.5209C72.2902 71.4712 72.5722 71.3884 72.5722 70.0144V66.7198H66.8998V70.0144C66.8998 71.3884 67.1818 71.4712 68.3428 71.5209C68.4423 71.6202 68.4423 71.9679 68.3428 72.0672C67.613 72.0506 66.8002 72.0341 66.2032 72.0341C65.573 72.0341 64.7767 72.0506 64.0469 72.0672C63.9475 71.9679 63.9475 71.6202 64.0469 71.5209C65.208 71.4712 65.4899 71.3884 65.4899 70.0144V63.3756C65.4899 62.0015 65.208 61.9188 64.0469 61.8691C63.9475 61.7697 63.9475 61.4221 64.0469 61.3227C64.6772 61.3393 65.3572 61.3558 66.1866 61.3558C67.0325 61.3558 67.7125 61.3393 68.3428 61.3227C68.4423 61.4221 68.4423 61.7697 68.3428 61.8691C67.1818 61.9188 66.8998 62.0015 66.8998 63.3756V66.0244H72.5722V63.3756C72.5722 62.0015 72.2902 61.9188 71.1292 61.8691C71.0297 61.7697 71.0297 61.4221 71.1292 61.3227C71.8591 61.3393 72.6386 61.3558 73.2689 61.3558C73.8992 61.3558 74.7451 61.3393 75.4251 61.3227C75.5245 61.4221 75.5245 61.7697 75.4251 61.8691C74.264 61.9188 73.9821 62.0015 73.9821 63.3756V70.0144ZM81.3374 61.7367C79.6955 61.7367 78.0534 63.1439 78.0534 66.6205C78.0534 69.7991 79.9608 71.6036 81.9843 71.6036C83.8751 71.6036 85.3015 69.8653 85.3015 66.9019C85.3015 63.5577 83.5269 61.7367 81.3374 61.7367ZM86.8938 66.5874C86.8938 67.978 86.5289 69.1866 85.8655 70.1136C84.9532 71.4215 83.4771 72.1997 81.6525 72.1997C78.833 72.1997 76.4612 70.1633 76.4612 66.9019C76.4612 63.7067 78.3354 61.1406 81.5531 61.1406C84.5221 61.1406 86.8938 63.1604 86.8938 66.5874Z" fill="black"/>
</g>
<rect width="100" height="100" rx="50" fill="white"/>
<g clip-path="url(#clip1_3010_2151)">
<path d="M91.7497 53.5476L92.1817 54.0695C91.9057 54.2615 91.6297 54.4116 91.3537 54.5196C91.0897 54.6276 90.8377 54.6816 90.5977 54.6816C90.3337 54.6816 90.0757 54.6035 89.8237 54.4475C89.5837 54.2795 89.3557 54.0756 89.1397 53.8356C88.9237 53.5836 88.7857 53.4275 88.7257 53.3675C88.5577 53.2235 88.3897 53.1516 88.2217 53.1516C87.6937 53.1516 87.3277 53.5776 87.1237 54.4296C86.9797 55.0176 86.9077 55.7616 86.9077 56.6616C87.1717 56.4576 87.5257 56.2536 87.9697 56.0496C88.4857 55.8096 88.8877 55.6896 89.1757 55.6896C89.3917 55.6896 89.6137 55.7315 89.8417 55.8155C90.0697 55.8995 90.2917 56.0076 90.5077 56.1396C90.7237 56.2716 90.8797 56.3376 90.9757 56.3376C91.0837 56.3376 91.1917 56.3136 91.2997 56.2656C91.4077 56.2176 91.5157 56.1516 91.6237 56.0676L91.9657 56.5175C91.7737 56.7455 91.6117 56.9196 91.4797 57.0396C91.3597 57.1476 91.1977 57.2736 90.9937 57.4176C90.8017 57.5616 90.6457 57.6576 90.5257 57.7056C90.4177 57.7536 90.2917 57.7775 90.1477 57.7775C89.9557 57.7775 89.8177 57.7596 89.7337 57.7236C89.6617 57.6876 89.5357 57.6095 89.3557 57.4895C89.1757 57.3695 88.9957 57.2616 88.8157 57.1656C88.5517 57.0216 88.3057 56.9496 88.0777 56.9496C87.8257 56.9496 87.5797 57.0156 87.3397 57.1476C87.2197 57.2196 87.0817 57.3216 86.9257 57.4536C86.9257 58.3176 87.1297 59.0436 87.5377 59.6315C87.9577 60.2195 88.5457 60.5135 89.3017 60.5135C89.6257 60.5135 89.9617 60.4535 90.3097 60.3335C90.6577 60.2015 91.0597 59.9675 91.5157 59.6315L91.8217 59.9916C91.4737 60.3756 91.0417 60.6876 90.5257 60.9276C90.0097 61.1796 89.4217 61.3055 88.7617 61.3055C87.7297 61.3055 86.8417 61.0596 86.0977 60.5676C85.0417 59.8596 84.5137 58.7556 84.5137 57.2556V56.6796C84.5137 55.7436 84.7957 54.8675 85.3597 54.0515C86.0557 53.0435 86.9917 52.5396 88.1677 52.5396C88.6957 52.5396 89.2237 52.6476 89.7517 52.8636C90.0157 52.9716 90.3457 53.1455 90.7417 53.3855C90.9937 53.5775 91.2037 53.6735 91.3717 53.6735C91.5037 53.6735 91.6297 53.6316 91.7497 53.5476Z" fill="#015E8D"/>
<path d="M76.9375 57.2556C76.9375 55.9476 77.3455 54.7356 78.1615 53.6196C78.8695 52.6596 79.4815 52.1796 79.9975 52.1796C80.5735 52.1796 81.1975 52.4976 81.8695 53.1336C82.7455 53.9616 83.1835 55.0056 83.1835 56.2656C83.1835 57.2976 82.8115 58.3956 82.0675 59.5596C81.3355 60.7236 80.6755 61.3056 80.0875 61.3056C79.4875 61.3056 78.8215 60.8676 78.0895 59.9916C77.3215 59.0676 76.9375 58.1556 76.9375 57.2556ZM78.6835 54.0876C78.5155 54.2916 78.3835 54.5256 78.2875 54.7896C78.1915 55.0416 78.1435 55.2696 78.1435 55.4736C78.1435 56.2416 78.3835 57.0096 78.8635 57.7776C79.4635 58.7376 80.2315 59.2176 81.1675 59.2176C81.3115 59.2176 81.4195 59.2116 81.4915 59.1996C81.5875 59.0076 81.6595 58.8036 81.7075 58.5876C81.7555 58.3716 81.7795 58.1556 81.7795 57.9396C81.7795 56.9916 81.5035 56.1516 80.9515 55.4196C80.3635 54.6396 79.6075 54.1956 78.6835 54.0876Z" fill="#015E8D"/>
<path d="M71.1732 56.4276H71.3172C72.0852 55.0236 72.8172 54.0036 73.5132 53.3676C74.0772 52.8516 74.6172 52.5936 75.1332 52.5936C75.3252 52.5936 75.4992 52.6236 75.6552 52.6836C75.8112 52.7316 75.8892 52.7916 75.8892 52.8636C75.8892 52.9836 75.8412 53.1096 75.7452 53.2416C75.5052 53.5776 75.3852 54.0396 75.3852 54.6276L75.3672 54.9876L74.9352 55.0056C74.7672 54.6456 74.5032 54.4656 74.1432 54.4656C73.8552 54.4656 73.5192 54.6276 73.1352 54.9516C72.7632 55.2636 72.4452 55.6416 72.1812 56.0856L71.8212 56.5896C72.9852 56.9136 73.9212 57.4116 74.6292 58.0836C75.5052 58.9116 75.9432 59.7396 75.9432 60.5676C75.9432 60.7116 75.7992 60.7836 75.5112 60.7836H75.2952L74.6832 60.7296C74.4432 60.7296 74.2452 60.7416 74.0892 60.7656C73.9452 60.7896 73.8552 60.8016 73.8192 60.8016C73.7112 60.8016 73.6332 60.7536 73.5852 60.6576C73.5372 60.5616 73.4892 60.3636 73.4412 60.0636C73.3212 59.3196 73.0632 58.6776 72.6672 58.1376C72.2712 57.5856 71.7732 57.2136 71.1732 57.0216C71.1732 57.7776 71.1852 58.4016 71.2092 58.8936C71.2452 59.3736 71.2932 59.8236 71.3532 60.2436C71.3772 60.4236 71.3652 60.5376 71.3172 60.5856C71.2212 60.6816 70.9692 60.7296 70.5612 60.7296H69.7512C69.4512 60.7296 69.2712 60.5136 69.2112 60.0816C69.1512 59.6376 69.1212 58.3356 69.1212 56.1756C69.1212 54.6156 69.1572 53.6556 69.2292 53.2956C69.3132 52.9356 69.4872 52.7556 69.7512 52.7556L70.2012 52.7916L71.0652 52.7376C71.1612 52.7256 71.2212 52.7256 71.2452 52.7376C71.3892 52.7736 71.4612 52.8576 71.4612 52.9896C71.4612 53.0976 71.4312 53.3256 71.3712 53.6736C71.3232 54.0096 71.2752 54.3816 71.2272 54.7896C71.1912 55.1976 71.1732 55.7436 71.1732 56.4276Z" fill="#015E8D"/>
<path d="M66.9333 57.9216L67.4913 58.3716C67.1193 59.1756 66.6573 59.8656 66.1053 60.4416C65.5533 61.0176 65.1033 61.3056 64.7553 61.3056C64.2153 61.3056 63.5913 60.7596 62.8833 59.6676C62.1753 58.5636 61.8213 57.5436 61.8213 56.6076C61.8213 55.6356 62.1693 54.6396 62.8653 53.6196C63.5253 52.6596 64.1013 52.1796 64.5933 52.1796C64.8333 52.1796 65.3493 52.3776 66.1413 52.7736C66.9453 53.1576 67.3473 53.4876 67.3473 53.7636C67.3473 53.8596 67.1853 54.0816 66.8613 54.4296C66.6213 54.6816 66.4293 54.9276 66.2853 55.1676C66.2013 55.3116 66.1413 55.3836 66.1053 55.3836C66.0693 55.3836 65.9433 55.2456 65.7273 54.9696C65.5113 54.6936 65.2953 54.4716 65.0793 54.3036C64.7193 54.0276 64.2693 53.8296 63.7293 53.7096C63.6213 53.9376 63.5433 54.2076 63.4953 54.5196C63.4593 54.8316 63.4413 55.0596 63.4413 55.2036C63.4413 55.9956 63.6933 56.8056 64.1973 57.6336C64.7133 58.4496 65.3013 58.9836 65.9613 59.2356C66.1173 59.0796 66.2733 58.8936 66.4293 58.6776C66.5253 58.5456 66.6153 58.4136 66.6993 58.2816L66.9333 57.9216Z" fill="#015E8D"/>
<path d="M53.7581 52.7916H57.8621C58.4621 52.7916 58.8581 52.8336 59.0501 52.9176C59.3501 53.0496 59.5001 53.3256 59.5001 53.7456C59.5001 54.3816 59.1881 54.9156 58.5641 55.3476C58.1081 55.6596 57.3941 55.9596 56.4221 56.2476V56.3556C57.4061 56.5836 58.2161 56.8956 58.8521 57.2916C59.8601 57.9156 60.3641 58.6836 60.3641 59.5956C60.3641 60.0876 60.2141 60.4116 59.9141 60.5676C59.7101 60.6756 59.3501 60.7296 58.8341 60.7296H53.5961C53.3561 60.7296 53.2001 60.5736 53.1281 60.2616C53.0681 59.9376 53.0381 59.1156 53.0381 57.7956C53.0381 55.4796 53.0741 54.0696 53.1461 53.5656C53.2301 53.0496 53.4341 52.7916 53.7581 52.7916ZM55.1441 55.9236C55.7681 55.9236 56.2901 55.7076 56.7101 55.2756C57.0701 54.9036 57.2501 54.4896 57.2501 54.0336C57.2501 53.7576 57.1541 53.5776 56.9621 53.4936C56.7701 53.3976 56.4641 53.3496 56.0441 53.3496C55.8881 53.3496 55.7441 53.3556 55.6121 53.3676C55.4801 53.3676 55.3661 53.3676 55.2701 53.3676C55.1861 54.1716 55.1441 55.0236 55.1441 55.9236ZM55.1621 60.1176L56.2421 60.1536C56.8661 60.1536 57.2681 60.1116 57.4481 60.0276C57.7241 59.8956 57.8621 59.6016 57.8621 59.1456C57.8621 58.5816 57.6341 58.0416 57.1781 57.5256C56.6261 56.9016 55.9481 56.5896 55.1441 56.5896L55.1081 58.0116L55.1621 60.1176Z" fill="#015E8D"/>
<path d="M45.1914 57.2556C45.1914 55.9476 45.5994 54.7356 46.4154 53.6196C47.1234 52.6596 47.7354 52.1796 48.2514 52.1796C48.8274 52.1796 49.4514 52.4976 50.1234 53.1336C50.9994 53.9616 51.4374 55.0056 51.4374 56.2656C51.4374 57.2976 51.0654 58.3956 50.3214 59.5596C49.5894 60.7236 48.9294 61.3056 48.3414 61.3056C47.7414 61.3056 47.0754 60.8676 46.3434 59.9916C45.5754 59.0676 45.1914 58.1556 45.1914 57.2556ZM46.9374 54.0876C46.7694 54.2916 46.6374 54.5256 46.5414 54.7896C46.4454 55.0416 46.3974 55.2696 46.3974 55.4736C46.3974 56.2416 46.6374 57.0096 47.1174 57.7776C47.7174 58.7376 48.4854 59.2176 49.4214 59.2176C49.5654 59.2176 49.6734 59.2116 49.7454 59.1996C49.8414 59.0076 49.9134 58.8036 49.9614 58.5876C50.0094 58.3716 50.0334 58.1556 50.0334 57.9396C50.0334 56.9916 49.7574 56.1516 49.2054 55.4196C48.6174 54.6396 47.8614 54.1956 46.9374 54.0876Z" fill="#015E8D"/>
<path d="M41.284 56.7696L38.494 56.7336C38.494 56.9736 38.5 57.1716 38.512 57.3276C38.572 58.1196 38.602 58.5336 38.602 58.5696C38.602 58.7616 38.632 59.0196 38.692 59.3436C38.752 59.6556 38.782 59.9556 38.782 60.2436C38.782 60.4356 38.734 60.5676 38.638 60.6396C38.542 60.6996 38.284 60.7296 37.864 60.7296H37.072C36.796 60.7296 36.622 60.4716 36.55 59.9556C36.49 59.4396 36.46 58.1796 36.46 56.1756C36.46 54.5916 36.496 53.6316 36.568 53.2956C36.652 52.9476 36.82 52.7736 37.072 52.7736L37.576 52.7916L38.35 52.7556H38.53C38.686 52.7796 38.764 52.8636 38.764 53.0076C38.764 53.2716 38.71 53.8236 38.602 54.6636C38.542 55.1316 38.512 55.5876 38.512 56.0316L41.284 56.0856C41.284 54.6096 41.338 53.6556 41.446 53.2236C41.518 52.9236 41.686 52.7736 41.95 52.7736L42.454 52.7916H42.742C42.826 52.7916 42.91 52.7916 42.994 52.7916C43.102 52.7676 43.18 52.7556 43.228 52.7556H43.426C43.582 52.7796 43.66 52.8636 43.66 53.0076C43.66 53.0796 43.636 53.2056 43.588 53.3856C43.54 53.5656 43.504 53.7696 43.48 53.9976C43.396 54.5976 43.354 55.3056 43.354 56.1216C43.354 57.0696 43.384 57.8376 43.444 58.4256C43.504 59.0136 43.57 59.6196 43.642 60.2436C43.642 60.4716 43.576 60.6096 43.444 60.6576C43.324 60.7056 43.09 60.7296 42.742 60.7296H41.95C41.638 60.7296 41.446 60.5316 41.374 60.1356C41.314 59.7276 41.284 58.6056 41.284 56.7696Z" fill="#015E8D"/>
<path d="M31.1015 52.7916H32.8475C32.9675 52.7916 33.0395 52.8216 33.0635 52.8816C33.0635 53.0136 33.0635 53.1216 33.0635 53.2056C33.0755 53.2776 33.1115 53.4336 33.1715 53.6736L33.4415 54.6636L33.5675 55.1676C33.9515 56.7036 34.2995 57.9396 34.6115 58.8756C34.8155 59.4516 35.0195 60.0216 35.2235 60.5856C35.2235 60.6816 35.1095 60.7296 34.8815 60.7296H33.1355C33.0515 60.7296 32.9915 60.6576 32.9555 60.5136C32.9315 60.3696 32.9135 60.2436 32.9015 60.1356C32.8295 59.9316 32.7695 59.7456 32.7215 59.5776L32.5235 58.9116L32.3075 58.1376C32.0555 58.9776 31.7435 59.6196 31.3715 60.0636C30.8915 60.6396 30.3035 60.9276 29.6075 60.9276C28.9595 60.9276 28.4735 60.6636 28.1495 60.1356C27.8975 59.7276 27.7715 59.2476 27.7715 58.6956C27.7715 58.1316 28.0475 57.4596 28.5995 56.6796C28.7915 56.4036 29.2295 55.8756 29.9135 55.0956C29.9735 55.0236 30.2195 54.7536 30.6515 54.2856C30.8435 54.0816 30.9395 53.9196 30.9395 53.7996C30.9395 53.7276 30.9275 53.6496 30.9035 53.5656C30.8915 53.4696 30.8615 53.3616 30.8135 53.2416C30.7775 53.1096 30.7595 52.9896 30.7595 52.8816C30.7595 52.8216 30.8735 52.7916 31.1015 52.7916ZM31.2455 54.4656C30.7535 55.0056 30.3455 55.5696 30.0215 56.1576C29.6975 56.7336 29.5355 57.2136 29.5355 57.5976C29.5355 57.8856 29.6135 58.1556 29.7695 58.4076C29.9375 58.6476 30.1955 58.7676 30.5435 58.7676C30.9875 58.7676 31.3535 58.5996 31.6415 58.2636C31.8815 57.9876 32.0015 57.6936 32.0015 57.3816C32.0015 57.1896 31.9655 56.9736 31.8935 56.7336C31.8215 56.4936 31.7615 56.2956 31.7135 56.1396L31.4975 55.3836L31.2455 54.4656Z" fill="#015E8D"/>
<path d="M19.7434 52.7916H23.8474C24.4474 52.7916 24.8434 52.8336 25.0354 52.9176C25.3354 53.0496 25.4854 53.3256 25.4854 53.7456C25.4854 54.3816 25.1734 54.9156 24.5494 55.3476C24.0934 55.6596 23.3794 55.9596 22.4074 56.2476V56.3556C23.3914 56.5836 24.2014 56.8956 24.8374 57.2916C25.8454 57.9156 26.3494 58.6836 26.3494 59.5956C26.3494 60.0876 26.1994 60.4116 25.8994 60.5676C25.6954 60.6756 25.3354 60.7296 24.8194 60.7296H19.5814C19.3414 60.7296 19.1854 60.5736 19.1134 60.2616C19.0534 59.9376 19.0234 59.1156 19.0234 57.7956C19.0234 55.4796 19.0594 54.0696 19.1314 53.5656C19.2154 53.0496 19.4194 52.7916 19.7434 52.7916ZM21.1294 55.9236C21.7534 55.9236 22.2754 55.7076 22.6954 55.2756C23.0554 54.9036 23.2354 54.4896 23.2354 54.0336C23.2354 53.7576 23.1394 53.5776 22.9474 53.4936C22.7554 53.3976 22.4494 53.3496 22.0294 53.3496C21.8734 53.3496 21.7294 53.3556 21.5974 53.3676C21.4654 53.3676 21.3514 53.3676 21.2554 53.3676C21.1714 54.1716 21.1294 55.0236 21.1294 55.9236ZM21.1474 60.1176L22.2274 60.1536C22.8514 60.1536 23.2534 60.1116 23.4334 60.0276C23.7094 59.8956 23.8474 59.6016 23.8474 59.1456C23.8474 58.5816 23.6194 58.0416 23.1634 57.5256C22.6114 56.9016 21.9334 56.5896 21.1294 56.5896L21.0934 58.0116L21.1474 60.1176Z" fill="#015E8D"/>
<path d="M13.348 52.4496L9.568 57.0576V60.0096H10.756V60.7296H5.5V60.0096H6.922V49.4796H5.5V48.7596H10.756V49.4796H9.568V55.9236L13.348 51.2976V49.4796H12.178V48.7596H17.416V49.4796H15.994V60.0096H17.416V60.7296H12.178V60.0096H13.348V52.4496Z" fill="#015E8D"/>
<path d="M93.6767 44.3635C93.5087 44.7235 93.3287 45.1075 93.1367 45.5155C92.9447 45.9115 92.7167 46.2835 92.4527 46.6315C92.1887 46.9675 91.8767 47.2495 91.5167 47.4775C91.1687 47.6935 90.7427 47.8015 90.2387 47.8015C89.7827 47.8015 89.3807 47.6575 89.0327 47.3695C88.6967 47.0815 88.5227 46.6495 88.5107 46.0735C88.5107 45.8095 88.5407 45.5275 88.6007 45.2275C88.6727 44.9275 88.7687 44.6335 88.8887 44.3455C89.0207 44.0455 89.1707 43.7575 89.3387 43.4815C89.5067 43.2055 89.6927 42.9475 89.8967 42.7075C90.1247 42.4435 90.3767 42.2035 90.6527 41.9875C90.9287 41.7715 91.2047 41.6095 91.4807 41.5015C91.7567 41.3815 92.0207 41.3215 92.2727 41.3215C92.5367 41.3215 92.7707 41.3935 92.9747 41.5375C93.1427 41.6695 93.2387 41.8375 93.2627 42.0415C93.2987 42.2455 93.2687 42.4735 93.1727 42.7255C93.0767 42.9655 92.9267 43.2115 92.7227 43.4635C92.5187 43.7155 92.2727 43.9495 91.9847 44.1655C91.8407 44.2735 91.6667 44.3755 91.4627 44.4715C91.2707 44.5675 91.0667 44.6515 90.8507 44.7235C90.6347 44.7955 90.4307 44.8555 90.2387 44.9035C90.0467 44.9395 89.8907 44.9575 89.7707 44.9575C89.6987 45.1255 89.6327 45.3475 89.5727 45.6235C89.5247 45.8995 89.5067 46.1695 89.5187 46.4335C89.5427 46.6975 89.6147 46.9315 89.7347 47.1355C89.8667 47.3275 90.0827 47.4235 90.3827 47.4235C90.7787 47.4235 91.1327 47.3095 91.4447 47.0815C91.7687 46.8415 92.0507 46.5595 92.2907 46.2355C92.5427 45.9115 92.7527 45.5755 92.9207 45.2275C93.1007 44.8795 93.2447 44.5855 93.3527 44.3455C93.3887 44.2615 93.4307 44.2015 93.4787 44.1655C93.5387 44.1175 93.5867 44.0935 93.6227 44.0935C93.6707 44.0935 93.7007 44.1175 93.7127 44.1655C93.7367 44.2015 93.7247 44.2675 93.6767 44.3635ZM91.8047 43.8595C92.0447 43.6555 92.2427 43.4275 92.3987 43.1755C92.5667 42.9235 92.6807 42.6895 92.7407 42.4735C92.8007 42.2575 92.8127 42.0775 92.7767 41.9335C92.7407 41.7895 92.6507 41.7235 92.5067 41.7355C92.3627 41.7355 92.1647 41.8315 91.9127 42.0235C91.6607 42.2035 91.3487 42.5155 90.9767 42.9595C90.7367 43.2475 90.5147 43.5595 90.3107 43.8955C90.1187 44.2315 89.9807 44.4835 89.8967 44.6515C89.9807 44.6515 90.0947 44.6395 90.2387 44.6155C90.3827 44.5795 90.5447 44.5315 90.7247 44.4715C90.9047 44.3995 91.0847 44.3155 91.2647 44.2195C91.4567 44.1115 91.6367 43.9915 91.8047 43.8595Z" fill="#6BA1CC"/>
<path d="M89.268 44.3455C89.196 44.5135 89.076 44.7775 88.908 45.1375C88.752 45.4975 88.554 45.8575 88.314 46.2175C88.074 46.5775 87.792 46.8955 87.468 47.1715C87.156 47.4475 86.814 47.5855 86.442 47.5855C86.166 47.5855 85.932 47.5435 85.74 47.4595C85.56 47.3635 85.41 47.2495 85.29 47.1175C85.038 47.3095 84.78 47.4655 84.516 47.5855C84.252 47.6935 83.988 47.7415 83.724 47.7295C83.376 47.7175 83.1 47.6155 82.896 47.4235C82.704 47.2315 82.572 46.9855 82.5 46.6855C82.44 46.3735 82.44 46.0255 82.5 45.6415C82.56 45.2455 82.674 44.8495 82.842 44.4535C83.022 44.0455 83.244 43.6555 83.508 43.2835C83.772 42.9115 84.054 42.5875 84.354 42.3115C84.666 42.0355 84.984 41.8196 85.308 41.6635C85.632 41.4955 85.95 41.4175 86.262 41.4295C86.598 41.4295 86.868 41.5255 87.072 41.7175C87.276 41.9095 87.408 42.1615 87.468 42.4735C87.54 42.7855 87.546 43.1395 87.486 43.5355C87.426 43.9195 87.312 44.3095 87.144 44.7055C87.012 45.0175 86.814 45.3715 86.55 45.7675C86.286 46.1515 85.98 46.5055 85.632 46.8295C85.788 47.1295 86.07 47.2795 86.478 47.2795C86.766 47.2795 87.036 47.1595 87.288 46.9195C87.552 46.6795 87.792 46.3915 88.008 46.0555C88.224 45.7195 88.416 45.3775 88.584 45.0295C88.752 44.6815 88.89 44.3995 88.998 44.1835C89.046 44.0875 89.118 44.0575 89.214 44.0935C89.31 44.1295 89.328 44.2135 89.268 44.3455ZM86.64 42.0235C86.448 41.9755 86.238 42.0055 86.01 42.1135C85.782 42.2095 85.554 42.3715 85.326 42.5995C85.098 42.8155 84.876 43.0795 84.66 43.3915C84.444 43.6915 84.252 44.0215 84.084 44.3815C83.904 44.7535 83.76 45.1075 83.652 45.4435C83.556 45.7675 83.496 46.0615 83.472 46.3255C83.448 46.5895 83.466 46.8115 83.526 46.9915C83.586 47.1595 83.7 47.2675 83.868 47.3155C84.036 47.3635 84.228 47.3455 84.444 47.2615C84.66 47.1775 84.876 47.0455 85.092 46.8655C84.996 46.7215 84.924 46.5715 84.876 46.4155C84.828 46.2595 84.804 46.1155 84.804 45.9835C84.816 45.7795 84.864 45.5995 84.948 45.4435C85.044 45.2875 85.206 45.2095 85.434 45.2095C85.59 45.2095 85.716 45.2635 85.812 45.3715C85.92 45.4795 85.974 45.6055 85.974 45.7495C85.974 45.7855 85.968 45.8215 85.956 45.8575C85.956 45.8815 85.95 45.9115 85.938 45.9475C86.142 45.6475 86.328 45.3235 86.496 44.9755C86.676 44.6035 86.814 44.2495 86.91 43.9135C87.006 43.5775 87.06 43.2775 87.072 43.0135C87.084 42.7495 87.054 42.5335 86.982 42.3655C86.91 42.1855 86.796 42.0715 86.64 42.0235Z" fill="#6BA1CC"/>
<path d="M79.5708 40.7636C80.5428 40.4876 81.5208 40.0916 82.5048 39.5756C83.5008 39.0476 84.4008 38.3696 85.2048 37.5416C85.6368 37.0976 86.0148 36.6296 86.3388 36.1376C86.6748 35.6336 86.9148 35.1716 87.0588 34.7516C87.2148 34.3316 87.2508 33.9836 87.1668 33.7076C87.0948 33.4316 86.8728 33.2936 86.5008 33.2936C86.1048 33.2936 85.6908 33.4196 85.2588 33.6716C84.8388 33.9236 84.4128 34.2596 83.9808 34.6796C83.5488 35.0996 83.1228 35.5796 82.7028 36.1196C82.2948 36.6476 81.8988 37.1876 81.5148 37.7396C81.1308 38.2916 80.7708 38.8316 80.4348 39.3596C80.1108 39.8876 79.8228 40.3556 79.5708 40.7636ZM78.1488 41.5556C78.5928 40.7036 79.0848 39.8156 79.6248 38.8916C80.1648 37.9676 80.7348 37.1276 81.3348 36.3716C81.7308 35.8916 82.1268 35.4356 82.5228 35.0036C82.9188 34.5596 83.3148 34.1756 83.7108 33.8516C84.1188 33.5156 84.5328 33.2456 84.9528 33.0416C85.3728 32.8376 85.8108 32.7236 86.2668 32.6996C86.7108 32.6756 87.0528 32.7356 87.2928 32.8796C87.5328 33.0236 87.6828 33.2276 87.7428 33.4916C87.8148 33.7556 87.8088 34.0676 87.7248 34.4276C87.6408 34.7756 87.4968 35.1476 87.2928 35.5436C87.1008 35.9276 86.8548 36.3236 86.5548 36.7316C86.2548 37.1396 85.9248 37.5236 85.5648 37.8836C84.7848 38.6636 83.8908 39.3176 82.8828 39.8456C81.8868 40.3736 80.6748 40.8656 79.2468 41.3216C79.1148 41.5736 78.9828 41.8136 78.8508 42.0416C78.7308 42.2696 78.6228 42.4856 78.5268 42.6896C78.2988 43.1456 78.0888 43.6316 77.8968 44.1476C77.7048 44.6516 77.5668 45.1316 77.4828 45.5876C77.4108 46.0316 77.4108 46.4156 77.4828 46.7396C77.5548 47.0516 77.7468 47.2376 78.0588 47.2976C78.4548 47.3816 78.9708 47.0396 79.6068 46.2716C79.8588 45.9716 80.1048 45.6176 80.3448 45.2096C80.5968 44.7896 80.8008 44.3996 80.9568 44.0396C81.0768 43.7396 81.1608 43.4516 81.2088 43.1756C81.2568 42.8996 81.2568 42.6536 81.2088 42.4376C81.1728 42.2216 81.0768 42.0596 80.9208 41.9516C80.7768 41.8316 80.5608 41.7836 80.2728 41.8076C80.1408 41.8196 80.0388 41.8016 79.9668 41.7536C79.9068 41.7056 79.8828 41.6576 79.8948 41.6096C79.9068 41.5496 79.9608 41.5016 80.0568 41.4656C80.1648 41.4176 80.3208 41.4116 80.5248 41.4476C80.8488 41.4956 81.1188 41.6036 81.3348 41.7716C81.5508 41.9276 81.7128 42.1256 81.8208 42.3656C81.9408 42.5936 82.0068 42.8516 82.0188 43.1396C82.0428 43.4156 82.0248 43.6976 81.9648 43.9856C81.8808 44.3696 81.7488 44.7536 81.5688 45.1376C81.4008 45.5216 81.1908 45.8816 80.9388 46.2176C80.6868 46.5536 80.3988 46.8476 80.0748 47.0996C79.7508 47.3396 79.4028 47.5076 79.0308 47.6036C78.5148 47.7476 78.0768 47.7956 77.7168 47.7476C77.3688 47.6996 77.0928 47.5856 76.8888 47.4056C76.6968 47.2256 76.5708 46.9976 76.5108 46.7216C76.4508 46.4336 76.4628 46.1276 76.5468 45.8036C76.6188 45.5276 76.7208 45.2216 76.8528 44.8856C76.9968 44.5496 77.1588 44.1956 77.3388 43.8236C76.9188 44.6156 76.5528 45.2876 76.2408 45.8396C75.9288 46.3796 75.6828 46.7336 75.5028 46.9016C75.4308 46.9616 75.3768 46.9616 75.3408 46.9016C75.2928 46.8296 75.2988 46.7516 75.3588 46.6676C75.5388 46.4276 75.7368 46.1216 75.9528 45.7496C76.1688 45.3776 76.3968 44.9696 76.6368 44.5256C76.8768 44.0696 77.1228 43.5896 77.3748 43.0856C77.6268 42.5696 77.8848 42.0596 78.1488 41.5556ZM78.1848 41.5556C77.9208 41.5916 77.6628 41.5796 77.4108 41.5196C77.1588 41.4596 76.9488 41.3276 76.7808 41.1236C76.6968 41.0276 76.6308 40.9256 76.5828 40.8176C76.5348 40.6976 76.5228 40.5776 76.5468 40.4576C76.5588 40.3736 76.5888 40.3136 76.6368 40.2776C76.6968 40.2416 76.7508 40.2296 76.7988 40.2416C76.8588 40.2536 76.9068 40.2836 76.9428 40.3316C76.9788 40.3676 76.9968 40.4276 76.9968 40.5116V40.5476C77.0448 40.8356 77.2068 41.0156 77.4828 41.0876C77.7708 41.1476 78.0768 41.1596 78.4008 41.1236L78.1848 41.5556Z" fill="#6BA1CC"/>
<path d="M77.0335 44.3455C76.9615 44.5135 76.8415 44.7775 76.6735 45.1375C76.5175 45.4975 76.3195 45.8575 76.0795 46.2175C75.8395 46.5775 75.5575 46.8955 75.2335 47.1715C74.9215 47.4475 74.5795 47.5855 74.2075 47.5855C73.9315 47.5855 73.6975 47.5435 73.5055 47.4595C73.3255 47.3635 73.1755 47.2495 73.0555 47.1175C72.8035 47.3095 72.5455 47.4655 72.2815 47.5855C72.0175 47.6935 71.7535 47.7415 71.4895 47.7295C71.1415 47.7175 70.8655 47.6155 70.6615 47.4235C70.4695 47.2315 70.3375 46.9855 70.2655 46.6855C70.2055 46.3735 70.2055 46.0255 70.2655 45.6415C70.3255 45.2455 70.4395 44.8495 70.6075 44.4535C70.7875 44.0455 71.0095 43.6555 71.2735 43.2835C71.5375 42.9115 71.8195 42.5875 72.1195 42.3115C72.4315 42.0355 72.7495 41.8196 73.0735 41.6635C73.3975 41.4955 73.7155 41.4175 74.0275 41.4295C74.3635 41.4295 74.6335 41.5255 74.8375 41.7175C75.0415 41.9095 75.1735 42.1615 75.2335 42.4735C75.3055 42.7855 75.3115 43.1395 75.2515 43.5355C75.1915 43.9195 75.0775 44.3095 74.9095 44.7055C74.7775 45.0175 74.5795 45.3715 74.3155 45.7675C74.0515 46.1515 73.7455 46.5055 73.3975 46.8295C73.5535 47.1295 73.8355 47.2795 74.2435 47.2795C74.5315 47.2795 74.8015 47.1595 75.0535 46.9195C75.3175 46.6795 75.5575 46.3915 75.7735 46.0555C75.9895 45.7195 76.1815 45.3775 76.3495 45.0295C76.5175 44.6815 76.6555 44.3995 76.7635 44.1835C76.8115 44.0875 76.8835 44.0575 76.9795 44.0935C77.0755 44.1295 77.0935 44.2135 77.0335 44.3455ZM74.4055 42.0235C74.2135 41.9755 74.0035 42.0055 73.7755 42.1135C73.5475 42.2095 73.3195 42.3715 73.0915 42.5995C72.8635 42.8155 72.6415 43.0795 72.4255 43.3915C72.2095 43.6915 72.0175 44.0215 71.8495 44.3815C71.6695 44.7535 71.5255 45.1075 71.4175 45.4435C71.3215 45.7675 71.2615 46.0615 71.2375 46.3255C71.2135 46.5895 71.2315 46.8115 71.2915 46.9915C71.3515 47.1595 71.4655 47.2675 71.6335 47.3155C71.8015 47.3635 71.9935 47.3455 72.2095 47.2615C72.4255 47.1775 72.6415 47.0455 72.8575 46.8655C72.7615 46.7215 72.6895 46.5715 72.6415 46.4155C72.5935 46.2595 72.5695 46.1155 72.5695 45.9835C72.5815 45.7795 72.6295 45.5995 72.7135 45.4435C72.8095 45.2875 72.9715 45.2095 73.1995 45.2095C73.3555 45.2095 73.4815 45.2635 73.5775 45.3715C73.6855 45.4795 73.7395 45.6055 73.7395 45.7495C73.7395 45.7855 73.7335 45.8215 73.7215 45.8575C73.7215 45.8815 73.7155 45.9115 73.7035 45.9475C73.9075 45.6475 74.0935 45.3235 74.2615 44.9755C74.4415 44.6035 74.5795 44.2495 74.6755 43.9135C74.7715 43.5775 74.8255 43.2775 74.8375 43.0135C74.8495 42.7495 74.8195 42.5335 74.7475 42.3655C74.6755 42.1855 74.5615 42.0715 74.4055 42.0235Z" fill="#6BA1CC"/>
<path d="M72.2482 34.2295C72.1641 34.2775 71.9901 34.4755 71.7261 34.8235C71.4621 35.1715 71.1502 35.6515 70.7902 36.2635C70.4422 36.8755 70.0641 37.6135 69.656 38.4775C69.26 39.3295 68.8822 40.2775 68.5222 41.3215C68.6061 41.3215 68.7141 41.3215 68.8462 41.3215C68.9901 41.3215 69.1282 41.3155 69.2602 41.3035C69.4042 41.2915 69.536 41.2795 69.656 41.2675C69.7881 41.2435 69.8902 41.2195 69.962 41.1955C70.1301 41.1355 70.2321 41.1295 70.2681 41.1775C70.3161 41.2255 70.2622 41.3035 70.1062 41.4115C69.8662 41.5795 69.5782 41.6995 69.2422 41.7715C68.9182 41.8315 68.6242 41.8735 68.3602 41.8975C68.3002 42.0775 68.2162 42.3235 68.1082 42.6355C68.0122 42.9355 67.9041 43.2775 67.7841 43.6615C67.6761 44.0335 67.5681 44.4235 67.4601 44.8315C67.3641 45.2275 67.2921 45.6055 67.2441 45.9655C67.1961 46.3255 67.1782 46.6495 67.1902 46.9375C67.2142 47.2255 67.2922 47.4415 67.4242 47.5855C67.5442 47.7175 67.6882 47.7835 67.8561 47.7835C68.0361 47.7955 68.2281 47.7295 68.4321 47.5855C68.66 47.4175 68.8762 47.2075 69.0802 46.9555C69.2962 46.7035 69.4942 46.4335 69.6742 46.1455C69.8662 45.8455 70.0461 45.5395 70.2142 45.2275C70.3821 44.9155 70.538 44.6155 70.6821 44.3275C70.7782 44.1235 70.8682 44.0395 70.9522 44.0755C71.0482 44.1115 71.0482 44.2375 70.9522 44.4535C70.7122 44.9455 70.5021 45.3655 70.3221 45.7135C70.1421 46.0495 69.9682 46.3435 69.8002 46.5955C69.6442 46.8475 69.482 47.0695 69.3141 47.2615C69.1461 47.4535 68.9602 47.6455 68.7562 47.8375C68.4442 48.1495 68.1021 48.3475 67.7302 48.4315C67.3701 48.5275 67.0341 48.4915 66.7221 48.3235C66.4461 48.1795 66.2602 47.9515 66.1642 47.6395C66.0682 47.3275 66.0262 46.9675 66.0382 46.5595C66.0622 46.1515 66.1282 45.7195 66.2361 45.2635C66.3442 44.8075 66.4641 44.3635 66.5962 43.9315C66.7401 43.4995 66.8782 43.1035 67.0102 42.7435C67.1422 42.3835 67.2442 42.1015 67.3162 41.8975C67.1122 41.8975 66.7582 41.8915 66.2542 41.8795C65.7502 41.8555 65.1921 41.8315 64.5801 41.8075C63.9681 41.7835 63.3561 41.7595 62.7442 41.7355C62.1322 41.7115 61.6222 41.6875 61.2142 41.6635C60.8662 42.7075 60.3982 43.7395 59.8102 44.7595C59.2342 45.7795 58.5501 46.7095 57.7581 47.5495C56.9661 48.3775 56.0782 49.0795 55.0942 49.6555C54.1102 50.2315 53.0362 50.5915 51.8722 50.7355C50.8401 50.8675 49.844 50.8195 48.884 50.5915C47.924 50.3755 47.0962 49.9915 46.4001 49.4395C45.7161 48.8995 45.2241 48.2095 44.9241 47.3695C44.6241 46.5175 44.618 45.5275 44.906 44.3995C44.978 44.1115 45.1041 43.8295 45.2841 43.5535C45.4761 43.2775 45.6801 43.0375 45.8961 42.8335C46.1241 42.6175 46.3461 42.4435 46.5621 42.3115C46.7781 42.1795 46.9582 42.1135 47.1022 42.1135C47.2942 42.1135 47.3722 42.1495 47.3362 42.2215C47.3002 42.2815 47.2342 42.3295 47.1382 42.3655C46.9942 42.4255 46.826 42.5395 46.634 42.7075C46.442 42.8755 46.2561 43.0855 46.0761 43.3375C45.8961 43.5775 45.7341 43.8595 45.5901 44.1835C45.4461 44.4955 45.35 44.8375 45.302 45.2095C45.218 45.8575 45.2601 46.4335 45.4281 46.9375C45.5961 47.4295 45.8421 47.8495 46.1661 48.1975C46.5021 48.5455 46.8981 48.8275 47.3541 49.0435C47.8221 49.2715 48.3022 49.4335 48.7942 49.5295C49.2982 49.6375 49.8021 49.6855 50.3061 49.6735C50.8101 49.6735 51.2722 49.6255 51.6921 49.5295C52.9522 49.2415 54.0501 48.8155 54.9861 48.2515C55.9341 47.6875 56.7502 47.0455 57.4342 46.3255C58.1182 45.6055 58.6882 44.8375 59.1442 44.0215C59.6002 43.2055 59.9781 42.4075 60.2781 41.6275C60.0861 41.6275 59.9002 41.6575 59.7202 41.7175C59.5402 41.7655 59.3662 41.8315 59.1982 41.9155C59.1502 41.9395 59.0841 41.9635 59.0001 41.9875C58.9162 42.0115 58.8382 42.0235 58.7662 42.0235C58.7062 42.0235 58.6641 42.0055 58.6401 41.9695C58.6161 41.9215 58.6402 41.8375 58.7122 41.7175C58.7962 41.5855 58.9402 41.4475 59.1442 41.3035C59.3602 41.1475 59.5881 41.0575 59.8281 41.0335H60.5302C60.7582 40.4695 61.0041 39.8875 61.2681 39.2875C61.5321 38.6755 61.7901 38.0995 62.0421 37.5595C62.2941 37.0195 62.5162 36.5395 62.7081 36.1195C62.9121 35.6995 63.0621 35.3935 63.1581 35.2015C62.5701 35.2735 61.9641 35.3335 61.3401 35.3815C60.7281 35.4175 60.1221 35.4775 59.5221 35.5615C58.9221 35.6455 58.3402 35.7715 57.7762 35.9395C57.2242 36.0955 56.7081 36.3235 56.2282 36.6235C55.7482 36.9115 55.3222 37.2895 54.9502 37.7575C54.5902 38.2135 54.3022 38.7895 54.0862 39.4855C53.9302 39.9775 53.8822 40.4395 53.9422 40.8715C54.0022 41.2915 54.1401 41.6455 54.3561 41.9335C54.5721 42.2215 54.8602 42.4195 55.2202 42.5275C55.5802 42.6235 55.9881 42.5875 56.4441 42.4195C56.7802 42.2995 57.0622 42.0835 57.2902 41.7715C57.5182 41.4475 57.6922 41.1115 57.8122 40.7635C57.9441 40.4155 58.0281 40.0915 58.0641 39.7915C58.1001 39.4915 58.0882 39.2995 58.0281 39.2155C57.9801 39.1435 57.9562 39.0835 57.9562 39.0355C57.9682 38.9875 57.9921 38.9575 58.0281 38.9455C58.0641 38.9335 58.1002 38.9395 58.1362 38.9635C58.1842 38.9755 58.2262 39.0175 58.2622 39.0895C58.4302 39.4615 58.4902 39.8395 58.4422 40.2235C58.4062 40.6075 58.2922 40.9675 58.1002 41.3035C57.9202 41.6395 57.6802 41.9395 57.3802 42.2035C57.0922 42.4555 56.7862 42.6415 56.4622 42.7615C55.9222 42.9655 55.4001 43.0075 54.8961 42.8875C54.4042 42.7555 53.9781 42.5155 53.6181 42.1675C53.2702 41.8195 53.0181 41.3875 52.8621 40.8715C52.7181 40.3435 52.7181 39.7855 52.8621 39.1975C53.0541 38.4415 53.3661 37.8175 53.7982 37.3255C54.2302 36.8215 54.7342 36.4135 55.3102 36.1015C55.8982 35.7895 56.5401 35.5555 57.2361 35.3995C57.9441 35.2435 58.6522 35.1295 59.3602 35.0575C60.0802 34.9855 60.7882 34.9375 61.4842 34.9135C62.1802 34.8775 62.8221 34.8295 63.4101 34.7695C63.4461 34.7215 63.5062 34.6255 63.5901 34.4815C63.6861 34.3375 63.8001 34.1875 63.9321 34.0315C64.0641 33.8755 64.2021 33.7315 64.3462 33.5995C64.5021 33.4675 64.6522 33.3775 64.7962 33.3295C65.0602 33.2575 65.2941 33.2635 65.4981 33.3475C65.7141 33.4195 65.8222 33.5815 65.8222 33.8335C65.8222 34.0495 65.7441 34.2415 65.5881 34.4095C65.4322 34.5655 65.2462 34.7035 65.0302 34.8235C64.8142 34.9315 64.5802 35.0155 64.3281 35.0755C64.0882 35.1355 63.8782 35.1655 63.6982 35.1655C63.5902 35.3935 63.458 35.6755 63.302 36.0115C63.1581 36.3475 63.0082 36.7135 62.8522 37.1095C62.7082 37.4935 62.5581 37.8955 62.4022 38.3155C62.2461 38.7235 62.0961 39.1075 61.9521 39.4675C61.8201 39.8275 61.7001 40.1455 61.5921 40.4215C61.4961 40.6975 61.4241 40.9015 61.3761 41.0335C61.9761 41.0335 62.5701 41.0515 63.1581 41.0875C63.7581 41.1115 64.3222 41.1475 64.8502 41.1955C65.3902 41.2315 65.8822 41.2675 66.3261 41.3035C66.7822 41.3275 67.1662 41.3395 67.4782 41.3395C67.5262 41.2075 67.6222 40.9555 67.7662 40.5835C67.9101 40.2115 68.0842 39.7795 68.2882 39.2875C68.5042 38.7835 68.7442 38.2555 69.0082 37.7035C69.2722 37.1395 69.5422 36.6175 69.8182 36.1375C70.0942 35.6575 70.3641 35.2435 70.6281 34.8955C70.9041 34.5475 71.1622 34.3315 71.4022 34.2475C71.5821 34.1875 71.7562 34.1395 71.9242 34.1035C72.0922 34.0555 72.2301 34.0255 72.3381 34.0135C72.4461 34.0015 72.5001 34.0135 72.5001 34.0495C72.5001 34.0855 72.4161 34.1455 72.2482 34.2295ZM64.9762 33.8515C64.9282 33.8275 64.8621 33.8455 64.7781 33.9055C64.7061 33.9655 64.6221 34.0435 64.5262 34.1395C64.4302 34.2235 64.3342 34.3195 64.2381 34.4275C64.1542 34.5355 64.0821 34.6315 64.0222 34.7155C64.4062 34.6555 64.6822 34.5775 64.8502 34.4815C65.0182 34.3855 65.1201 34.2895 65.156 34.1935C65.192 34.0975 65.1801 34.0195 65.1201 33.9595C65.0721 33.8875 65.0242 33.8515 64.9762 33.8515Z" fill="#6BA1CC"/>
</g>
<defs>
<linearGradient id="paint0_linear_3010_2151" x1="48.5396" y1="27.7242" x2="48.5396" y2="54.5351" gradientUnits="userSpaceOnUse">
<stop stop-color="#34460F"/>
<stop offset="1" stop-color="#C5C42B"/>
</linearGradient>
<linearGradient id="paint1_linear_3010_2151" x1="51.2669" y1="27.7242" x2="51.2669" y2="54.5351" gradientUnits="userSpaceOnUse">
<stop stop-color="white"/>
<stop offset="1" stop-color="#C5C42B"/>
</linearGradient>
<clipPath id="clip0_3010_2151">
<rect width="75" height="49" fill="white" transform="translate(12.5 28)"/>
</clipPath>
<clipPath id="clip1_3010_2151">
<rect width="89" height="30" fill="white" transform="translate(5.5 32)"/>
</clipPath>
</defs>
</svg>