<svg width="100" height="103" viewBox="0 0 100 103" fill="none" xmlns="http://www.w3.org/2000/svg">
<rect y="3" width="100" height="100" rx="50" fill="white"/>
<g clip-path="url(#clip0_3010_132)">
<path d="M58.826 54.8109H47.6278H38.2538C37.916 54.8109 37.5816 54.7434 37.2695 54.612C36.9575 54.4808 36.674 54.2884 36.4351 54.0457C36.1963 53.803 36.0069 53.515 35.8776 53.198C35.7484 52.881 35.6818 52.5411 35.6818 52.198V40.1187C35.6821 39.7547 35.7571 39.3947 35.9021 39.0618C36.047 38.7289 36.2586 38.4304 36.5236 38.1853L46.809 28.6832C47.2812 28.2437 47.8984 27.9999 48.5389 27.9999C49.1792 27.9998 49.7964 28.2435 50.2688 28.6829L60.5559 38.1854C60.8207 38.4305 61.0324 38.729 61.1773 39.0619C61.3223 39.3948 61.3973 39.7547 61.3977 40.1187V52.198C61.3977 52.8909 61.1267 53.5555 60.6444 54.0455C60.1622 54.5355 59.5081 54.8108 58.826 54.8109ZM53.1679 51.6746L58.3118 51.6753V40.3499L48.539 31.3227L38.7677 40.3499V51.6753L43.9101 51.6746C43.9101 51.6746 53.0824 51.6175 53.1679 51.6746Z" fill="url(#paint0_linear_3010_132)"/>
<path d="M61.5533 54.8109H50.3551H40.981C40.6433 54.8109 40.3089 54.7434 39.9968 54.612C39.6848 54.4808 39.4013 54.2884 39.1624 54.0457C38.9236 53.803 38.7342 53.515 38.6049 53.198C38.4756 52.881 38.4091 52.5411 38.4091 52.198V40.1187C38.4094 39.7547 38.4844 39.3947 38.6293 39.0618C38.7743 38.7289 38.9859 38.4304 39.2509 38.1853L49.5362 28.6832C50.0085 28.2437 50.6256 27.9999 51.2661 27.9999C51.9065 27.9998 52.5237 28.2435 52.996 28.6829L63.2832 38.1854C63.548 38.4305 63.7596 38.729 63.9046 39.0619C64.0495 39.3948 64.1245 39.7547 64.125 40.1187V52.198C64.125 52.8909 63.854 53.5555 63.3717 54.0455C62.8895 54.5355 62.2354 54.8108 61.5533 54.8109ZM55.8951 51.6746L61.039 51.6753V40.3499L51.2663 31.3227L41.495 40.3499V51.6753L46.6374 51.6746C46.6374 51.6746 55.8096 51.6175 55.8951 51.6746Z" fill="url(#paint1_linear_3010_132)"/>
<path d="M16.8617 67.3489H19.7974L18.2383 62.8458H18.1388L16.4305 67.1337C16.3807 67.2992 16.4968 67.3489 16.8617 67.3489ZM15.0704 70.7262C14.805 71.4215 15.5846 71.4878 16.2148 71.5209C16.3144 71.6202 16.3144 71.9679 16.2148 72.0672C15.6012 72.0506 14.7718 72.0341 14.0918 72.0341C13.5776 72.0341 13.0469 72.0506 12.6157 72.0672C12.5161 71.9679 12.5161 71.6202 12.6157 71.5209C13.3289 71.4712 13.843 71.3718 14.2743 70.3454L18.0393 61.4718C18.2549 61.4718 18.7028 61.2897 18.9515 61.1406L22.3683 70.6103C22.6503 71.4215 23.2142 71.4712 23.861 71.5209C23.9605 71.6202 23.9605 71.9679 23.861 72.0672C23.2805 72.0506 22.6503 72.0341 21.9702 72.0341C21.3234 72.0341 20.4111 72.0506 19.7974 72.0672C19.6979 71.9679 19.6979 71.6202 19.7974 71.5209C20.577 71.4712 21.2073 71.4215 21.0248 70.8421L20.0628 68.0442H16.5631C16.1651 68.0442 16.0656 68.1105 15.9826 68.3257L15.0704 70.7262ZM26.4703 61.3558H29.8704C29.8704 61.3558 31.2138 61.3393 31.8607 61.3227C31.9436 61.8857 32.0266 62.5313 32.1095 63.9219C31.9436 64.0047 31.7778 64.0213 31.6285 63.9882C31.2802 62.8458 31.0149 62.0181 29.7708 62.0181H27.7806C27.3824 62.0181 27.1835 62.1836 27.1835 62.581V70.0144C27.1835 71.3884 27.4655 71.4712 28.6265 71.5209C28.726 71.6202 28.726 71.9679 28.6265 72.0672C27.963 72.0506 27.1006 72.0341 26.4868 72.0341C25.8565 72.0341 24.9775 72.0506 24.3306 72.0672C24.2311 71.9679 24.2311 71.6202 24.3306 71.5209C25.4917 71.4712 25.7736 71.3884 25.7736 70.0144V63.3756C25.7736 62.0015 25.4917 61.9188 24.3306 61.8691C24.2311 61.7697 24.2311 61.4221 24.3306 61.3227C25.1599 61.3393 26.4703 61.3558 26.4703 61.3558ZM35.8127 67.3489H38.7483L37.1893 62.8458H37.0897L35.3814 67.1337C35.3316 67.2992 35.4478 67.3489 35.8127 67.3489ZM34.0213 70.7262C33.7559 71.4215 34.5355 71.4878 35.1658 71.5209C35.2653 71.6202 35.2653 71.9679 35.1658 72.0672C34.5521 72.0506 33.7228 72.0341 33.0427 72.0341C32.5285 72.0341 31.9978 72.0506 31.5666 72.0672C31.4671 71.9679 31.4671 71.6202 31.5666 71.5209C32.2798 71.4712 32.794 71.3718 33.2252 70.3454L36.9902 61.4718C37.2059 61.4718 37.6537 61.2897 37.9025 61.1406L41.3192 70.6103C41.6012 71.4215 42.1651 71.4712 42.812 71.5209C42.9115 71.6202 42.9115 71.9679 42.812 72.0672C42.2315 72.0506 41.6012 72.0341 40.9211 72.0341C40.2742 72.0341 39.3621 72.0506 38.7483 72.0672C38.6489 71.9679 38.6489 71.6202 38.7483 71.5209C39.5279 71.4712 40.1582 71.4215 39.9757 70.8421L39.0137 68.0442H35.5141C35.116 68.0442 35.0165 68.1105 34.9335 68.3257L34.0213 70.7262ZM46.1178 62.8624V66.7198C46.3003 66.7695 46.9637 66.8026 47.3784 66.8026C48.9872 66.8026 49.8497 66.0741 49.8497 64.2862C49.8497 62.1836 48.7052 61.8028 47.5608 61.8028C46.3666 61.8028 46.1178 62.3822 46.1178 62.8624ZM44.708 63.3756C44.708 62.0015 44.426 61.9188 43.265 61.8691C43.1654 61.7697 43.1654 61.4221 43.265 61.3227C43.9284 61.3393 44.7909 61.3558 45.4046 61.3558C46.0681 61.3558 47.03 61.24 47.6769 61.24C50.7453 61.24 51.3921 63.0113 51.3921 63.9882C51.3921 65.3953 50.48 67.3655 47.4613 67.3655C46.8808 67.3655 46.4827 67.3159 46.1178 67.1999V70.0144C46.1178 71.3884 46.5159 71.4547 47.8096 71.5209C47.9091 71.6202 47.9091 71.9679 47.8096 72.0672C46.9803 72.0506 46.0016 72.0341 45.4211 72.0341C44.824 72.0341 44.0113 72.0506 43.265 72.0672C43.1654 71.9679 43.1654 71.6202 43.265 71.5209C44.426 71.4712 44.708 71.3884 44.708 70.0144V63.3756ZM61.8748 70.0144C61.8748 71.3884 62.1568 71.4712 63.3178 71.5209C63.4173 71.6202 63.4173 71.9679 63.3178 72.0672C62.5715 72.0506 61.7587 72.0341 61.1782 72.0341C60.5646 72.0341 59.7684 72.0506 59.0221 72.0672C58.9225 71.9679 58.9225 71.6202 59.0221 71.5209C60.1831 71.4712 60.4651 71.3884 60.4651 70.0144V64.1206C60.3324 64.1703 60.2495 64.2365 60.1664 64.3358L55.6385 69.9647C55.4394 70.213 55.2736 70.3454 55.1575 70.7427C55.2736 71.4215 55.6551 71.4878 56.5672 71.5209C56.6668 71.6202 56.6668 71.9679 56.5672 72.0672C55.8209 72.0506 55.0082 72.0341 54.4277 72.0341C53.8141 72.0341 53.0178 72.0506 52.2715 72.0672C52.172 71.9679 52.172 71.6202 52.2715 71.5209C53.4325 71.4712 53.7145 71.3884 53.7145 70.0144V63.3756C53.7145 62.0015 53.4325 61.9188 52.2715 61.8691C52.172 61.7697 52.172 61.4221 52.2715 61.3227C53.0511 61.3393 53.8472 61.3558 54.4111 61.3558C55.0413 61.3558 55.8376 61.3393 56.5672 61.3227C56.6668 61.4221 56.6668 61.7697 56.5672 61.8691C55.4062 61.9188 55.1242 62.0015 55.1242 63.3756V69.2693C55.1906 69.2693 55.2902 69.2196 55.4062 69.0872L59.9675 63.4252C60.1499 63.1935 60.3157 62.8955 60.3986 62.6306C60.2826 61.9685 59.9177 61.9188 59.0221 61.8691C58.9225 61.7697 58.9225 61.4221 59.0221 61.3227C59.8016 61.3393 60.5977 61.3558 61.1616 61.3558C61.7919 61.3558 62.5881 61.3393 63.3178 61.3227C63.4173 61.4221 63.4173 61.7697 63.3178 61.8691C62.1568 61.9188 61.8748 62.0015 61.8748 63.3756V70.0144ZM73.9821 70.0144C73.9821 71.3884 74.264 71.4712 75.4251 71.5209C75.5245 71.6202 75.5245 71.9679 75.4251 72.0672C74.6953 72.0506 73.8992 72.0341 73.2854 72.0341C72.6551 72.0341 71.8755 72.0506 71.1292 72.0672C71.0297 71.9679 71.0297 71.6202 71.1292 71.5209C72.2902 71.4712 72.5722 71.3884 72.5722 70.0144V66.7198H66.8998V70.0144C66.8998 71.3884 67.1818 71.4712 68.3428 71.5209C68.4423 71.6202 68.4423 71.9679 68.3428 72.0672C67.613 72.0506 66.8002 72.0341 66.2032 72.0341C65.573 72.0341 64.7767 72.0506 64.0469 72.0672C63.9475 71.9679 63.9475 71.6202 64.0469 71.5209C65.208 71.4712 65.4899 71.3884 65.4899 70.0144V63.3756C65.4899 62.0015 65.208 61.9188 64.0469 61.8691C63.9475 61.7697 63.9475 61.4221 64.0469 61.3227C64.6772 61.3393 65.3572 61.3558 66.1866 61.3558C67.0325 61.3558 67.7125 61.3393 68.3428 61.3227C68.4423 61.4221 68.4423 61.7697 68.3428 61.8691C67.1818 61.9188 66.8998 62.0015 66.8998 63.3756V66.0244H72.5722V63.3756C72.5722 62.0015 72.2902 61.9188 71.1292 61.8691C71.0297 61.7697 71.0297 61.4221 71.1292 61.3227C71.8591 61.3393 72.6386 61.3558 73.2689 61.3558C73.8992 61.3558 74.7451 61.3393 75.4251 61.3227C75.5245 61.4221 75.5245 61.7697 75.4251 61.8691C74.264 61.9188 73.9821 62.0015 73.9821 63.3756V70.0144ZM81.3374 61.7367C79.6955 61.7367 78.0534 63.1439 78.0534 66.6205C78.0534 69.7991 79.9608 71.6036 81.9843 71.6036C83.8751 71.6036 85.3015 69.8653 85.3015 66.9019C85.3015 63.5577 83.5269 61.7367 81.3374 61.7367ZM86.8938 66.5874C86.8938 67.978 86.5289 69.1866 85.8655 70.1136C84.9532 71.4215 83.4771 72.1997 81.6525 72.1997C78.833 72.1997 76.4612 70.1633 76.4612 66.9019C76.4612 63.7067 78.3354 61.1406 81.5531 61.1406C84.5221 61.1406 86.8938 63.1604 86.8938 66.5874Z" fill="black"/>
</g>
<rect width="100" height="100" rx="50" fill="white"/>
<g clip-path="url(#clip1_3010_132)">
<path d="M83.9982 56.0751C83.9809 54.008 83.9726 52.3114 83.9726 50.985C83.9899 49.6586 83.9982 48.6079 83.9982 47.8327V45.7399C83.9982 45.3265 84.0155 44.8958 84.0508 44.448C84.0853 43.9829 84.2071 43.5609 84.4153 43.1819C84.6235 42.803 84.9534 42.4929 85.4043 42.2517C85.8733 41.9934 86.5242 41.8641 87.3576 41.8641C88.2084 41.8641 88.8592 41.9761 89.3109 42.2001C89.7798 42.4068 90.1181 42.691 90.3262 43.0527C90.5524 43.3972 90.6825 43.802 90.717 44.2671C90.7516 44.7322 90.7606 45.2231 90.7433 45.7399C90.7433 47.049 90.7433 48.2031 90.7433 49.2022C90.7606 50.184 90.7689 51.0453 90.7689 51.786C90.7689 52.5095 90.7689 53.121 90.7689 53.6205C90.7862 54.12 90.7952 54.5248 90.7952 54.8349C90.7952 55.5756 90.8035 55.989 90.8215 56.0751C90.8215 56.7297 90.8035 57.2981 90.7689 57.7804C90.7343 58.2627 90.6043 58.6676 90.3788 58.9948C90.1699 59.3048 89.8317 59.546 89.3628 59.7183C88.8945 59.8733 88.2257 59.9508 87.3576 59.9508C86.5242 59.9508 85.8733 59.8733 85.4043 59.7183C84.9534 59.546 84.6235 59.2963 84.4153 58.969C84.2071 58.6417 84.0853 58.2455 84.0508 57.7804C84.0155 57.2981 83.9982 56.7297 83.9982 56.0751ZM86.0033 56.0751C86.0033 56.6435 86.0123 57.1517 86.0296 57.5996C86.0469 58.0302 86.0905 58.4005 86.1596 58.7106C86.2468 59.0034 86.3768 59.2359 86.5504 59.4082C86.7413 59.5632 87.0104 59.6408 87.3576 59.6408C87.6875 59.6408 87.9393 59.5632 88.1129 59.4082C88.3038 59.2359 88.4428 59.0034 88.5293 58.7106C88.6164 58.4005 88.66 58.0302 88.66 57.5996C88.6773 57.1517 88.6856 56.6435 88.6856 56.0751V54.3181C88.6856 53.5946 88.6773 52.5611 88.66 51.2176C88.66 49.8568 88.651 48.0309 88.6337 45.7399C88.651 45.292 88.651 44.8614 88.6337 44.448C88.6164 44.0173 88.5646 43.6384 88.4774 43.3111C88.4083 42.9666 88.2775 42.691 88.0866 42.4843C87.913 42.2775 87.6702 42.1742 87.3576 42.1742C87.0104 42.1742 86.7413 42.2948 86.5504 42.5359C86.3768 42.7599 86.2468 43.0527 86.1596 43.4144C86.0905 43.7589 86.0469 44.1465 86.0296 44.5772C86.0123 44.9906 86.0033 45.3781 86.0033 45.7399V48.2203C86.0033 49.0644 85.995 50.141 85.9777 51.4501C85.9777 52.742 85.986 54.2836 86.0033 56.0751Z" fill="#592803"/>
<path d="M77.3664 59.5891C77.7656 59.5891 78.1128 59.5632 78.4081 59.5115C78.7207 59.4426 78.9725 59.2187 79.1634 58.8398C79.3716 58.4609 79.5279 57.858 79.6317 57.0311C79.7361 56.2043 79.788 55.0243 79.788 53.4913C79.788 52.3372 79.7707 51.4071 79.7361 50.7008C79.7015 49.9773 79.6234 49.4175 79.5016 49.0213C79.3799 48.6079 79.2153 48.3323 79.0071 48.1945C78.7989 48.0394 78.5299 47.962 78.1999 47.962C77.8873 47.962 77.6615 48.0481 77.5226 48.2203C77.4011 48.3926 77.3403 48.651 77.3403 48.9955L77.3664 59.5891ZM74.58 41.8641H77.3403C78.1736 41.8641 78.8335 41.9503 79.3197 42.1225C79.8233 42.2775 80.2051 42.5015 80.4651 42.7943C80.7259 43.0699 80.8905 43.3886 80.9604 43.7504C81.0468 44.1121 81.0904 44.4824 81.0904 44.8614C81.0904 45.3092 81.0814 45.7141 81.0641 46.0758C81.0468 46.4202 80.9777 46.7217 80.8559 46.9801C80.7342 47.2213 80.5523 47.4107 80.3088 47.5485C80.066 47.6864 79.7188 47.7553 79.2672 47.7553C79.8924 47.7553 80.3787 47.9016 80.7259 48.1945C81.0731 48.4701 81.3249 48.8577 81.4812 49.3572C81.6368 49.8568 81.724 50.4597 81.7413 51.1659C81.7758 51.8721 81.7931 52.6472 81.7931 53.4913C81.7931 55.0932 81.715 56.3335 81.5587 57.212C81.4203 58.0733 81.1769 58.7106 80.8296 59.124C80.4997 59.5374 80.0487 59.7786 79.476 59.8475C78.9199 59.9164 78.2172 59.9508 77.3664 59.9508H74.58V59.5891H75.231V42.2259H74.58V41.8641ZM77.3403 48.0911C77.3403 47.9533 77.4098 47.8327 77.5487 47.7294C77.6874 47.626 77.9392 47.5744 78.3037 47.5744C78.6163 47.5744 78.8591 47.5571 79.0327 47.5227C79.2063 47.4882 79.337 47.4021 79.4235 47.2643C79.5106 47.1093 79.5625 46.8853 79.5798 46.5925C79.5971 46.2997 79.6061 45.8949 79.6061 45.3781C79.6061 44.5858 79.5535 43.9829 79.4498 43.5695C79.3626 43.1388 79.2243 42.8288 79.0327 42.6393C78.8418 42.4326 78.608 42.312 78.33 42.2775C78.0519 42.2431 77.722 42.2259 77.3403 42.2259V48.0911Z" fill="#592803"/>
<path d="M65.9929 56.0751C65.9755 54.008 65.9668 52.3114 65.9668 50.985C65.9842 49.6586 65.9929 48.6079 65.9929 47.8327V45.7399C65.9929 45.3265 66.0102 44.8958 66.045 44.448C66.0797 43.9829 66.2012 43.5609 66.4095 43.1819C66.6178 42.803 66.9477 42.4929 67.399 42.2517C67.8678 41.9934 68.5188 41.8641 69.3522 41.8641C70.2028 41.8641 70.8538 41.9761 71.3052 42.2001C71.774 42.4068 72.1125 42.691 72.3209 43.0527C72.5466 43.3972 72.6767 43.802 72.7114 44.2671C72.7462 44.7322 72.7549 45.2231 72.7375 45.7399C72.7375 47.049 72.7375 48.2031 72.7375 49.2022C72.7549 50.184 72.7635 51.0453 72.7635 51.786C72.7635 52.5095 72.7635 53.121 72.7635 53.6205C72.7809 54.12 72.7896 54.5248 72.7896 54.8349C72.7896 55.5756 72.7983 55.989 72.8156 56.0751C72.8156 56.7297 72.7982 57.2981 72.7635 57.7804C72.7288 58.2627 72.5986 58.6676 72.3729 58.9948C72.1646 59.3048 71.826 59.546 71.3573 59.7183C70.8886 59.8733 70.2202 59.9508 69.3522 59.9508C68.5188 59.9508 67.8678 59.8733 67.399 59.7183C66.9477 59.546 66.6178 59.2963 66.4095 58.969C66.2012 58.6417 66.0797 58.2455 66.045 57.7804C66.0102 57.2981 65.9929 56.7297 65.9929 56.0751ZM67.998 56.0751C67.998 56.6435 68.0067 57.1517 68.024 57.5996C68.0414 58.0302 68.0848 58.4005 68.1543 58.7106C68.2411 59.0034 68.3712 59.2359 68.5448 59.4082C68.7358 59.5632 69.0049 59.6408 69.3522 59.6408C69.682 59.6408 69.9337 59.5632 70.1073 59.4082C70.2983 59.2359 70.4372 59.0034 70.524 58.7106C70.6108 58.4005 70.6542 58.0302 70.6542 57.5996C70.6716 57.1517 70.6802 56.6435 70.6802 56.0751V54.3181C70.6802 53.5946 70.6716 52.5611 70.6542 51.2176C70.6542 49.8568 70.6455 48.0309 70.6281 45.7399C70.6455 45.292 70.6455 44.8614 70.6281 44.448C70.6108 44.0173 70.5587 43.6384 70.4719 43.3111C70.4025 42.9666 70.2723 42.691 70.0813 42.4843C69.9077 42.2775 69.6647 42.1742 69.3522 42.1742C69.0049 42.1742 68.7358 42.2948 68.5448 42.5359C68.3712 42.7599 68.2411 43.0527 68.1543 43.4144C68.0848 43.7589 68.0414 44.1465 68.024 44.5772C68.0067 44.9906 67.998 45.3781 67.998 45.7399V48.2203C67.998 49.0644 67.9893 50.141 67.9719 51.4501C67.9719 52.742 67.9807 54.2836 67.998 56.0751Z" fill="#592803"/>
<path d="M57.948 45.7399C57.948 45.3265 57.9655 44.8958 58.0002 44.448C58.035 43.9829 58.1565 43.5609 58.3648 43.1819C58.5732 42.803 58.903 42.4929 59.3544 42.2517C59.8058 41.9934 60.4481 41.8641 61.2814 41.8641C62.028 41.8641 62.6269 41.9503 63.0783 42.1225C63.5296 42.2948 63.8595 42.5015 64.0678 42.7426C64.2935 42.9838 64.415 43.2422 64.4324 43.5178C64.4498 43.7762 64.3977 44.0001 64.2762 44.1896C64.172 44.3791 64.007 44.5169 63.7813 44.603C63.573 44.6719 63.3473 44.6289 63.1043 44.4738C62.8091 44.3016 62.6442 44.1293 62.6095 43.9571C62.5748 43.7676 62.5834 43.5953 62.6355 43.4403C62.6876 43.268 62.7484 43.1044 62.8178 42.9493C62.9046 42.7943 62.9307 42.6652 62.8959 42.5618C62.8612 42.4412 62.7223 42.3464 62.4793 42.2775C62.2536 42.2086 61.8544 42.1742 61.2814 42.1742C60.9342 42.1742 60.6738 42.2948 60.5002 42.5359C60.3266 42.7599 60.1964 43.0527 60.1096 43.4144C60.0228 43.7589 59.9707 44.1465 59.9533 44.5772C59.9533 44.9906 59.9533 45.3781 59.9533 45.7399L59.9794 49.7771L57.948 45.7399C57.948 46.3083 57.9307 45.292 57.948 45.7399Z" fill="#592803"/>
<path d="M43.6159 41.8641V43.1302H43.2774V42.1742H40.6994V50.2615L38.59 54.4602V42.1742H36.1421V43.1302H35.8036V41.8641H43.6159Z" fill="#592803"/>
<path d="M27.608 56.0751C27.5907 54.008 27.582 52.3114 27.582 50.985C27.5994 49.6586 27.608 48.6079 27.608 47.8327V45.7399C27.608 45.3265 27.6254 44.8958 27.6601 44.448C27.6948 43.9829 27.8164 43.5609 28.0247 43.1819C28.233 42.803 28.5629 42.4929 29.0143 42.2517C29.483 41.9934 30.1341 41.8641 30.9674 41.8641C31.8181 41.8641 32.4691 41.9761 32.9205 42.2001C33.3892 42.4068 33.7277 42.691 33.936 43.0527C34.1617 43.3972 34.292 43.802 34.3267 44.2671C34.3614 44.7322 34.37 45.2231 34.3527 45.7399C34.3527 47.049 34.3527 48.2031 34.3527 49.2022C34.37 50.184 34.3788 51.0453 34.3788 51.786C34.3788 52.5095 34.3788 53.121 34.3788 53.6205C34.3961 54.12 34.4048 54.5248 34.4048 54.8349C34.4048 55.5756 34.4135 55.989 34.4308 56.0751C34.4308 56.7297 34.4135 57.2981 34.3788 57.7804C34.344 58.2627 34.2138 58.6676 33.9881 58.9948C33.7798 59.3048 33.4413 59.546 32.9725 59.7183C32.5038 59.8733 31.8354 59.9508 30.9674 59.9508C30.1341 59.9508 29.483 59.8733 29.0143 59.7183C28.5629 59.546 28.233 59.2963 28.0247 58.969C27.8164 58.6417 27.6948 58.2455 27.6601 57.7804C27.6254 57.2981 27.608 56.7297 27.608 56.0751ZM29.6132 56.0751C29.6132 56.6435 29.6219 57.1517 29.6393 57.5996C29.6566 58.0302 29.7001 58.4005 29.7695 58.7106C29.8563 59.0034 29.9865 59.2359 30.1601 59.4082C30.3511 59.5632 30.6202 59.6408 30.9674 59.6408C31.2972 59.6408 31.5489 59.5632 31.7226 59.4082C31.9135 59.2359 32.0524 59.0034 32.1392 58.7106C32.226 58.4005 32.2695 58.0302 32.2695 57.5996C32.2868 57.1517 32.2955 56.6435 32.2955 56.0751V54.3181C32.2955 53.5946 32.2868 52.5611 32.2695 51.2176C32.2695 49.8568 32.2607 48.0309 32.2434 45.7399C32.2607 45.292 32.2607 44.8614 32.2434 44.448C32.226 44.0173 32.1739 43.6384 32.0871 43.3111C32.0177 42.9666 31.8875 42.691 31.6965 42.4843C31.5229 42.2775 31.2799 42.1742 30.9674 42.1742C30.6202 42.1742 30.3511 42.2948 30.1601 42.5359C29.9865 42.7599 29.8563 43.0527 29.7695 43.4144C29.7001 43.7589 29.6566 44.1465 29.6393 44.5772C29.6219 44.9906 29.6132 45.3781 29.6132 45.7399V48.2203C29.6132 49.0644 29.6045 50.141 29.5872 51.4501C29.5872 52.742 29.5959 54.2836 29.6132 56.0751Z" fill="#592803"/>
<path d="M21.484 42.1742L21.51 54.1114C21.51 53.9736 21.5795 53.853 21.7183 53.7497C21.8572 53.6463 22.109 53.5946 22.4736 53.5946C22.8034 53.5946 23.0638 53.5429 23.2548 53.4396C23.4458 53.3362 23.5847 53.0865 23.6715 52.6903C23.7756 52.2769 23.8364 51.6654 23.8537 50.8558C23.8884 50.0462 23.9058 48.9352 23.9058 47.5227C23.9058 46.1275 23.8451 45.0681 23.7236 44.3446C23.602 43.6211 23.4284 43.0958 23.2027 42.7685C22.9944 42.4412 22.734 42.2603 22.4215 42.2259C22.1264 42.1914 21.8139 42.1742 21.484 42.1742ZM21.484 41.8641C22.3173 41.8641 23.0204 41.8986 23.5933 41.9675C24.1662 42.0192 24.6263 42.2259 24.9735 42.5876C25.3207 42.9321 25.5638 43.492 25.7027 44.2671C25.8416 45.025 25.911 46.1103 25.911 47.5227C25.911 49.0902 25.8763 50.3046 25.8069 51.1659C25.7548 52.0272 25.6159 52.6644 25.3902 53.0779C25.1645 53.4913 24.8086 53.7411 24.3225 53.8272C23.8537 53.9133 23.2027 53.9564 22.3694 53.9564C22.0569 53.9564 21.8312 54.0425 21.6923 54.2147C21.5708 54.387 21.51 54.6454 21.51 54.9899V59.6408H22.0308V59.9508H18.7236V59.6408H19.3747V42.1742H18.7236V41.8641H21.484Z" fill="#592803"/>
<path d="M11.2604 42.1742L11.2864 59.6408H11.8072V59.9508H8.5V59.6408H9.15103V42.1742H8.5V41.8641H17.2238V42.1742H16.6769L16.703 59.6408H17.2238V59.9508H13.9166V59.6408H14.5676V42.1742H11.2604Z" fill="#592803"/>
<path fill-rule="evenodd" clip-rule="evenodd" d="M49.0421 34.2693C47.9402 36.3346 46.7267 38.6095 44.1363 40.2464C43.6199 40.5727 43.9668 40.5027 44.6667 40.3613C45.3067 40.2321 46.2416 40.0433 47.0817 40.0433L42.9909 45.3242L44.9545 44.7149L42.2136 49.1021L43.4409 49.8333L38.2455 57.4298H41.15L36.8955 64.295L42.2136 63.5638L42.9909 66.123L48.5953 63.97L51.3771 64.9043L54.4452 66.3261L55.3861 64.295L59.027 65.8792L63.6905 64.295L60.5405 59.0547H59.6406H57.1043L55.1816 56.9017L50.3544 55.6858L47.0817 56.9017L45.0772 57.5516L46.0302 55.6858L50.3544 53.148L56.5316 54.7893L57.9633 56.29L62.0132 57.7547L59.3133 54.7893L57.9633 52.423L60.9087 52.0269C59.5042 50.9166 56.5316 48.3142 56.5316 48.3142V46.864L54.9771 44.4711L57.9633 45.7304L55.7543 42.9275L53.6679 40.0433L55.1816 40.6526L56.5316 40.3683C53.8725 38.5402 51.1398 33.7874 50.3544 32C49.884 32.6911 49.4715 33.4643 49.0421 34.2693ZM47.8571 49.2809L50.1712 39.9757L52.9725 49.2809L50.1712 47.4682L47.8571 49.2809Z" fill="#592803"/>
</g>
<defs>
<linearGradient id="paint0_linear_3010_132" x1="48.5397" y1="27.7242" x2="48.5397" y2="54.5351" gradientUnits="userSpaceOnUse">
<stop stop-color="#34460F"/>
<stop offset="1" stop-color="#C5C42B"/>
</linearGradient>
<linearGradient id="paint1_linear_3010_132" x1="51.267" y1="27.7242" x2="51.267" y2="54.5351" gradientUnits="userSpaceOnUse">
<stop stop-color="white"/>
<stop offset="1" stop-color="#C5C42B"/>
</linearGradient>
<clipPath id="clip0_3010_132">
<rect width="75" height="49" fill="white" transform="translate(12.5 28)"/>
</clipPath>
<clipPath id="clip1_3010_132">
<rect width="83" height="35" fill="white" transform="translate(8.5 32)"/>
</clipPath>
</defs>
</svg>