<svg width="100" height="100" viewBox="0 0 100 100" fill="none" xmlns="http://www.w3.org/2000/svg">
<rect width="100" height="100" rx="50" fill="white"/>
<g clip-path="url(#clip0_3010_21)">
<path d="M58.826 51.8109H47.6278H38.2538C37.916 51.8109 37.5816 51.7434 37.2695 51.612C36.9575 51.4808 36.674 51.2884 36.4351 51.0457C36.1963 50.803 36.0069 50.515 35.8776 50.198C35.7484 49.881 35.6818 49.5411 35.6818 49.198V37.1187C35.6821 36.7547 35.7571 36.3947 35.9021 36.0618C36.047 35.7289 36.2586 35.4304 36.5236 35.1853L46.809 25.6832C47.2812 25.2437 47.8984 24.9999 48.5389 24.9999C49.1792 24.9998 49.7964 25.2435 50.2688 25.6829L60.5559 35.1854C60.8207 35.4305 61.0324 35.729 61.1773 36.0619C61.3223 36.3948 61.3973 36.7547 61.3977 37.1187V49.198C61.3977 49.8909 61.1267 50.5555 60.6444 51.0455C60.1622 51.5355 59.5081 51.8108 58.826 51.8109ZM53.1679 48.6746L58.3118 48.6753V37.3499L48.539 28.3227L38.7677 37.3499V48.6753L43.9101 48.6746C43.9101 48.6746 53.0824 48.6175 53.1679 48.6746Z" fill="url(#paint0_linear_3010_21)"/>
<path d="M61.5533 51.8109H50.3551H40.981C40.6433 51.8109 40.3089 51.7434 39.9968 51.612C39.6848 51.4808 39.4013 51.2884 39.1624 51.0457C38.9236 50.803 38.7342 50.515 38.6049 50.198C38.4756 49.881 38.4091 49.5411 38.4091 49.198V37.1187C38.4094 36.7547 38.4844 36.3947 38.6293 36.0618C38.7743 35.7289 38.9859 35.4304 39.2509 35.1853L49.5362 25.6832C50.0085 25.2437 50.6256 24.9999 51.2661 24.9999C51.9065 24.9998 52.5237 25.2435 52.996 25.6829L63.2832 35.1854C63.548 35.4305 63.7596 35.729 63.9046 36.0619C64.0495 36.3948 64.1245 36.7547 64.125 37.1187V49.198C64.125 49.8909 63.854 50.5555 63.3717 51.0455C62.8895 51.5355 62.2354 51.8108 61.5533 51.8109ZM55.8951 48.6746L61.039 48.6753V37.3499L51.2663 28.3227L41.495 37.3499V48.6753L46.6374 48.6746C46.6374 48.6746 55.8096 48.6175 55.8951 48.6746Z" fill="url(#paint1_linear_3010_21)"/>
<path d="M16.8617 64.3489H19.7974L18.2383 59.8458H18.1388L16.4305 64.1337C16.3807 64.2992 16.4968 64.3489 16.8617 64.3489ZM15.0704 67.7262C14.805 68.4215 15.5846 68.4878 16.2148 68.5209C16.3144 68.6202 16.3144 68.9679 16.2148 69.0672C15.6012 69.0506 14.7718 69.0341 14.0918 69.0341C13.5776 69.0341 13.0469 69.0506 12.6157 69.0672C12.5161 68.9679 12.5161 68.6202 12.6157 68.5209C13.3289 68.4712 13.843 68.3718 14.2743 67.3454L18.0393 58.4718C18.2549 58.4718 18.7028 58.2897 18.9515 58.1406L22.3683 67.6103C22.6503 68.4215 23.2142 68.4712 23.861 68.5209C23.9605 68.6202 23.9605 68.9679 23.861 69.0672C23.2805 69.0506 22.6503 69.0341 21.9702 69.0341C21.3234 69.0341 20.4111 69.0506 19.7974 69.0672C19.6979 68.9679 19.6979 68.6202 19.7974 68.5209C20.577 68.4712 21.2073 68.4215 21.0248 67.8421L20.0628 65.0442H16.5631C16.1651 65.0442 16.0656 65.1105 15.9826 65.3257L15.0704 67.7262ZM26.4703 58.3558H29.8704C29.8704 58.3558 31.2138 58.3393 31.8607 58.3227C31.9436 58.8857 32.0266 59.5313 32.1095 60.9219C31.9436 61.0047 31.7778 61.0213 31.6285 60.9882C31.2802 59.8458 31.0149 59.0181 29.7708 59.0181H27.7806C27.3824 59.0181 27.1835 59.1836 27.1835 59.581V67.0144C27.1835 68.3884 27.4655 68.4712 28.6265 68.5209C28.726 68.6202 28.726 68.9679 28.6265 69.0672C27.963 69.0506 27.1006 69.0341 26.4868 69.0341C25.8565 69.0341 24.9775 69.0506 24.3306 69.0672C24.2311 68.9679 24.2311 68.6202 24.3306 68.5209C25.4917 68.4712 25.7736 68.3884 25.7736 67.0144V60.3756C25.7736 59.0015 25.4917 58.9188 24.3306 58.8691C24.2311 58.7697 24.2311 58.4221 24.3306 58.3227C25.1599 58.3393 26.4703 58.3558 26.4703 58.3558ZM35.8127 64.3489H38.7483L37.1893 59.8458H37.0897L35.3814 64.1337C35.3316 64.2992 35.4478 64.3489 35.8127 64.3489ZM34.0213 67.7262C33.7559 68.4215 34.5355 68.4878 35.1658 68.5209C35.2653 68.6202 35.2653 68.9679 35.1658 69.0672C34.5521 69.0506 33.7228 69.0341 33.0427 69.0341C32.5285 69.0341 31.9978 69.0506 31.5666 69.0672C31.4671 68.9679 31.4671 68.6202 31.5666 68.5209C32.2798 68.4712 32.794 68.3718 33.2252 67.3454L36.9902 58.4718C37.2059 58.4718 37.6537 58.2897 37.9025 58.1406L41.3192 67.6103C41.6012 68.4215 42.1651 68.4712 42.812 68.5209C42.9115 68.6202 42.9115 68.9679 42.812 69.0672C42.2315 69.0506 41.6012 69.0341 40.9211 69.0341C40.2742 69.0341 39.3621 69.0506 38.7483 69.0672C38.6489 68.9679 38.6489 68.6202 38.7483 68.5209C39.5279 68.4712 40.1582 68.4215 39.9757 67.8421L39.0137 65.0442H35.5141C35.116 65.0442 35.0165 65.1105 34.9335 65.3257L34.0213 67.7262ZM46.1178 59.8624V63.7198C46.3003 63.7695 46.9637 63.8026 47.3784 63.8026C48.9872 63.8026 49.8497 63.0741 49.8497 61.2862C49.8497 59.1836 48.7052 58.8028 47.5608 58.8028C46.3666 58.8028 46.1178 59.3822 46.1178 59.8624ZM44.708 60.3756C44.708 59.0015 44.426 58.9188 43.265 58.8691C43.1654 58.7697 43.1654 58.4221 43.265 58.3227C43.9284 58.3393 44.7909 58.3558 45.4046 58.3558C46.0681 58.3558 47.03 58.24 47.6769 58.24C50.7453 58.24 51.3921 60.0113 51.3921 60.9882C51.3921 62.3953 50.48 64.3655 47.4613 64.3655C46.8808 64.3655 46.4827 64.3159 46.1178 64.1999V67.0144C46.1178 68.3884 46.5159 68.4547 47.8096 68.5209C47.9091 68.6202 47.9091 68.9679 47.8096 69.0672C46.9803 69.0506 46.0016 69.0341 45.4211 69.0341C44.824 69.0341 44.0113 69.0506 43.265 69.0672C43.1654 68.9679 43.1654 68.6202 43.265 68.5209C44.426 68.4712 44.708 68.3884 44.708 67.0144V60.3756ZM61.8748 67.0144C61.8748 68.3884 62.1568 68.4712 63.3178 68.5209C63.4173 68.6202 63.4173 68.9679 63.3178 69.0672C62.5715 69.0506 61.7587 69.0341 61.1782 69.0341C60.5646 69.0341 59.7684 69.0506 59.0221 69.0672C58.9225 68.9679 58.9225 68.6202 59.0221 68.5209C60.1831 68.4712 60.4651 68.3884 60.4651 67.0144V61.1206C60.3324 61.1703 60.2495 61.2365 60.1664 61.3358L55.6385 66.9647C55.4394 67.213 55.2736 67.3454 55.1575 67.7427C55.2736 68.4215 55.6551 68.4878 56.5672 68.5209C56.6668 68.6202 56.6668 68.9679 56.5672 69.0672C55.8209 69.0506 55.0082 69.0341 54.4277 69.0341C53.8141 69.0341 53.0178 69.0506 52.2715 69.0672C52.172 68.9679 52.172 68.6202 52.2715 68.5209C53.4325 68.4712 53.7145 68.3884 53.7145 67.0144V60.3756C53.7145 59.0015 53.4325 58.9188 52.2715 58.8691C52.172 58.7697 52.172 58.4221 52.2715 58.3227C53.0511 58.3393 53.8472 58.3558 54.4111 58.3558C55.0413 58.3558 55.8376 58.3393 56.5672 58.3227C56.6668 58.4221 56.6668 58.7697 56.5672 58.8691C55.4062 58.9188 55.1242 59.0015 55.1242 60.3756V66.2693C55.1906 66.2693 55.2902 66.2196 55.4062 66.0872L59.9675 60.4252C60.1499 60.1935 60.3157 59.8955 60.3986 59.6306C60.2826 58.9685 59.9177 58.9188 59.0221 58.8691C58.9225 58.7697 58.9225 58.4221 59.0221 58.3227C59.8016 58.3393 60.5977 58.3558 61.1616 58.3558C61.7919 58.3558 62.5881 58.3393 63.3178 58.3227C63.4173 58.4221 63.4173 58.7697 63.3178 58.8691C62.1568 58.9188 61.8748 59.0015 61.8748 60.3756V67.0144ZM73.9821 67.0144C73.9821 68.3884 74.264 68.4712 75.4251 68.5209C75.5245 68.6202 75.5245 68.9679 75.4251 69.0672C74.6953 69.0506 73.8992 69.0341 73.2854 69.0341C72.6551 69.0341 71.8755 69.0506 71.1292 69.0672C71.0297 68.9679 71.0297 68.6202 71.1292 68.5209C72.2902 68.4712 72.5722 68.3884 72.5722 67.0144V63.7198H66.8998V67.0144C66.8998 68.3884 67.1818 68.4712 68.3428 68.5209C68.4423 68.6202 68.4423 68.9679 68.3428 69.0672C67.613 69.0506 66.8002 69.0341 66.2032 69.0341C65.573 69.0341 64.7767 69.0506 64.0469 69.0672C63.9475 68.9679 63.9475 68.6202 64.0469 68.5209C65.208 68.4712 65.4899 68.3884 65.4899 67.0144V60.3756C65.4899 59.0015 65.208 58.9188 64.0469 58.8691C63.9475 58.7697 63.9475 58.4221 64.0469 58.3227C64.6772 58.3393 65.3572 58.3558 66.1866 58.3558C67.0325 58.3558 67.7125 58.3393 68.3428 58.3227C68.4423 58.4221 68.4423 58.7697 68.3428 58.8691C67.1818 58.9188 66.8998 59.0015 66.8998 60.3756V63.0244H72.5722V60.3756C72.5722 59.0015 72.2902 58.9188 71.1292 58.8691C71.0297 58.7697 71.0297 58.4221 71.1292 58.3227C71.8591 58.3393 72.6386 58.3558 73.2689 58.3558C73.8992 58.3558 74.7451 58.3393 75.4251 58.3227C75.5245 58.4221 75.5245 58.7697 75.4251 58.8691C74.264 58.9188 73.9821 59.0015 73.9821 60.3756V67.0144ZM81.3374 58.7367C79.6955 58.7367 78.0534 60.1439 78.0534 63.6205C78.0534 66.7991 79.9608 68.6036 81.9843 68.6036C83.8751 68.6036 85.3015 66.8653 85.3015 63.9019C85.3015 60.5577 83.5269 58.7367 81.3374 58.7367ZM86.8938 63.5874C86.8938 64.978 86.5289 66.1866 85.8655 67.1136C84.9532 68.4215 83.4771 69.1997 81.6525 69.1997C78.833 69.1997 76.4612 67.1633 76.4612 63.9019C76.4612 60.7067 78.3354 58.1406 81.5531 58.1406C84.5221 58.1406 86.8938 60.1604 86.8938 63.5874Z" fill="black"/>
</g>
<defs>
<linearGradient id="paint0_linear_3010_21" x1="48.5397" y1="24.7242" x2="48.5397" y2="51.5351" gradientUnits="userSpaceOnUse">
<stop stop-color="#34460F"/>
<stop offset="1" stop-color="#C5C42B"/>
</linearGradient>
<linearGradient id="paint1_linear_3010_21" x1="51.267" y1="24.7242" x2="51.267" y2="51.5351" gradientUnits="userSpaceOnUse">
<stop stop-color="white"/>
<stop offset="1" stop-color="#C5C42B"/>
</linearGradient>
<clipPath id="clip0_3010_21">
<rect width="75" height="49" fill="white" transform="translate(12.5 25)"/>
</clipPath>
</defs>
</svg>