<svg width="32" height="32" viewBox="0 0 32 32" fill="none" xmlns="http://www.w3.org/2000/svg">
<path fill-rule="evenodd" clip-rule="evenodd" d="M28.3333 8.75667C28.3333 8.16754 27.8558 7.69 27.2667 7.69H11.7947C11.2056 7.69 10.7281 8.16754 10.7281 8.75667V14.7363C10.7281 15.1045 11.0265 15.4029 11.3947 15.4029C11.7629 15.4029 12.0614 15.1045 12.0614 14.7363V9.02334H27V27H18.4364C18.0682 27 17.7697 27.2985 17.7697 27.6667C17.7697 28.0349 18.0682 28.3333 18.4364 28.3333H27.2667C27.8558 28.3333 28.3333 27.8558 28.3333 27.2667V8.75667Z" fill="#17303E"/>
<path fill-rule="evenodd" clip-rule="evenodd" d="M18.0561 14.2882C18.6453 14.2882 19.1228 14.7658 19.1228 15.3549V27.2667C19.1228 27.8558 18.6453 28.3334 18.0561 28.3334H4.73332C4.14422 28.3334 3.66666 27.8558 3.66666 27.2667V15.3549C3.66666 14.7658 4.14422 14.2882 4.73332 14.2882H18.0561ZM8.86166 18.0596C8.86166 19.4586 9.99572 20.5927 11.3947 20.5927C12.7937 20.5927 13.9278 19.4586 13.9278 18.0596V17.495C13.9278 17.1269 14.2263 16.8284 14.5945 16.8284C14.9627 16.8284 15.2611 17.1269 15.2611 17.495V18.0596C15.2611 20.195 13.5301 21.926 11.3947 21.926C9.25939 21.926 7.52832 20.195 7.52832 18.0596V17.495C7.52832 17.1269 7.82679 16.8284 8.19499 16.8284C8.56319 16.8284 8.86166 17.1269 8.86166 17.495V18.0596ZM19.5307 5.00002C17.7827 5.00002 16.3657 6.41702 16.3657 8.16495V10.5538C16.3657 10.922 16.0673 11.2205 15.6991 11.2205C15.3309 11.2205 15.0324 10.922 15.0324 10.5538V8.16495C15.0324 5.68064 17.0463 3.66669 19.5307 3.66669C22.0151 3.66669 24.029 5.68065 24.029 8.16502V10.5538C24.029 10.922 23.7305 11.2205 23.3623 11.2205C22.9941 11.2205 22.6957 10.922 22.6957 10.5538V8.16502C22.6957 6.41703 21.2787 5.00002 19.5307 5.00002Z" fill="#87745C"/>
</svg>
