<svg width="62" height="58" viewBox="0 0 62 58" fill="none" xmlns="http://www.w3.org/2000/svg">
<path d="M18.0055 7.31267L18.0056 7.31268C21.8594 7.51882 25.7792 9.2101 28.884 12.3458L28.8857 12.3476L29.5807 13.0477L31.0002 14.4778L32.4196 13.0477L33.1146 12.3476L33.1155 12.3467C39.3622 6.04568 48.886 5.63603 54.407 11.2056L54.4075 11.2061C59.9472 16.7907 59.5461 26.4349 53.2925 32.7437C53.2922 32.744 53.292 32.7443 53.2917 32.7446L51.0917 34.961L51.0908 34.9619L31.1016 55.1257C31.1014 55.126 31.1012 55.1262 31.1009 55.1265C31.0727 55.1544 31.0378 55.1675 31.0045 55.1675C30.9711 55.1675 30.9361 55.1544 30.9079 55.1264C30.9077 55.1262 30.9075 55.1259 30.9073 55.1257L10.9093 34.9616L10.9087 34.961L8.70867 32.7446C8.70851 32.7444 8.70835 32.7443 8.70818 32.7441C8.70805 32.744 8.70793 32.7439 8.7078 32.7437C2.45409 26.4348 2.04888 16.7903 7.58446 11.2015C10.3633 8.40235 14.1618 7.10686 18.0055 7.31267Z" stroke="#536D09" stroke-width="4"/>
<mask id="mask0_3005_941" style="mask-type:alpha" maskUnits="userSpaceOnUse" x="1" y="5" width="60" height="53">
<path d="M18.1125 5.31553C13.7536 5.08214 9.38196 6.55166 6.16432 9.79324C-0.275238 16.2937 0.398321 27.2027 7.28835 34.1527L9.48921 36.3699L29.49 56.5369C29.8921 56.9407 30.4367 57.1675 31.0045 57.1675C31.5722 57.1675 32.1168 56.9407 32.5189 56.5369L52.5111 36.3699L54.712 34.1527C61.602 27.2027 62.2713 16.2937 55.8274 9.79757C49.3879 3.30143 38.5809 3.99297 31.6952 10.9386L31.0002 11.6388L30.3052 10.9386C26.8601 7.4593 22.4756 5.54893 18.1125 5.31553Z" fill="#464646"/>
</mask>
<g mask="url(#mask0_3005_941)">
<path d="M17.5813 34.3542L27.0389 24.2114L37.1067 34.3542V57.0985H17.5813V34.3542Z" fill="#C5C42B"/>
<path d="M27.0385 24.2114H60.2938V34.0468L37.1073 34.3542L27.0385 24.2114Z" fill="#8B8B0C"/>
<rect x="37.1067" y="34.0468" width="24.4068" height="22.7443" fill="#536D09"/>
</g>
</svg>