<svg width="16" height="16" viewBox="0 0 16 16" fill="none" xmlns="http://www.w3.org/2000/svg">
<g clip-path="url(#clip0_886_26832)">
<path fill-rule="evenodd" clip-rule="evenodd" d="M2.2748 14.5669C2.01575 14.2974 2.01575 13.8602 2.2748 13.5907L13.9572 1.43314C14.2163 1.16356 14.6362 1.16356 14.8953 1.43315C15.1543 1.70273 15.1543 2.13982 14.8953 2.40941L3.21291 14.5669C2.95385 14.8365 2.53385 14.8365 2.2748 14.5669ZM7.99375 14.6251C6.93753 14.6251 5.94317 14.4176 5.02979 14.032L6.14865 12.8676C6.73737 13.0449 7.35577 13.1393 7.99375 13.1393C10.877 13.1393 13.3608 11.2105 14.5216 8.42451C14.1178 7.45555 13.5541 6.59027 12.8691 5.87378L13.8239 4.88016C14.7099 5.85117 15.4302 7.05278 15.9444 8.42451C14.5466 12.1535 11.6258 14.6251 7.99375 14.6251ZM7.98126 11.882C7.71376 11.882 7.45436 11.8416 7.2074 11.7658L10.9614 7.85914C10.988 8.04323 11.0018 8.23212 11.0018 8.42451C11.0018 10.339 9.6413 11.882 7.98126 11.882ZM5.1341 9.53889L9.23034 5.27604C8.84997 5.07767 8.42716 4.967 7.98126 4.967C6.32123 4.967 4.97323 6.51002 4.97323 8.42451C4.97323 8.81384 5.02982 9.18879 5.1341 9.53889ZM7.99375 3.70972C8.80665 3.70972 9.58782 3.86304 10.3165 4.14568L11.3966 3.02163C10.3642 2.50533 9.21946 2.22384 7.99375 2.22384C4.36165 2.22384 1.45347 4.69553 0.055542 8.42451C0.624882 9.95691 1.45137 11.277 2.48045 12.3005L3.44603 11.2956C2.61537 10.5229 1.93932 9.54274 1.47843 8.42451C2.6392 5.6385 5.12301 3.70972 7.99375 3.70972Z" fill="#9A9A9A"/>
</g>
<defs>
<clipPath id="clip0_886_26832">
<rect width="16" height="16" fill="white"/>
</clipPath>
</defs>
</svg>
