<svg width="40" height="40" viewBox="0 0 40 40" fill="none" xmlns="http://www.w3.org/2000/svg">
<g clip-path="url(#clip0_669_15601)">
<path d="M7.35437 40.4493V2.86004C7.35437 2.4266 7.52656 2.0109 7.83304 1.70441C8.13954 1.39793 8.55524 1.22573 8.98868 1.22573H35.1377C35.5712 1.22573 35.9868 1.39793 36.2934 1.70441C36.5998 2.0109 36.772 2.4266 36.772 2.86004V40.4493H7.35437Z" fill="#6D9200"/>
<path d="M1.22571 40.4493H42.9007" stroke="#17303E" stroke-width="2.45147" stroke-linecap="round" stroke-linejoin="round"/>
<path d="M7.35437 40.4493V2.86004C7.35437 2.4266 7.52656 2.0109 7.83304 1.70441C8.13954 1.39793 8.55524 1.22573 8.98868 1.22573H35.1377C35.5712 1.22573 35.9868 1.39793 36.2934 1.70441C36.5998 2.0109 36.772 2.4266 36.772 2.86004V40.4493" stroke="#17303E" stroke-width="2.45147" stroke-linecap="round" stroke-linejoin="round"/>
<path d="M28.1918 23.289C29.5458 23.289 30.6433 22.1914 30.6433 20.8375C30.6433 19.4836 29.5458 18.386 28.1918 18.386C26.8379 18.386 25.7404 19.4836 25.7404 20.8375C25.7404 22.1914 26.8379 23.289 28.1918 23.289Z" fill="#17303E"/>
</g>
<defs>
<clipPath id="clip0_669_15601">
<rect width="40" height="40" fill="white"/>
</clipPath>
</defs>
</svg>