<svg width="60" height="40" viewBox="0 0 60 40" fill="none" xmlns="http://www.w3.org/2000/svg">
<path d="M45.758 23.9273L37.0928 32.5925C36.8566 32.8134 36.5705 32.9737 36.2588 33.0599C35.9471 33.146 35.6192 33.1553 35.3032 33.087L21.646 29.6727C21.3965 29.6032 21.1641 29.483 20.9631 29.3196L8.08301 19.265L15.7593 4.83075L27.8389 1.2987C28.2681 1.17563 28.727 1.20901 29.134 1.3929L37.2812 5.08977H32.407C32.1624 5.08891 31.92 5.1363 31.6937 5.22923C31.4674 5.32217 31.2617 5.4588 31.0883 5.63135L21.8579 14.8383C21.6695 15.0317 21.5243 15.263 21.4318 15.5168C21.3395 15.7707 21.3022 16.0412 21.3221 16.3105C21.3422 16.5799 21.4192 16.842 21.5482 17.0793C21.677 17.3166 21.8548 17.5238 22.0698 17.6873L23.3414 18.6527C24.6472 19.6274 26.233 20.1539 27.8624 20.1539C29.4918 20.1539 31.0776 19.6274 32.3834 18.6527L35.3974 16.3922L45.758 23.9273Z" fill="#6D9200"/>
<path d="M55.342 16.604L49.5261 19.5003L41.991 5.08959L47.8777 2.14623C48.3151 1.92323 48.8231 1.88224 49.2907 2.03223C49.7582 2.18221 50.1475 2.51096 50.3736 2.94682L56.1662 14.0375C56.2836 14.2595 56.3556 14.5026 56.3777 14.7529C56.3997 15.0031 56.3715 15.2551 56.2947 15.4943C56.218 15.7334 56.0942 15.9548 55.9305 16.1454C55.7669 16.336 55.5668 16.4919 55.342 16.604Z" stroke="#17303E" stroke-width="2.45147" stroke-linecap="round" stroke-linejoin="round"/>
<path d="M8.08335 19.2651L2.26727 16.3453C2.04332 16.2356 1.84374 16.0819 1.68037 15.8935C1.517 15.7051 1.39321 15.4857 1.31632 15.2485C1.23942 15.0112 1.21104 14.7609 1.23282 14.5125C1.2546 14.264 1.32612 14.0225 1.44312 13.8023L7.23566 2.71169C7.46226 2.27615 7.84994 1.94628 8.31615 1.79234C8.78235 1.6384 9.29024 1.67256 9.73164 1.88754L15.6184 4.83091L8.08335 19.2651Z" stroke="#17303E" stroke-width="2.45147" stroke-linecap="round" stroke-linejoin="round"/>
<path d="M49.5256 19.5001L45.758 23.9269L37.0928 32.5922C36.8566 32.813 36.5705 32.9734 36.2588 33.0594C35.9471 33.1456 35.6192 33.1549 35.3032 33.0866L21.646 29.6723C21.3965 29.6028 21.1641 29.4826 20.9631 29.3192L8.08301 19.2646" stroke="#17303E" stroke-width="2.45147" stroke-linecap="round" stroke-linejoin="round"/>
<path d="M45.7584 23.9272L35.3977 16.3922L32.3837 18.6527C31.0779 19.6273 29.4921 20.1539 27.8626 20.1539C26.2333 20.1539 24.6475 19.6273 23.3416 18.6527L22.0702 17.6872C21.8551 17.5238 21.6772 17.3166 21.5484 17.0791C21.4194 16.8418 21.3425 16.5798 21.3224 16.3105C21.3024 16.0411 21.3398 15.7705 21.4322 15.5167C21.5245 15.2628 21.6697 15.0316 21.8583 14.8381L31.0887 5.63125C31.262 5.45872 31.4678 5.32208 31.6941 5.22915C31.9202 5.13622 32.1626 5.08882 32.4072 5.08968H41.9908" stroke="#17303E" stroke-width="2.45147" stroke-linecap="round" stroke-linejoin="round"/>
<path d="M15.7598 4.83075L27.8394 1.29871C28.2685 1.17563 28.7276 1.20901 29.1345 1.39291L37.2817 5.08977" stroke="#17303E" stroke-width="2.45147" stroke-linecap="round" stroke-linejoin="round"/>
<path d="M25.0369 38.0559L17.9493 36.2663C17.6604 36.2011 17.393 36.0633 17.1722 35.8661L11.8506 31.2508" stroke="#17303E" stroke-width="2.45147" stroke-linecap="round" stroke-linejoin="round"/>
</svg>