<svg width="17" height="21" viewBox="0 0 17 21" fill="none" xmlns="http://www.w3.org/2000/svg">
<path d="M8.08008 0.920013C5.95908 0.922396 3.92563 1.76602 2.42585 3.26579C0.92608 4.76556 0.0824602 6.79901 0.0800781 8.92001C0.0800781 12.175 2.44308 14.878 4.94608 17.739C5.73808 18.645 6.55808 19.582 7.28808 20.53C7.3815 20.6512 7.50148 20.7493 7.63878 20.8169C7.77609 20.8844 7.92706 20.9195 8.08008 20.9195C8.23309 20.9195 8.38406 20.8844 8.52137 20.8169C8.65868 20.7493 8.77866 20.6512 8.87208 20.53C9.60208 19.582 10.4221 18.645 11.2141 17.739C13.7171 14.878 16.0801 12.175 16.0801 8.92001C16.0777 6.79901 15.2341 4.76556 13.7343 3.26579C12.2345 1.76602 10.2011 0.922396 8.08008 0.920013ZM8.08008 11.92C7.48673 11.92 6.90671 11.7441 6.41337 11.4144C5.92002 11.0848 5.5355 10.6162 5.30844 10.0681C5.08138 9.51989 5.02197 8.91669 5.13772 8.33474C5.25348 7.7528 5.5392 7.21825 5.95876 6.79869C6.37831 6.37914 6.91286 6.09341 7.49481 5.97766C8.07675 5.8619 8.67995 5.92131 9.22813 6.14838C9.77631 6.37544 10.2448 6.75995 10.5745 7.2533C10.9041 7.74665 11.0801 8.32667 11.0801 8.92001C11.0801 9.71566 10.764 10.4787 10.2014 11.0413C9.63879 11.6039 8.87573 11.92 8.08008 11.92Z" fill="#783807"/>
</svg>
