<svg width="24" height="25" viewBox="0 0 24 25" fill="none" xmlns="http://www.w3.org/2000/svg">
<path d="M13.12 8.02C14.0111 8.02 14.8658 8.374 15.4959 9.00412C16.126 9.63424 16.48 10.4889 16.48 11.38C16.48 11.677 16.598 11.9619 16.808 12.172C17.0181 12.382 17.303 12.5 17.6 12.5C17.897 12.5 18.1819 12.382 18.392 12.172C18.602 11.9619 18.72 11.677 18.72 11.38C18.72 9.89479 18.13 8.4704 17.0798 7.4202C16.0296 6.37 14.6052 5.78 13.12 5.78C12.823 5.78 12.5381 5.898 12.328 6.10804C12.118 6.31808 12 6.60296 12 6.9C12 7.19704 12.118 7.48192 12.328 7.69196C12.5381 7.902 12.823 8.02 13.12 8.02Z" fill="#17303E"/>
<path d="M13.12 3.54C15.1993 3.54 17.1935 4.366 18.6638 5.83628C20.134 7.30657 20.96 9.3007 20.96 11.38C20.96 11.677 21.078 11.9619 21.2881 12.172C21.4981 12.382 21.783 12.5 22.08 12.5C22.3771 12.5 22.662 12.382 22.872 12.172C23.082 11.9619 23.2 11.677 23.2 11.38C23.2 8.70662 22.138 6.14273 20.2477 4.25237C18.3573 2.362 15.7934 1.3 13.12 1.3C12.823 1.3 12.5381 1.418 12.3281 1.62804C12.118 1.83808 12 2.12296 12 2.42C12 2.71705 12.118 3.00192 12.3281 3.21196C12.5381 3.422 12.823 3.54 13.12 3.54ZM22.92 16.8792C22.8584 16.6994 22.7521 16.5382 22.611 16.4109C22.4699 16.2835 22.2988 16.1942 22.1136 16.1512L15.3936 14.6168C15.2112 14.5754 15.0214 14.5804 14.8414 14.6313C14.6614 14.6822 14.497 14.7773 14.3632 14.908C14.2064 15.0536 14.1952 15.0648 13.4672 16.4536C11.0516 15.3405 9.11604 13.397 8.01285 10.9768C9.43525 10.26 9.44645 10.26 9.59205 10.092C9.72276 9.95822 9.81789 9.79384 9.86876 9.61385C9.91962 9.43387 9.92461 9.24401 9.88325 9.0616L8.34885 2.42C8.30589 2.23486 8.21653 2.0637 8.08917 1.92262C7.96181 1.78155 7.80065 1.67521 7.62085 1.6136C7.35929 1.52018 7.0892 1.45266 6.81445 1.412C6.53137 1.34637 6.2425 1.30885 5.95205 1.3C4.58565 1.3 3.27522 1.8428 2.30903 2.80899C1.34285 3.77518 0.800049 5.08561 0.800049 6.452C0.805976 11.0246 2.62507 15.4083 5.85842 18.6416C9.09176 21.875 13.4754 23.6941 18.048 23.7C18.7246 23.7 19.3946 23.5667 20.0196 23.3078C20.6447 23.0489 21.2127 22.6694 21.6911 22.191C22.1695 21.7126 22.549 21.1447 22.8079 20.5196C23.0668 19.8945 23.2 19.2246 23.2 18.548C23.2004 18.2629 23.1779 17.9783 23.1328 17.6968C23.0858 17.4186 23.0146 17.145 22.92 16.8792Z" fill="#778F35"/>
<path d="M13.12 3.54C15.1993 3.54 17.1934 4.366 18.6637 5.83628C20.134 7.30657 20.96 9.3007 20.96 11.38C20.96 11.677 21.078 11.9619 21.288 12.172C21.4981 12.382 21.783 12.5 22.08 12.5C22.377 12.5 22.6619 12.382 22.872 12.172C23.082 11.9619 23.2 11.677 23.2 11.38C23.2 8.70662 22.138 6.14273 20.2476 4.25237C18.3573 2.362 15.7934 1.3 13.12 1.3C12.823 1.3 12.5381 1.418 12.328 1.62804C12.118 1.83808 12 2.12296 12 2.42C12 2.71705 12.118 3.00192 12.328 3.21196C12.5381 3.422 12.823 3.54 13.12 3.54Z" fill="#17303E"/>
</svg>
