<svg width="24" height="25" viewBox="0 0 24 25" fill="none" xmlns="http://www.w3.org/2000/svg">
<path d="M12 1.5C9.82441 1.5 7.69767 2.14514 5.88873 3.35383C4.07979 4.56253 2.66989 6.28049 1.83733 8.29048C1.00477 10.3005 0.786929 12.5122 1.21137 14.646C1.6358 16.7798 2.68345 18.7398 4.22183 20.2782C5.76021 21.8166 7.72022 22.8642 9.85401 23.2886C11.9878 23.7131 14.1995 23.4952 16.2095 22.6627C18.2195 21.8301 19.9375 20.4202 21.1462 18.6113C22.3549 16.8023 23 14.6756 23 12.5C23 9.58262 21.8411 6.78473 19.7782 4.72183C17.7153 2.65893 14.9174 1.5 12 1.5ZM16 13.5H12C11.7348 13.5 11.4804 13.3946 11.2929 13.2071C11.1054 13.0196 11 12.7652 11 12.5V6.5C11 6.23478 11.1054 5.98043 11.2929 5.79289C11.4804 5.60536 11.7348 5.5 12 5.5C12.2652 5.5 12.5196 5.60536 12.7071 5.79289C12.8946 5.98043 13 6.23478 13 6.5V11.5H16C16.2652 11.5 16.5196 11.6054 16.7071 11.7929C16.8946 11.9804 17 12.2348 17 12.5C17 12.7652 16.8946 13.0196 16.7071 13.2071C16.5196 13.3946 16.2652 13.5 16 13.5Z" fill="#778F35"/>
<path d="M12 6.5V12.5H16.4" stroke="#17303E" stroke-width="2" stroke-linecap="round"/>
</svg>
