<svg width="24" height="21" viewBox="0 0 24 21" fill="none" xmlns="http://www.w3.org/2000/svg">
<path d="M0.399902 3.91378V3.32527C0.399902 2.94493 0.550991 2.58017 0.819931 2.31123C1.08887 2.04229 1.45363 1.8912 1.83397 1.8912H21.9109C22.2912 1.8912 22.656 2.04229 22.9249 2.31123C23.1939 2.58017 23.345 2.94493 23.345 3.32527V3.91378L11.8724 11.0841L0.399902 3.91378ZM12.2525 12.5379C12.1385 12.609 12.0068 12.6468 11.8724 12.6468C11.7381 12.6468 11.6064 12.609 11.4924 12.5379L0.399902 5.6049V17.6659C0.399902 18.0463 0.550991 18.411 0.819931 18.68C1.08887 18.9489 1.45363 19.1 1.83397 19.1H21.9109C22.2912 19.1 22.656 18.9489 22.9249 18.68C23.1939 18.411 23.345 18.0463 23.345 17.6659V5.6049L12.2525 12.5379Z" fill="#778F35"/>
<path d="M0.399902 3.90014V3.25997C0.399902 2.84624 0.550036 2.44945 0.817275 2.1569C1.08451 1.86435 1.44697 1.7 1.8249 1.7H21.7749C22.1528 1.7 22.5153 1.86435 22.7825 2.1569C23.0498 2.44945 23.1999 2.84624 23.1999 3.25997V3.90014L11.7999 11.7L0.399902 3.90014Z" fill="#17303E"/>
</svg>
