<svg width="48" height="48" viewBox="0 0 48 48" fill="none" xmlns="http://www.w3.org/2000/svg">
<path d="M32.5781 30.6732C33.0844 31.234 33.0844 32.0751 32.5781 32.5797C32.0156 33.1405 31.1719 33.1405 30.6656 32.5797L24.0281 25.9068L17.3344 32.5797C16.7719 33.1405 15.9281 33.1405 15.4219 32.5797C14.8594 32.0751 14.8594 31.234 15.4219 30.6732L22.1156 24.0003L15.4219 17.3274C14.8594 16.7667 14.8594 15.9255 15.4219 15.4209C15.9281 14.8601 16.7719 14.8601 17.2781 15.4209L24.0281 22.1498L30.7219 15.4769C31.2281 14.9162 32.0719 14.9162 32.5781 15.4769C33.1406 15.9816 33.1406 16.8227 32.5781 17.3835L25.8844 24.0003L32.5781 30.6732Z" fill="#6D9200"/>
</svg>
