<svg width="60" height="60" viewBox="0 0 60 60" fill="none" xmlns="http://www.w3.org/2000/svg">
<path d="M32.8 18.8C35.0278 18.8 37.1644 19.685 38.7397 21.2603C40.315 22.8356 41.2 24.9722 41.2 27.2C41.2 27.9426 41.495 28.6548 42.0201 29.1799C42.5452 29.705 43.2574 30 44 30C44.7426 30 45.4548 29.705 45.9799 29.1799C46.505 28.6548 46.8 27.9426 46.8 27.2C46.8 23.4869 45.325 19.926 42.6995 17.3005C40.074 14.675 36.513 13.2 32.8 13.2C32.0574 13.2 31.3452 13.495 30.8201 14.0201C30.295 14.5452 30 15.2574 30 16C30 16.7426 30.295 17.4548 30.8201 17.9799C31.3452 18.505 32.0574 18.8 32.8 18.8Z" fill="#17303E"/>
<path d="M32.8 7.6C37.9982 7.6 42.9836 9.66499 46.6593 13.3407C50.335 17.0164 52.4 22.0018 52.4 27.2C52.4 27.9426 52.695 28.6548 53.2201 29.1799C53.7452 29.705 54.4574 30 55.2 30C55.9426 30 56.6548 29.705 57.1799 29.1799C57.705 28.6548 58 27.9426 58 27.2C58 20.5165 55.345 14.1068 50.6191 9.38091C45.8932 4.65499 39.4834 2 32.8 2C32.0574 2 31.3452 2.295 30.8201 2.8201C30.295 3.3452 30 4.05739 30 4.8C30 5.54261 30.295 6.2548 30.8201 6.7799C31.3452 7.305 32.0574 7.6 32.8 7.6ZM57.3 40.948C57.146 40.4985 56.8801 40.0956 56.5274 39.7772C56.1748 39.4588 55.7468 39.2354 55.284 39.128L38.484 35.292C38.028 35.1886 37.5533 35.201 37.1034 35.3282C36.6534 35.4554 36.2424 35.6932 35.908 36.02C35.516 36.384 35.488 36.412 33.668 39.884C27.629 37.1012 22.79 32.2424 20.032 26.192C23.588 24.4 23.616 24.4 23.98 23.98C24.3068 23.6456 24.5446 23.2346 24.6718 22.7846C24.7989 22.3347 24.8114 21.86 24.708 21.404L20.872 4.8C20.7646 4.33715 20.5412 3.90924 20.2228 3.55655C19.9044 3.20387 19.5015 2.93801 19.052 2.784C18.3981 2.55045 17.7229 2.38164 17.036 2.28C16.3283 2.11591 15.6061 2.02212 14.88 2C11.464 2 8.18793 3.357 5.77246 5.77246C3.357 8.18793 2 11.464 2 14.88C2.01482 26.3116 6.56256 37.2707 14.6459 45.3541C22.7293 53.4374 33.6884 57.9852 45.12 58C46.8114 58 48.4863 57.6668 50.049 57.0196C51.6116 56.3723 53.0315 55.4235 54.2275 54.2275C55.4235 53.0315 56.3723 51.6116 57.0196 50.049C57.6668 48.4863 58 46.8114 58 45.12C58.0009 44.4073 57.9447 43.6957 57.832 42.992C57.7143 42.2965 57.5363 41.6126 57.3 40.948Z" fill="#6D9200"/>
<path d="M32.8 7.6C37.9982 7.6 42.9836 9.66499 46.6593 13.3407C50.335 17.0164 52.4 22.0018 52.4 27.2C52.4 27.9426 52.695 28.6548 53.2201 29.1799C53.7452 29.705 54.4574 30 55.2 30C55.9426 30 56.6548 29.705 57.1799 29.1799C57.705 28.6548 58 27.9426 58 27.2C58 20.5165 55.345 14.1068 50.6191 9.38091C45.8932 4.65499 39.4835 2 32.8 2C32.0574 2 31.3452 2.295 30.8201 2.8201C30.295 3.3452 30 4.05739 30 4.8C30 5.54261 30.295 6.2548 30.8201 6.7799C31.3452 7.305 32.0574 7.6 32.8 7.6Z" fill="#17303E"/>
</svg>
