<svg width="60" height="60" viewBox="0 0 60 60" fill="none" xmlns="http://www.w3.org/2000/svg">
<path d="M30 2.5C24.561 2.5 19.2442 4.11285 14.7218 7.13459C10.1995 10.1563 6.67474 14.4512 4.59333 19.4762C2.51192 24.5012 1.96732 30.0305 3.02842 35.365C4.08951 40.6995 6.70863 45.5995 10.5546 49.4454C14.4005 53.2914 19.3006 55.9105 24.635 56.9716C29.9695 58.0327 35.4988 57.4881 40.5238 55.4067C45.5488 53.3253 49.8437 49.8005 52.8654 45.2782C55.8872 40.7558 57.5 35.439 57.5 30C57.5 22.7065 54.6027 15.7118 49.4455 10.5546C44.2882 5.39731 37.2935 2.5 30 2.5ZM40 32.5H30C29.337 32.5 28.7011 32.2366 28.2322 31.7678C27.7634 31.2989 27.5 30.663 27.5 30V15C27.5 14.337 27.7634 13.7011 28.2322 13.2322C28.7011 12.7634 29.337 12.5 30 12.5C30.6631 12.5 31.2989 12.7634 31.7678 13.2322C32.2366 13.7011 32.5 14.337 32.5 15V27.5H40C40.6631 27.5 41.2989 27.7634 41.7678 28.2322C42.2366 28.7011 42.5 29.337 42.5 30C42.5 30.663 42.2366 31.2989 41.7678 31.7678C41.2989 32.2366 40.6631 32.5 40 32.5Z" fill="#6D9200"/>
<path d="M30 15V30H41" stroke="#17303E" stroke-width="5" stroke-linecap="round"/>
</svg>
