<svg width="60" height="50" viewBox="0 0 60 50" fill="none" xmlns="http://www.w3.org/2000/svg">
<path d="M1 8.53445V7.06319C1 6.11235 1.37772 5.20045 2.05007 4.5281C2.72242 3.85575 3.63432 3.47803 4.58516 3.47803H54.7775C55.7283 3.47803 56.6402 3.85575 57.3126 4.5281C57.9849 5.20045 58.3626 6.11235 58.3626 7.06319V8.53445L29.6813 26.4603L1 8.53445ZM30.6314 30.0947C30.3464 30.2726 30.0172 30.3669 29.6813 30.3669C29.3454 30.3669 29.0162 30.2726 28.7313 30.0947L1 12.7623V42.9148C1 43.8657 1.37772 44.7776 2.05007 45.4499C2.72242 46.1223 3.63432 46.5 4.58516 46.5H54.7775C55.7283 46.5 56.6402 46.1223 57.3126 45.4499C57.9849 44.7776 58.3626 43.8657 58.3626 42.9148V12.7623L30.6314 30.0947Z" fill="#6D9200"/>
<path d="M1 8.50036V6.89993C1 5.8656 1.37533 4.87364 2.04343 4.14226C2.71153 3.41088 3.61767 3 4.5625 3H54.4375C55.3823 3 56.2885 3.41088 56.9566 4.14226C57.6247 4.87364 58 5.8656 58 6.89993V8.50036L29.5 28L1 8.50036Z" fill="#17303E"/>
</svg>
