<svg width="61" height="60" viewBox="0 0 61 60" fill="none" xmlns="http://www.w3.org/2000/svg">
<rect x="0.5" width="60" height="60" rx="30" fill="#6D9200"/>
<path d="M18.633 33.417L23.8121 31.1998C24.9748 30.6719 26.296 31.0414 27.0887 31.9917L28.5156 33.7337C30.8938 32.3612 32.8492 30.408 34.2232 28.0852L32.4264 26.6599C31.5279 25.868 31.158 24.5483 31.6336 23.4397L33.9061 18.1607C34.4346 16.9465 35.7558 16.2603 37.077 16.577L41.8862 17.6856C43.1546 17.9495 44.0001 19.0581 44.0001 20.3779C44.0001 33.153 33.6419 43.4999 20.8526 43.4999C19.5314 43.4999 18.4216 42.6552 18.2102 41.3883L17.1004 36.5844C16.7305 35.2646 17.4175 33.9449 18.633 33.417ZM19.5314 36.0037L20.6412 40.8076C20.6412 40.8604 20.7469 40.966 20.8526 40.966C32.215 40.966 41.5163 31.7277 41.5163 20.3779C41.5163 20.2723 41.4106 20.1667 41.3049 20.1667L36.4957 19.0581L36.4428 19.0053C36.3371 19.0053 36.2843 19.1109 36.2314 19.1637L34.0118 24.3371C33.959 24.4427 33.959 24.5483 34.0647 24.6011L36.6542 26.7127C37.077 27.0822 37.2356 27.7157 36.9713 28.2436C35.2273 31.7805 32.3207 34.684 28.7798 36.426C28.2514 36.69 27.5643 36.5844 27.1944 36.1093L25.0805 33.5226C25.0276 33.4698 24.9219 33.417 24.8162 33.4698L19.6371 35.687C19.5314 35.7925 19.4786 35.8981 19.5314 36.0037Z" fill="#F3ECE1"/>
</svg>