<svg width="32" height="32" viewBox="0 0 32 32" fill="none" xmlns="http://www.w3.org/2000/svg">
<path d="M5.48535 14.6817C5.48535 13.701 5.96476 12.7821 6.7692 12.2211L14.0549 7.13976C15.086 6.42064 16.4561 6.42064 17.4872 7.13976L24.7729 12.2211C25.5774 12.7821 26.0568 13.701 26.0568 14.6817V26.2571C26.0568 27.914 24.7136 29.2571 23.0568 29.2571H8.48535C6.8285 29.2571 5.48535 27.914 5.48535 26.2571V14.6817Z" fill="#87745C"/>
<path d="M28.1547 10.6652L16.864 2.96887C16.531 2.74295 16.1446 2.62295 15.75 2.62295C15.3554 2.62295 14.969 2.74295 14.636 2.96887L9.12602 6.72696V5.08859C9.12602 4.73722 8.99518 4.40025 8.76227 4.1518C8.52937 3.90334 8.21348 3.76376 7.88411 3.76376H6.22821C5.89884 3.76376 5.58295 3.90334 5.35005 4.1518C5.11714 4.40025 4.9863 4.73722 4.9863 5.08859V9.54707L3.34448 10.6652C3.07678 10.8467 2.85815 11.0996 2.71022 11.3989C2.56229 11.6982 2.4902 12.0336 2.50107 12.3717C2.51194 12.7099 2.60541 13.0392 2.77221 13.327C2.93902 13.6148 3.17339 13.8511 3.45211 14.0126C3.68524 14.1489 3.94391 14.228 4.2093 14.2442C4.47469 14.2604 4.74013 14.2132 4.9863 14.1062V27.169C4.9863 27.7546 5.20437 28.3162 5.59255 28.7303C5.98072 29.1444 6.5072 29.377 7.05616 29.377H24.443C24.992 29.377 25.5185 29.1444 25.9066 28.7303C26.2948 28.3162 26.5129 27.7546 26.5129 27.169V14.1027C26.7212 14.1976 26.9446 14.2494 27.1711 14.2555C27.4778 14.2549 27.7794 14.1716 28.0479 14.0135C28.3266 13.852 28.561 13.6157 28.7278 13.3279C28.8946 13.0401 28.9881 12.7108 28.9989 12.3726C29.0098 12.0345 28.9377 11.6991 28.7898 11.3998C28.6419 11.1005 28.4232 10.8476 28.1555 10.6661L28.1547 10.6652ZM5.81424 5.08859C5.81424 4.97147 5.85786 4.85914 5.93549 4.77632C6.01313 4.69351 6.11842 4.64698 6.22821 4.64698H7.88411C7.9939 4.64698 8.09919 4.69351 8.17683 4.77632C8.25446 4.85914 8.29808 4.97147 8.29808 5.08859V7.29045L5.81424 8.98269V5.08859ZM25.6849 27.169C25.6849 27.5204 25.5541 27.8573 25.3212 28.1058C25.0883 28.3542 24.7724 28.4938 24.443 28.4938H7.05616C6.72678 28.4938 6.4109 28.3542 6.17799 28.1058C5.94509 27.8573 5.81424 27.5204 5.81424 27.169V13.5993L15.526 6.94864C15.5927 6.90317 15.6701 6.879 15.7492 6.879C15.8283 6.879 15.9057 6.90317 15.9723 6.94864L25.6849 13.5993V27.169ZM27.6505 13.238C27.494 13.3311 27.3166 13.3767 27.1376 13.37C26.9585 13.3633 26.7846 13.3046 26.6346 13.2001L16.4211 6.20586C16.2206 6.06944 15.9878 5.99697 15.75 5.99697C15.5122 5.99697 15.2794 6.06944 15.079 6.20586L4.86459 13.2001C4.71424 13.3041 4.54032 13.3628 4.36124 13.37C4.18216 13.3772 4.00459 13.3325 3.84735 13.2408C3.6901 13.1491 3.55904 13.0138 3.46803 12.8491C3.37703 12.6844 3.32947 12.4965 3.33041 12.3054C3.3302 12.1268 3.3723 11.9511 3.45277 11.7945C3.53325 11.6379 3.6495 11.5056 3.79074 11.4098L15.0814 3.71784C15.2809 3.58214 15.5126 3.51005 15.7492 3.51005C15.9858 3.51005 16.2174 3.58214 16.4169 3.71784L27.7084 11.4098C27.855 11.5086 27.9748 11.6465 28.0559 11.81C28.137 11.9735 28.1766 12.1568 28.1708 12.3416C28.1649 12.5265 28.1138 12.7065 28.0225 12.8637C27.9312 13.021 27.803 13.15 27.6505 13.238Z" fill="#17303E"/>
<path d="M15.1022 12.9371L15.5769 12.4618L15.5769 14.8282C15.5769 14.9405 15.6215 15.0483 15.7008 15.1277C15.7802 15.2072 15.8878 15.2518 16 15.2518C16.1122 15.2518 16.2198 15.2072 16.2992 15.1277C16.3785 15.0483 16.4231 14.9405 16.4231 14.8282V12.4618L16.8978 12.9371C16.9776 13.0142 17.0844 13.0569 17.1954 13.056C17.3063 13.055 17.4124 13.0105 17.4908 12.9319C17.5693 12.8534 17.6138 12.7471 17.6147 12.636C17.6157 12.525 17.5731 12.4179 17.496 12.338L16.3004 11.1409C16.2611 11.1014 16.2144 11.0701 16.163 11.0487C16.1116 11.0274 16.0565 11.0164 16.0008 11.0164C15.9452 11.0164 15.8901 11.0274 15.8387 11.0487C15.7873 11.0701 15.7406 11.1014 15.7013 11.1409L14.5057 12.338C14.4286 12.4179 14.386 12.525 14.3869 12.636C14.3879 12.7471 14.4324 12.8534 14.5108 12.9319C14.5893 13.0105 14.6954 13.055 14.8063 13.056C14.9173 13.0569 15.0241 13.0142 15.1039 12.9371H15.1022ZM15.5769 17.5496H16.4231C16.6475 17.5496 16.8627 17.6389 17.0214 17.7978C17.1801 17.9567 17.2692 18.1722 17.2692 18.3969C17.2692 18.5092 17.3138 18.617 17.3931 18.6965C17.4725 18.7759 17.5801 18.8205 17.6923 18.8205C17.8045 18.8205 17.9121 18.7759 17.9915 18.6965C18.0708 18.617 18.1154 18.5092 18.1154 18.3969C18.1154 17.9475 17.9371 17.5165 17.6197 17.1987C17.3023 16.8809 16.8719 16.7023 16.4231 16.7023V16.2787C16.4231 16.1664 16.3785 16.0586 16.2992 15.9792C16.2198 15.8997 16.1122 15.8551 16 15.8551C15.8878 15.8551 15.7802 15.8997 15.7008 15.9792C15.6215 16.0586 15.5769 16.1664 15.5769 16.2787V16.7023C15.1281 16.7023 14.6976 16.8809 14.3803 17.1987C14.0629 17.5165 13.8846 17.9475 13.8846 18.3969C13.8846 18.8463 14.0629 19.2773 14.3803 19.5951C14.6976 19.9129 15.1281 20.0914 15.5769 20.0914H16.4231C16.6475 20.0914 16.8627 20.1807 17.0214 20.3396C17.1801 20.4985 17.2692 20.714 17.2692 20.9387C17.2692 21.1634 17.1801 21.3789 17.0214 21.5378C16.8627 21.6967 16.6475 21.786 16.4231 21.786H15.5769C15.3525 21.786 15.1373 21.6967 14.9786 21.5378C14.8199 21.3789 14.7308 21.1634 14.7308 20.9387C14.7308 20.8264 14.6862 20.7186 14.6069 20.6392C14.5275 20.5597 14.4199 20.5151 14.3077 20.5151C14.1955 20.5151 14.0879 20.5597 14.0085 20.6392C13.9292 20.7186 13.8846 20.8264 13.8846 20.9387C13.8846 21.3881 14.0629 21.8191 14.3803 22.1369C14.6976 22.4547 15.1281 22.6333 15.5769 22.6333V23.0569C15.5769 23.1692 15.6215 23.277 15.7008 23.3564C15.7802 23.4359 15.8878 23.4805 16 23.4805C16.1122 23.4805 16.2198 23.4359 16.2992 23.3564C16.3785 23.277 16.4231 23.1692 16.4231 23.0569V22.6333C16.8719 22.6333 17.3023 22.4547 17.6197 22.1369C17.9371 21.8191 18.1154 21.3881 18.1154 20.9387C18.1154 20.4893 17.9371 20.0583 17.6197 19.7405C17.3023 19.4227 16.8719 19.2442 16.4231 19.2442H15.5769C15.3525 19.2442 15.1373 19.1549 14.9786 18.996C14.8199 18.8371 14.7308 18.6216 14.7308 18.3969C14.7308 18.1722 14.8199 17.9567 14.9786 17.7978C15.1373 17.6389 15.3525 17.5496 15.5769 17.5496ZM21.5 19.6678C21.5018 18.5287 21.1495 17.4174 20.4921 16.4878C19.8347 15.5582 18.9047 14.8565 17.8311 14.48C17.7781 14.4594 17.7215 14.4497 17.6647 14.4515C17.6079 14.4533 17.552 14.4665 17.5004 14.4904C17.4489 14.5143 17.4026 14.5483 17.3645 14.5905C17.3263 14.6327 17.297 14.6821 17.2784 14.7358C17.2597 14.7896 17.2521 14.8466 17.2559 14.9034C17.2597 14.9601 17.2749 15.0156 17.3006 15.0663C17.3263 15.1171 17.3619 15.1622 17.4054 15.1988C17.4488 15.2355 17.4992 15.263 17.5535 15.2798C18.5882 15.6467 19.46 16.3679 20.015 17.3161C20.5701 18.2643 20.7725 19.3785 20.5866 20.4617C20.4007 21.5449 19.8385 22.5274 18.9992 23.2357C18.1599 23.944 17.0976 24.3325 16 24.3325C14.9024 24.3325 13.8401 23.944 13.0008 23.2357C12.1615 22.5274 11.5993 21.5449 11.4134 20.4617C11.2275 19.3785 11.4299 18.2643 11.9849 17.3161C12.54 16.3679 13.4118 15.6467 14.4465 15.2798C14.5407 15.2468 14.6203 15.1815 14.6711 15.0954C14.7219 15.0093 14.7407 14.908 14.724 14.8094C14.7074 14.7108 14.6565 14.6212 14.5803 14.5566C14.5041 14.492 14.4076 14.4564 14.3077 14.4562C14.2604 14.4563 14.2135 14.4643 14.1689 14.48C13.2178 14.8162 12.3774 15.4079 11.7395 16.1902C11.1016 16.9726 10.6909 17.9156 10.5522 18.916C10.4136 19.9164 10.5523 20.9357 10.9533 21.8624C11.3543 22.7892 12.002 23.5876 12.8257 24.1705C13.6495 24.7534 14.6174 25.0983 15.6237 25.1674C16.63 25.2365 17.6358 25.0272 18.5313 24.5624C19.4268 24.0975 20.1774 23.3951 20.7009 22.5318C21.2245 21.6686 21.501 20.6778 21.5 19.6678Z" fill="#17303E"/>
</svg>
