<svg width="32" height="32" viewBox="0 0 32 32" fill="none" xmlns="http://www.w3.org/2000/svg">
<path d="M24.7984 15.2471C24.7981 15.1789 24.7835 15.1116 24.7555 15.0495C24.7276 14.9873 24.6868 14.9318 24.636 14.8864C24.5848 14.8413 24.5248 14.8074 24.4597 14.787C24.3947 14.7666 24.326 14.7601 24.2583 14.768L7.83973 16.7012C7.72218 16.7151 7.61382 16.7716 7.53519 16.8601C7.45655 16.9486 7.41311 17.0628 7.41309 17.1812V21.5308C7.41309 23.4382 12.8812 23.9473 16.1123 23.9473C19.3432 23.9473 24.8115 23.4382 24.8115 21.5308V21.5298L24.7984 15.2471Z" fill="#87745C"/>
<path d="M24.798 16.6978H16.0986V23.9471L16.1119 23.9472C19.2585 23.9472 24.5243 23.4638 24.798 21.677V16.6978Z" fill="#87745C"/>
<path d="M30.356 13.0515L30.3559 13.0515L17.9881 8.81101L17.988 8.81099C16.7792 8.39634 15.4463 8.39634 14.2374 8.81099L14.2374 8.81101L1.87003 13.0515L1.8699 13.0515C1.47672 13.1862 1.22754 13.5346 1.22754 13.95C1.22754 14.3652 1.47664 14.7136 1.86988 14.8483L1.87002 14.8483L14.237 19.0885C14.8408 19.2949 15.4745 19.4 16.1125 19.3996H16.1132C16.7512 19.4001 17.3848 19.295 17.9885 19.0885L30.356 14.8483L30.3562 14.8483C30.7492 14.7137 30.998 14.3656 30.998 13.9502L30.356 13.0515ZM30.356 13.0515C30.749 13.1861 30.9979 13.5342 30.998 13.95L30.356 13.0515ZM14.0753 19.5616C14.7312 19.7859 15.4197 19.9001 16.1128 19.8996L14.0753 19.5616Z" fill="#87745C" stroke="#17303E"/>
<path d="M25.2821 24.4304C25.2186 24.4304 25.1558 24.4179 25.0972 24.3936C25.0385 24.3693 24.9852 24.3337 24.9404 24.2888C24.8955 24.244 24.8599 24.1907 24.8356 24.1321C24.8114 24.0734 24.7989 24.0106 24.7989 23.9471V17.6322C24.7989 17.5315 24.7674 17.4332 24.7089 17.3512C24.6503 17.2692 24.5676 17.2076 24.4723 17.1749L15.9429 14.2506C15.8217 14.209 15.7219 14.121 15.6655 14.0059C15.6091 13.8908 15.6008 13.758 15.6422 13.6367C15.7291 13.3842 16.0033 13.2491 16.2563 13.3364L24.7856 16.2608C25.0715 16.3588 25.3197 16.5436 25.4953 16.7895C25.671 17.0354 25.7655 17.3301 25.7655 17.6323V23.9472C25.7655 24.0107 25.753 24.0735 25.7287 24.1321C25.7044 24.1908 25.6688 24.244 25.6239 24.2889C25.579 24.3338 25.5257 24.3694 25.4671 24.3936C25.4084 24.4179 25.3456 24.4304 25.2821 24.4304Z" fill="#17303E"/>
<path d="M25.7653 27.8135H24.7987C24.7352 27.8135 24.6724 27.8011 24.6137 27.7768C24.5551 27.7525 24.5018 27.7169 24.4569 27.672C24.412 27.6271 24.3765 27.5738 24.3522 27.5152C24.3279 27.4565 24.3154 27.3937 24.3154 27.3302V24.4304C24.3154 23.8966 24.7481 23.4638 25.2819 23.4638C25.8159 23.4638 26.2485 23.8966 26.2485 24.4304V27.3302C26.2485 27.3936 26.236 27.4565 26.2117 27.5151C26.1875 27.5738 26.1519 27.6271 26.107 27.672C26.0621 27.7168 26.0089 27.7524 25.9502 27.7767C25.8916 27.801 25.8287 27.8135 25.7653 27.8135Z" fill="#17303E"/>
<path d="M24.7979 20.4613C24.8012 20.4593 24.8054 20.4573 24.8087 20.4553L24.8059 19.1325C24.8054 19.14 24.7991 19.1485 24.7979 19.156V20.4613Z" fill="#17303E"/>
<path d="M16.1118 14.7646C17.1795 14.7646 18.045 14.3319 18.045 13.7981C18.045 13.2642 17.1795 12.8315 16.1118 12.8315C15.0442 12.8315 14.1787 13.2642 14.1787 13.7981C14.1787 14.3319 15.0442 14.7646 16.1118 14.7646Z" fill="white"/>
</svg>
