<svg width="32" height="32" viewBox="0 0 32 32" fill="none" xmlns="http://www.w3.org/2000/svg">
<path d="M12.3049 24.6563L12.3047 24.6561C10.6299 22.7417 9.03624 20.9177 7.85647 19.0373C6.6808 17.1634 5.94049 15.2701 5.94043 13.2269C5.94353 10.5315 7.01568 7.94725 8.92168 6.04125C10.8276 4.13532 13.4117 3.06317 16.1071 3.06C18.8025 3.06317 21.3866 4.13532 23.2925 6.04125C25.1986 7.94732 26.2707 10.5316 26.2738 13.2272C26.2736 15.2703 25.5333 17.1635 24.3577 19.0373C23.1779 20.9177 21.5843 22.7417 19.9094 24.6561L19.9093 24.6563L19.876 24.6943C18.8323 25.8883 17.7412 27.1364 16.7671 28.4014C16.6892 28.5024 16.5893 28.5842 16.4748 28.6404C16.3604 28.6967 16.2346 28.726 16.1071 28.726C15.9796 28.726 15.8538 28.6967 15.7394 28.6404C15.6249 28.5842 15.5249 28.5024 15.4471 28.4014C14.473 27.1364 13.3819 25.8883 12.3381 24.6943L12.3049 24.6563ZM13.607 16.9683C14.3471 17.4627 15.2171 17.7267 16.1071 17.7267C17.3006 17.7267 18.4452 17.2526 19.2891 16.4086C20.133 15.5647 20.6071 14.4201 20.6071 13.2267C20.6071 12.3366 20.3432 11.4666 19.8487 10.7266C19.3542 9.98658 18.6514 9.4098 17.8292 9.06921C17.0069 8.72861 16.1021 8.6395 15.2292 8.81313C14.3563 8.98676 13.5545 9.41535 12.9251 10.0447C12.2958 10.674 11.8672 11.4758 11.6936 12.3488C11.5199 13.2217 11.609 14.1265 11.9496 14.9487C12.2902 15.771 12.867 16.4738 13.607 16.9683Z" fill="#87745C" stroke="#17303E"/>
</svg>
