<svg width="32" height="32" viewBox="0 0 32 32" fill="none" xmlns="http://www.w3.org/2000/svg">
<g clip-path="url(#clip0_685_23182)">
<path d="M11.1738 19.1928L10.7442 19.2539V19.6878V24.7111V25.3333V25.8333H11.2442H21.5554H22.0554V25.3333V19.7618V19.2618H21.5554H18.5089C17.6036 19.2618 16.8998 18.5575 16.8998 17.7254C16.8998 17.1349 17.2506 16.6123 17.7812 16.3547L18.1666 16.1677L18.0408 15.7581C17.9846 15.5752 17.9544 15.3814 17.9544 15.18C17.9544 14.3285 18.5007 13.5861 19.2961 13.2806L19.7048 13.1237L19.6032 12.6979C19.5594 12.5142 19.5362 12.3227 19.5362 12.1254C19.5362 10.7309 20.712 9.57081 22.1998 9.57081C23.6876 9.57081 24.8634 10.7309 24.8634 12.1254C24.8634 12.3227 24.8402 12.5143 24.7964 12.6978L24.6948 13.1236L25.1035 13.2806C25.899 13.586 26.4453 14.3285 26.4453 15.18C26.4453 15.3814 26.415 15.5753 26.3589 15.758L26.2329 16.1676L26.6184 16.3547C27.149 16.6123 27.4998 17.1349 27.4998 17.7254C27.4998 18.5576 26.7961 19.2618 25.8907 19.2618H22.8442H22.3442V19.7618V25.3333V25.8333H22.8442H27.0331C27.3075 25.8333 27.4998 26.0438 27.4998 26.2667C27.4998 26.4896 27.3075 26.7 27.0331 26.7H5.76647C5.49206 26.7 5.2998 26.4896 5.2998 26.2667C5.2998 26.0438 5.49206 25.8333 5.76647 25.8333H9.95536H10.4554V25.3333V24.7111V19.6878V19.2539L10.0258 19.1928C7.45751 18.8273 5.2998 15.9581 5.2998 12.2667C5.2998 8.29422 7.78284 5.3 10.5998 5.3C13.4168 5.3 15.8998 8.29422 15.8998 12.2667C15.8998 15.9581 13.7421 18.8273 11.1738 19.1928Z" fill="#87745C" stroke="#17303E"/>
</g>
<defs>
<clipPath id="clip0_685_23182">
<rect width="32" height="32" fill="white"/>
</clipPath>
</defs>
</svg>
