<svg width="32" height="32" viewBox="0 0 32 32" fill="none" xmlns="http://www.w3.org/2000/svg">
<path fill-rule="evenodd" clip-rule="evenodd" d="M28.3338 8.75667C28.3338 8.16754 27.8563 7.69 27.2671 7.69H11.7952C11.206 7.69 10.7285 8.16754 10.7285 8.75667V14.7363C10.7285 15.1045 11.027 15.4029 11.3952 15.4029C11.7634 15.4029 12.0618 15.1045 12.0618 14.7363V9.02334H27.0005V27H18.4368C18.0686 27 17.7702 27.2985 17.7702 27.6667C17.7702 28.0349 18.0686 28.3333 18.4368 28.3333H27.2671C27.8563 28.3333 28.3338 27.8558 28.3338 27.2667V8.75667Z" fill="#17303E"/>
<path fill-rule="evenodd" clip-rule="evenodd" d="M18.0565 14.2882C18.6456 14.2882 19.1231 14.7657 19.1231 15.3549V27.2667C19.1231 27.8558 18.6456 28.3333 18.0565 28.3333H4.73366C4.14455 28.3333 3.66699 27.8558 3.66699 27.2667V15.3549C3.66699 14.7657 4.14455 14.2882 4.73366 14.2882H18.0565ZM8.86199 18.0596C8.86199 19.4586 9.99606 20.5927 11.3951 20.5927C12.7941 20.5927 13.9281 19.4586 13.9281 18.0596V17.495C13.9281 17.1269 14.2266 16.8283 14.5948 16.8283C14.963 16.8283 15.2615 17.1269 15.2615 17.495V18.0596C15.2615 20.195 13.5304 21.926 11.3951 21.926C9.25973 21.926 7.52866 20.195 7.52866 18.0596V17.495C7.52866 17.1269 7.82713 16.8283 8.19532 16.8283C8.56352 16.8283 8.86199 17.1269 8.86199 17.495V18.0596ZM19.531 5.00001C17.7831 5.00001 16.3661 6.41701 16.3661 8.16494V10.5538C16.3661 10.922 16.0676 11.2205 15.6994 11.2205C15.3312 11.2205 15.0327 10.922 15.0327 10.5538V8.16494C15.0327 5.68063 17.0467 3.66667 19.531 3.66667C22.0154 3.66667 24.0293 5.68063 24.0293 8.16501V10.5538C24.0293 10.922 23.7309 11.2205 23.3627 11.2205C22.9945 11.2205 22.696 10.922 22.696 10.5538V8.16501C22.696 6.41701 21.279 5.00001 19.531 5.00001Z" fill="#87745C"/>
</svg>
