<svg width="32" height="32" viewBox="0 0 32 32" fill="none" xmlns="http://www.w3.org/2000/svg">
<path d="M29.3129 3.89286H20.9022C20.7956 3.89286 20.6934 3.93519 20.6181 4.01054C20.5427 4.08589 20.5004 4.18808 20.5004 4.29464V7.05357H19.6968V4.02678C19.6971 3.77823 19.796 3.53994 19.9717 3.36419C20.1475 3.18843 20.3858 3.08957 20.6343 3.08928H29.3129C29.4195 3.08928 29.5217 3.04695 29.597 2.9716C29.6724 2.89625 29.7147 2.79406 29.7147 2.6875C29.7147 2.58094 29.6724 2.47874 29.597 2.40339C29.5217 2.32804 29.4195 2.28571 29.3129 2.28571H20.6343C20.1727 2.28622 19.7302 2.46982 19.4038 2.79622C19.0774 3.12263 18.8938 3.56518 18.8933 4.02678V7.09745C18.6392 7.16772 18.4152 7.31937 18.2555 7.52916C18.0959 7.73895 18.0094 7.9953 18.0094 8.25893C18.0094 8.52255 18.0959 8.7789 18.2555 8.98869C18.4152 9.19848 18.6392 9.35013 18.8933 9.42041V11.389H13.1076V9.42036C13.3616 9.35008 13.5857 9.19843 13.7453 8.98864C13.905 8.77885 13.9914 8.5225 13.9914 8.25887C13.9914 7.99525 13.905 7.7389 13.7453 7.52911C13.5857 7.31932 13.3616 7.16767 13.1076 7.09739V4.02678C13.107 3.56518 12.9234 3.12264 12.597 2.79624C12.2706 2.46984 11.8281 2.28624 11.3665 2.28571H2.68792C2.58136 2.28571 2.47916 2.32804 2.40381 2.40339C2.32846 2.47874 2.28613 2.58094 2.28613 2.6875C2.28613 2.79406 2.32846 2.89625 2.40381 2.9716C2.47916 3.04695 2.58136 3.08928 2.68792 3.08928H11.3665C11.615 3.08957 11.8533 3.18843 12.0291 3.36419C12.2048 3.53994 12.3037 3.77823 12.304 4.02678V7.05357H11.5004V4.29464C11.5004 4.18808 11.4581 4.08589 11.3827 4.01054C11.3074 3.93519 11.2052 3.89286 11.0986 3.89286H2.68792C2.58136 3.89286 2.47916 3.93519 2.40381 4.01054C2.32846 4.08589 2.28613 4.18808 2.28613 4.29464C2.28613 4.4012 2.32846 4.5034 2.40381 4.57875C2.47916 4.6541 2.58136 4.69643 2.68792 4.69643H10.6968V7.09745C10.4428 7.16772 10.2187 7.31937 10.0591 7.52916C9.89945 7.73895 9.813 7.9953 9.813 8.25893C9.813 8.52255 9.89945 8.7789 10.0591 8.98869C10.2187 9.19848 10.4428 9.35013 10.6968 9.42041V11.389H8.96847C8.43585 11.3896 7.92522 11.6014 7.5486 11.9781C7.17198 12.3547 6.96014 12.8653 6.95954 13.3979V27.7054C6.96014 28.238 7.17198 28.7486 7.5486 29.1252C7.92522 29.5018 8.43585 29.7137 8.96847 29.7143H22.2288C22.7614 29.7137 23.272 29.5018 23.6487 29.1252C24.0253 28.7486 24.2371 28.238 24.2377 27.7054V13.3979C24.2371 12.8653 24.0253 12.3547 23.6487 11.9781C23.272 11.6014 22.7614 11.3896 22.2288 11.389H21.304V9.42036C21.5581 9.35008 21.7821 9.19843 21.9417 8.98864C22.1014 8.77885 22.1878 8.5225 22.1878 8.25887C22.1878 7.99525 22.1014 7.7389 21.9417 7.52911C21.7821 7.31932 21.5581 7.16767 21.304 7.09739V4.69643H29.3129C29.4195 4.69643 29.5217 4.6541 29.597 4.57875C29.6724 4.5034 29.7147 4.4012 29.7147 4.29464C29.7147 4.18808 29.6724 4.08589 29.597 4.01054C29.5217 3.93519 29.4195 3.89286 29.3129 3.89286ZM10.6165 8.25893C10.6166 8.1524 10.659 8.05027 10.7343 7.97495C10.8096 7.89962 10.9117 7.85725 11.0183 7.85714H12.7861C12.8927 7.85714 12.9949 7.89947 13.0702 7.97482C13.1456 8.05017 13.1879 8.15237 13.1879 8.25893C13.1879 8.36549 13.1456 8.46768 13.0702 8.54303C12.9949 8.61838 12.8927 8.66071 12.7861 8.66071H11.0183C10.9117 8.6606 10.8096 8.61823 10.7343 8.54291C10.659 8.46758 10.6166 8.36545 10.6165 8.25893ZM12.304 9.46428V11.389H11.5004V9.46428H12.304ZM22.2288 12.1926C22.5484 12.1929 22.8547 12.32 23.0807 12.546C23.3067 12.772 23.4338 13.0784 23.4341 13.3979V27.7054C23.4338 28.0249 23.3067 28.3313 23.0807 28.5573C22.8547 28.7832 22.5484 28.9103 22.2288 28.9107H8.96847C8.6489 28.9103 8.34253 28.7832 8.11656 28.5573C7.89059 28.3313 7.76348 28.0249 7.76311 27.7054V13.3979C7.76348 13.0784 7.89059 12.772 8.11656 12.546C8.34253 12.32 8.6489 12.1929 8.96847 12.1926H11.0965L11.0986 12.1927L11.1007 12.1926H12.7037L12.7058 12.1927L12.7079 12.1926H19.2929L19.295 12.1927L19.2971 12.1926H20.9001L20.9021 12.1927L20.9042 12.1926H22.2288ZM19.6968 11.389V9.46428H20.5004V11.389H19.6968ZM21.3843 8.25893C21.3842 8.36545 21.3419 8.46758 21.2665 8.54291C21.1912 8.61823 21.0891 8.6606 20.9826 8.66071H19.2147C19.1081 8.66071 19.0059 8.61838 18.9306 8.54303C18.8552 8.46768 18.8129 8.36549 18.8129 8.25893C18.8129 8.15237 18.8552 8.05017 18.9306 7.97482C19.0059 7.89947 19.1081 7.85714 19.2147 7.85714H20.9826C21.0891 7.85725 21.1912 7.89962 21.2665 7.97495C21.3419 8.05027 21.3842 8.1524 21.3843 8.25893Z" fill="#17303E"/>
<rect x="6.85742" y="10.9714" width="17.8286" height="18.7429" rx="4" fill="#87745C"/>
<path d="M20.0187 14.4326H11.2229C10.9313 14.433 10.6517 14.549 10.4455 14.7552C10.2393 14.9614 10.1234 15.241 10.123 15.5326V17.3467C10.1234 17.6383 10.2394 17.9178 10.4455 18.124C10.6517 18.3302 10.9313 18.4462 11.2229 18.4465H20.0187C20.3103 18.4462 20.5898 18.3302 20.796 18.124C21.0022 17.9178 21.1181 17.6383 21.1185 17.3467V15.5326C21.1182 15.241 21.0022 14.9614 20.796 14.7552C20.5898 14.549 20.3103 14.433 20.0187 14.4326ZM20.3149 17.3467C20.3148 17.4252 20.2836 17.5005 20.228 17.5561C20.1725 17.6116 20.0972 17.6429 20.0187 17.643H11.2229C11.1443 17.6429 11.069 17.6116 11.0135 17.5561C10.9579 17.5005 10.9267 17.4252 10.9266 17.3467V15.5326C10.9267 15.454 10.9579 15.3787 11.0135 15.3231C11.069 15.2676 11.1443 15.2363 11.2229 15.2362H20.0187C20.0972 15.2363 20.1725 15.2676 20.2281 15.3231C20.2836 15.3787 20.3148 15.454 20.3149 15.5326V17.3467ZM16.8423 20.1692C16.5764 20.0716 16.2987 20.0096 16.0165 19.9848C15.9395 19.978 15.8621 19.9935 15.7937 20.0295C15.7252 20.0655 15.6686 20.1205 15.6307 20.1879C15.5927 20.2553 15.575 20.3322 15.5797 20.4094C15.5844 20.4866 15.6113 20.5608 15.6571 20.6231C15.8185 20.8408 15.9209 21.0964 15.9544 21.3653C15.9915 21.6811 15.9297 21.9839 15.8466 22.144C15.7206 21.8635 15.5711 21.5943 15.3997 21.339C15.3136 21.2108 15.2129 21.0931 15.0996 20.9881C14.7994 20.7115 14.4279 20.5242 14.027 20.4474C13.9622 20.434 13.895 20.4369 13.8316 20.4557C13.7681 20.4746 13.7103 20.5088 13.6632 20.5554C13.6162 20.602 13.5814 20.6595 13.5619 20.7227C13.5424 20.786 13.5389 20.8531 13.5516 20.9181C13.633 21.3174 13.6348 21.7289 13.557 22.1289C13.4659 22.5818 13.3288 22.8387 13.1551 23.164C13.0195 23.4085 12.8994 23.6612 12.7956 23.9207C12.5072 24.6583 12.5101 25.478 12.8038 26.2134C13.1194 26.9858 13.7745 27.6182 14.6014 27.9485C14.9787 28.0996 15.3801 28.1816 15.7865 28.1908C15.8761 28.2058 15.9669 28.2134 16.0578 28.2136C16.1722 28.2138 16.2863 28.201 16.3978 28.1754C16.4846 28.1553 16.5693 28.1272 16.6508 28.0914C16.8082 28.0504 16.9618 27.9963 17.1102 27.9297C18.3704 27.3624 19.3084 26.0344 19.4443 24.625C19.6267 22.7317 18.4838 20.7744 16.8423 20.1692ZM16.9154 26.235C16.8984 26.4858 16.7669 27.1138 16.3718 27.3322C16.2057 27.3696 16.0359 27.3888 15.8655 27.3894C15.7125 27.354 15.5688 27.2867 15.4438 27.1917C15.2596 27.0539 15.1353 26.8738 15.1272 26.7329C15.123 26.6618 15.1477 26.4632 15.4652 26.1568C15.5717 26.0553 15.695 25.973 15.8295 25.9136C15.9868 25.8354 16.1826 25.7379 16.3442 25.5057C16.4292 25.3828 16.4902 25.2449 16.524 25.0994C16.7995 25.4391 16.9423 25.8376 16.9154 26.235ZM18.6443 24.5479C18.573 25.2886 18.21 26.0181 17.684 26.555C17.6997 26.4671 17.7108 26.3785 17.7171 26.2895C17.7813 25.3412 17.2311 24.4105 16.2812 23.8606C16.2121 23.8207 16.1328 23.8022 16.0532 23.8075C15.9736 23.8128 15.8973 23.8417 15.8342 23.8904C15.7711 23.9392 15.7239 24.0057 15.6987 24.0814C15.6735 24.1571 15.6714 24.2386 15.6927 24.3155C15.7576 24.5505 15.809 24.8681 15.6848 25.0464C15.6425 25.1072 15.5999 25.1303 15.4715 25.1943C15.2633 25.2902 15.0726 25.4201 14.9071 25.5787C14.397 26.071 14.309 26.5033 14.3249 26.7792C14.3274 26.8176 14.3318 26.8559 14.3383 26.8938C13.9213 26.6035 13.6155 26.1799 13.4712 25.6927C13.3268 25.2055 13.3525 24.6837 13.5441 24.2131C13.6366 23.9831 13.7434 23.7591 13.864 23.5425C14.0442 23.205 14.2305 22.856 14.3448 22.2872C14.3988 22.017 14.423 21.7417 14.4169 21.4663C14.4641 21.4996 14.5089 21.5361 14.5512 21.5755C14.6208 21.6396 14.6825 21.7118 14.735 21.7906C14.9532 22.1117 15.2206 22.6274 15.2924 23.0008C15.3028 23.0547 15.3242 23.106 15.3552 23.1514C15.3862 23.1968 15.4262 23.2354 15.4727 23.2647C15.7843 23.4612 16.0222 23.1898 16.2134 22.9717C16.3083 22.8635 16.4285 22.7191 16.4606 22.6749C16.6995 22.3462 16.8141 21.7953 16.7524 21.2714C16.7407 21.1722 16.7226 21.0739 16.698 20.9771C17.9215 21.5133 18.7859 23.0792 18.6443 24.5479Z" fill="#17303E"/>
</svg>
