<svg width="100" height="100" viewBox="0 0 100 100" fill="none" xmlns="http://www.w3.org/2000/svg">
<path d="M72.1 62.75L72.1052 62.743L72.1103 62.736L77.1996 55.7508C77.8332 54.9389 79.1327 54.5391 80.3795 54.9771C85.6203 56.8741 88.8986 58.5393 90.9081 60.7734C92.8556 62.9385 93.75 65.8053 93.75 70.5C93.75 70.612 93.6957 70.7795 93.49 70.9499C93.283 71.1214 92.9671 71.25 92.6 71.25H66.5924C66.006 67.8112 64.9031 65.0376 63.1257 62.6634C61.4018 60.3606 59.0967 58.5048 56.1774 56.7808C57.5028 56.1825 58.9921 55.5821 60.7129 54.9798L60.716 54.9787C61.9642 54.5382 63.2661 54.938 63.9004 55.7508L68.9897 62.736L68.9948 62.743L69 62.75C69.3559 63.2245 69.9088 63.55 70.55 63.55C71.1912 63.55 71.7441 63.2245 72.1 62.75ZM66.2329 24.1495L66.5852 24.1403L66.8808 23.9483C70.5185 21.5861 73.5609 21.1568 75.9477 21.7714C78.3497 22.3899 80.3213 24.1256 81.6856 26.5504C84.4472 31.4587 84.4582 38.7108 80.8345 43.4052C80.7549 43.4962 80.6751 43.5881 80.595 43.6804C79.9309 44.4452 79.245 45.2351 78.5101 45.7569C77.9702 46.0883 77.4427 46.2329 76.8163 46.2485L76.6638 46.096C77.3023 45.2942 77.8944 44.3772 78.4116 43.3716L78.4532 43.2907L78.4827 43.2046C79.1461 41.2653 79.7128 39.2604 80.0761 37.4309C80.4285 35.6561 80.6106 33.9462 80.4474 32.6007C80.4271 32.2186 80.2878 31.795 79.9589 31.4661C79.6737 31.1809 79.2523 30.9941 78.8001 31.0263C78.7482 31.0163 78.6938 31.0058 78.6371 30.9949C77.7591 30.8262 76.3273 30.5511 74.8284 30.0922C73.0444 29.5461 71.4304 28.8135 70.5632 27.9001C70.1634 27.3877 69.5519 27.1991 68.9945 27.292C68.4611 27.3809 68.0263 27.7071 67.7599 28.1066L67.7273 28.1555L67.6994 28.2073C67.0504 29.4127 65.1434 32.1767 62.184 33.2212L62.1106 33.2471L62.041 33.2819C61.8057 33.3996 61.5689 33.5738 61.3759 33.799C61.1951 34.0099 60.95 34.3892 60.95 34.9C60.95 35.3138 61.0372 35.8472 61.1515 36.3935C61.2713 36.9656 61.441 37.6429 61.645 38.3824C62.0505 39.8524 62.6036 41.6126 63.2046 43.3674C63.2063 43.3732 63.2079 43.3784 63.2093 43.3829C63.2234 43.4277 63.2375 43.4642 63.2455 43.4844C63.2627 43.5276 63.2809 43.5681 63.2954 43.5994C63.326 43.6653 63.3648 43.7427 63.4093 43.827C63.4992 43.9975 63.6263 44.223 63.7881 44.485C64.0383 44.89 64.3793 45.3952 64.8044 45.9278L64.3882 46.344C63.7135 46.3059 63.0719 46.0863 62.5649 45.7111C61.7004 45.0151 60.8153 43.951 60.2974 43.0014C58.3047 39.3482 57.2964 34.5481 58.0749 30.7243C58.4597 28.8341 59.2664 27.2441 60.5378 26.1114C61.7993 24.9875 63.6248 24.2182 66.2329 24.1495ZM47.499 59.8452L47.5095 59.8498L47.52 59.8541C52.5422 61.9426 55.7275 63.8165 57.7025 66.3445C59.645 68.8309 60.55 72.1303 60.55 77.4C60.55 78.0096 60.1096 78.45 59.5 78.45H7.3C6.69035 78.45 6.25 78.0096 6.25 77.4C6.25 72.1239 7.13248 68.826 9.06216 66.3418C11.0229 63.8176 14.2047 61.944 19.2759 59.8558C20.3984 59.3936 21.568 59.7659 22.2522 60.7818L27.7434 69.4679L27.7515 69.4807L27.7599 69.4933C28.1257 70.042 28.7477 70.3038 29.3334 70.2588C29.9725 70.2096 30.5995 69.7857 30.8028 69.041L33.0926 61.4745C33.2229 61.0686 33.2067 60.6617 33.1305 60.3314C33.0542 60.0007 32.8883 59.6205 32.5839 59.3161L32.0178 58.75H34.7822L34.2161 59.3161C33.9117 59.6205 33.7458 60.0007 33.6695 60.3314C33.5933 60.6617 33.5771 61.0686 33.7074 61.4745L35.9972 69.041C36.2005 69.7857 36.8275 70.2096 37.4666 70.2588C38.0523 70.3038 38.6743 70.042 39.0401 69.4933L39.0485 69.4807L39.0566 69.4679L44.5477 60.7819C45.2348 59.7626 46.4929 59.405 47.499 59.8452ZM23.9386 29.0906C25.6809 26.5627 28.6624 24.7484 33.4031 24.6502C38.1426 24.7251 41.1213 26.5278 42.8619 29.0492C44.6433 31.6295 45.2478 35.1391 44.8331 38.7706C44.4192 42.3947 43.0037 45.9958 40.9342 48.6635C38.8618 51.3348 36.2407 52.95 33.4 52.95C30.5576 52.95 27.9364 51.3393 25.8648 48.6762C23.7958 46.0165 22.3807 42.4252 21.9669 38.8079C21.5524 35.1836 22.1563 31.6764 23.9386 29.0906Z" fill="#6D9200" stroke="#17303E" stroke-width="2.5"/>
</svg>
