<svg width="100" height="100" viewBox="0 0 100 100" fill="none" xmlns="http://www.w3.org/2000/svg">
<path d="M65.4165 36.25H66.6665H74.9998H76.2498V37.5V83.3333C76.2498 84.9438 77.556 86.25 79.1665 86.25C80.777 86.25 82.0832 84.9438 82.0832 83.3333V33.3333C82.0832 32.8797 81.9777 32.4325 81.7757 32.0289L81.7756 32.0286L73.4423 15.362C73.4422 15.362 73.4422 15.362 73.4422 15.3619C72.9972 14.4721 71.9914 13.9351 70.833 13.9351C69.6745 13.9351 68.6687 14.4721 68.2237 15.3619L65.4165 36.25ZM65.4165 36.25V37.5V83.3333C65.4165 84.9438 64.1103 86.25 62.4998 86.25C60.8894 86.25 59.5832 84.9438 59.5832 83.3333V33.3333C59.5832 32.8798 59.6886 32.4325 59.8904 32.0286C59.8904 32.0285 59.8905 32.0284 59.8905 32.0283L68.2237 15.362L65.4165 36.25ZM24.9998 69.5833H23.7498V70.8333V83.3333C23.7498 84.9438 22.4436 86.25 20.8332 86.25C19.2227 86.25 17.9165 84.9438 17.9165 83.3333V25C17.9165 18.7974 22.9639 13.75 29.1665 13.75H41.6665C47.8691 13.75 52.9165 18.7974 52.9165 25V83.3333C52.9165 84.9438 51.6103 86.25 49.9998 86.25C48.3894 86.25 47.0832 84.9438 47.0832 83.3333V25C47.0832 22.0126 44.6539 19.5833 41.6665 19.5833H29.1665C26.1791 19.5833 23.7498 22.0126 23.7498 25V29.1667V30.4167H24.9998H29.1665C30.777 30.4167 32.0832 31.7229 32.0832 33.3333C32.0832 34.9438 30.777 36.25 29.1665 36.25H24.9998H23.7498V37.5V45.8333V47.0833H24.9998H33.3332C34.9436 47.0833 36.2498 48.3895 36.2498 50C36.2498 51.6105 34.9436 52.9167 33.3332 52.9167H24.9998H23.7498V54.1667V62.5V63.75H24.9998H29.1665C30.777 63.75 32.0832 65.0562 32.0832 66.6667C32.0832 68.2771 30.777 69.5833 29.1665 69.5833H24.9998ZM71.9512 25.4235L70.8332 23.1874L69.7151 25.4235L68.1231 28.6077L67.2185 30.4167H69.2411H72.4252H74.4478L73.5433 28.6077L71.9512 25.4235Z" fill="#6D9200" stroke="#17303E" stroke-width="2.5"/>
</svg>
