<svg width="100" height="100" viewBox="0 0 100 100" fill="none" xmlns="http://www.w3.org/2000/svg">
<path d="M45.625 43.75C45.625 44.7855 44.7855 45.625 43.75 45.625C42.7145 45.625 41.875 44.7855 41.875 43.75C41.875 42.7145 42.7145 41.875 43.75 41.875C44.7855 41.875 45.625 42.7145 45.625 43.75Z" fill="#6D9200" stroke="#17303E" stroke-width="2.5"/>
<path d="M64.375 62.5C64.375 63.5355 63.5355 64.375 62.5 64.375C61.4645 64.375 60.625 63.5355 60.625 62.5C60.625 61.4645 61.4645 60.625 62.5 60.625C63.5355 60.625 64.375 61.4645 64.375 62.5Z" fill="#6D9200" stroke="#17303E" stroke-width="2.5"/>
<path d="M57.6468 88.4144C56.3462 87.5691 54.9005 86.9715 53.3826 86.6518L53.1238 86.5973L52.865 86.6524C51.3464 86.9753 49.9007 87.5764 48.6008 88.4253L48.5715 88.4445L48.5433 88.4652C47.4602 89.2626 46.2242 89.8279 44.9127 90.1259C43.6534 90.412 42.3506 90.4457 41.0792 90.2257C39.888 89.6359 38.8236 88.8176 37.9471 87.8168C37.0351 86.7756 36.3456 85.559 35.921 84.2416L35.91 84.2075L35.8971 84.1741C35.3678 82.8057 34.6056 81.5393 33.6443 80.431L33.4589 80.2172L33.1995 80.1041C31.8313 79.5078 30.3692 79.156 28.8795 79.0648L28.8361 79.0622L28.7927 79.0626C27.4254 79.074 26.0705 78.8028 24.813 78.266C23.604 77.7499 22.51 76.9989 21.5943 76.0572C20.9817 74.9031 20.604 73.6384 20.4838 72.3363C20.3587 70.9816 20.515 69.6157 20.9428 68.3244L20.956 68.2847L20.9664 68.2443C21.3461 66.7765 21.4633 65.2531 21.3126 63.7445L21.2843 63.462L21.1369 63.2194C20.3902 61.9913 19.4381 60.9006 18.322 59.995L18.2948 59.9729L18.2664 59.9524C17.1334 59.1338 16.1804 58.0915 15.4663 56.8898C14.7796 55.7342 14.3279 54.4548 14.1365 53.1252C14.3279 51.7985 14.7786 50.5218 15.4634 49.3682C16.1754 48.1686 17.1256 47.1276 18.2552 46.3092L18.2833 46.2888L18.3103 46.2669C19.425 45.3609 20.3766 44.2709 21.1238 43.044L21.2715 42.8015L21.3 42.519C21.4519 41.0098 21.3347 39.4855 20.9537 38.0173L20.9434 37.9777L20.9306 37.9389C20.5035 36.6471 20.3477 35.2812 20.4727 33.9264C20.593 32.624 20.9704 31.3589 21.5825 30.2042C22.4984 29.2593 23.5935 28.5056 24.8043 27.9875C26.0634 27.4487 27.4203 27.1763 28.7898 27.1875L28.8329 27.1878L28.876 27.1852C30.366 27.0944 31.8284 26.7426 33.1967 26.1457L33.4515 26.0346L33.6352 25.8259C34.6069 24.7218 35.3782 23.4564 35.9141 22.0867L35.9297 22.0467L35.9426 22.0057C36.3561 20.6886 37.0385 19.4717 37.9467 18.432C38.8201 17.4322 39.884 16.6172 41.0757 16.0345C42.3482 15.8152 43.652 15.8494 44.9122 16.1357C46.2239 16.4337 47.4602 16.9985 48.5443 17.7949L48.5732 17.8161L48.6032 17.8356C49.9038 18.6809 51.3495 19.2785 52.8674 19.5982L53.125 19.6524L53.3826 19.5982C54.9005 19.2785 56.3462 18.6809 57.6468 17.8356L57.6767 17.8162L57.7054 17.7951C58.7897 16.9989 60.0262 16.4343 61.338 16.1362C62.5972 15.8502 63.9 15.8156 65.1717 16.0341C66.3619 16.623 67.4256 17.4399 68.3019 18.4391L69.2417 17.6148L68.3019 18.4391C69.2139 19.4788 69.9038 20.6938 70.3294 22.0097L70.3402 22.0431L70.3529 22.0759C70.8822 23.4443 71.6444 24.7107 72.6057 25.8191L72.7911 26.0328L73.0505 26.1459C74.4187 26.7423 75.8808 27.094 77.3705 27.1852L77.4137 27.1878L77.457 27.1875C78.8245 27.1764 80.1795 27.448 81.437 27.9853C82.6461 28.5019 83.74 29.2534 84.6556 30.1957C85.2683 31.3498 85.646 32.6147 85.7662 33.9169C85.8913 35.2715 85.735 36.6374 85.3072 37.9288L85.294 37.9686L85.2835 38.0091C84.9042 39.4768 84.787 41 84.9374 42.5084L84.9657 42.792L85.1141 43.0352C85.8616 44.2609 86.8132 45.3498 87.9277 46.2548L87.955 46.277L56.9656 89.4625M57.6468 88.4144L56.9656 89.4625M57.6468 88.4144C57.6466 88.4143 57.6463 88.4141 57.646 88.4139L56.9656 89.4625M57.6468 88.4144C59.4313 89.5722 61.4689 90.2811 63.5861 90.4813M56.9656 89.4625C58.9361 90.7411 61.1887 91.5199 63.5281 91.7313M63.5861 90.4813C63.5689 90.4814 63.5518 90.4814 63.5347 90.4813L63.5281 91.7313M63.5861 90.4813C63.6042 90.483 63.6224 90.4847 63.6406 90.4863L63.5281 91.7313M63.5861 90.4813L63.5281 91.7313M65.0968 90.2519C65.0725 90.2635 65.0483 90.2749 65.0239 90.2863L65.5531 91.4188L65.1701 90.2289C65.1457 90.2368 65.1212 90.2444 65.0968 90.2519ZM84.6671 76.0559C84.6427 76.1021 84.6178 76.1481 84.5926 76.1939L85.6875 76.7969L84.7753 75.9423C84.7395 75.9804 84.7035 76.0183 84.6671 76.0559ZM92.1136 53.1252C92.1212 53.1779 92.1283 53.2308 92.1351 53.2837L93.375 53.125L92.1351 52.9667C92.1283 53.0196 92.1211 53.0724 92.1136 53.1252ZM46.8278 65.6085L46.8356 65.601L46.8433 65.5933L52.097 60.3396C52.0909 60.3687 52.085 60.3979 52.0792 60.4272C51.6692 62.4882 51.8796 64.6246 52.6838 66.566C53.488 68.5075 54.8498 70.1669 56.5971 71.3344C58.3443 72.5019 60.3986 73.125 62.5 73.125C65.3179 73.125 68.0204 72.0056 70.013 70.013C72.0056 68.0205 73.125 65.3179 73.125 62.5C73.125 60.3986 72.5019 58.3444 71.3344 56.5971C70.1669 54.8498 68.5075 53.488 66.566 52.6838C64.6245 51.8796 62.4882 51.6692 60.4272 52.0792C60.3979 52.085 60.3687 52.0909 60.3396 52.097L65.5933 46.8433L65.6009 46.8356L65.6085 46.8278C66.4054 46.0026 66.8464 44.8975 66.8364 43.7504C66.8265 42.6033 66.3663 41.506 65.5552 40.6948C64.744 39.8837 63.6467 39.4236 62.4996 39.4136C61.3525 39.4036 60.2474 39.8446 59.4222 40.6415L59.4144 40.6491L59.4067 40.6568L54.153 45.9105C54.4415 44.5214 54.4502 43.0818 54.1708 41.6772C53.7609 39.6161 52.7489 37.7229 51.263 36.237C49.7771 34.7511 47.8839 33.7391 45.8228 33.3292C43.7618 32.9192 41.6255 33.1296 39.684 33.9338C37.7425 34.738 36.0831 36.0998 34.9156 37.8471C33.7481 39.5944 33.125 41.6486 33.125 43.75C33.125 46.5679 34.2444 49.2705 36.237 51.263C38.2296 53.2556 40.9321 54.375 43.75 54.375C44.4795 54.375 45.2032 54.2999 45.9104 54.1531L40.6567 59.4068L40.6491 59.4144L40.6415 59.4222C39.8446 60.2474 39.4036 61.3525 39.4136 62.4996C39.4235 63.6467 39.8836 64.744 40.6948 65.5552C41.506 66.3664 42.6033 66.8265 43.7504 66.8365C44.8975 66.8464 46.0026 66.4054 46.8278 65.6085Z" fill="#6D9200" stroke="#17303E" stroke-width="2.5"/>
</svg>
