<svg width="24" height="24" viewBox="0 0 24 24" fill="none" xmlns="http://www.w3.org/2000/svg">
<g clip-path="url(#clip0_3005_954)">
<path d="M9.50061 2C13.6425 2 17.0006 5.35814 17.0006 9.5C17.0006 11.2331 16.4075 12.8238 15.42 14.0937L21.7256 20.3994C21.9087 20.5825 22.0006 20.8219 22.0006 21.0625C22.0006 21.3025 21.9087 21.5425 21.7256 21.7256C21.5431 21.9088 21.3031 22 21.0631 22C20.8231 22 20.5831 21.9088 20.4006 21.7256L14.0944 15.4193C12.8244 16.4069 11.2337 17 9.50061 17C5.35875 17 2.00061 13.6419 2.00061 9.5C2.00061 5.35814 5.35875 2 9.50061 2ZM9.50061 15.125C12.6025 15.125 15.1256 12.6019 15.1256 9.5C15.1256 6.39814 12.6025 3.875 9.50061 3.875C6.39875 3.875 3.87561 6.39814 3.87561 9.5C3.87561 12.6019 6.39875 15.125 9.50061 15.125Z" fill="#17303E"/>
</g>
<defs>
<clipPath id="clip0_3005_954">
<rect width="20" height="20" fill="white" transform="translate(2.00031 2)"/>
</clipPath>
</defs>
</svg>