<svg width="21" height="20" viewBox="0 0 21 20" fill="none" xmlns="http://www.w3.org/2000/svg">
<path d="M9.54551 1.05531C9.83785 0.119584 11.1622 0.119585 11.4545 1.05531L13.0872 6.28114C13.2176 6.69865 13.6043 6.98293 14.0417 6.98293H19.406C20.3652 6.98293 20.7742 8.20251 20.0089 8.78078L15.6024 12.1103C15.2656 12.3649 15.1249 12.8034 15.2508 13.2063L16.9178 18.5422C17.2078 19.4704 16.1364 20.2245 15.3605 19.6382L11.1029 16.4212C10.7461 16.1516 10.2539 16.1516 9.89715 16.4212L5.63955 19.6382C4.86364 20.2245 3.79219 19.4704 4.08219 18.5422L5.74924 13.2063C5.87513 12.8034 5.73442 12.3649 5.3976 12.1103L0.991158 8.78078C0.22586 8.20251 0.634816 6.98293 1.59401 6.98293H6.95834C7.39575 6.98293 7.7824 6.69865 7.91284 6.28114L9.54551 1.05531Z" fill="#FFBA52"/>
</svg>
