<svg width="23" height="18" viewBox="0 0 23 18" fill="none" xmlns="http://www.w3.org/2000/svg">
<path d="M8.3208 17.6719H0.5V12.0776C0.5 9.81396 0.694824 8.03271 1.08447 6.73389C1.49268 5.4165 2.23486 4.23828 3.31104 3.19922C4.38721 2.16016 5.76025 1.34375 7.43018 0.75L8.96094 3.97852C7.40234 4.49805 6.27979 5.22168 5.59326 6.14941C4.92529 7.07715 4.57275 8.31104 4.53564 9.85107H8.3208V17.6719ZM21.374 17.6719H13.5532V12.0776C13.5532 9.79541 13.748 8.00488 14.1377 6.70605C14.5459 5.40723 15.2881 4.23828 16.3643 3.19922C17.459 2.16016 18.832 1.34375 20.4834 0.75L22.0142 3.97852C20.4556 4.49805 19.333 5.22168 18.6465 6.14941C17.9785 7.07715 17.626 8.31104 17.5889 9.85107H21.374V17.6719Z" fill="#783807"/>
</svg>
