<svg width="60" height="60" viewBox="0 0 60 60" fill="none" xmlns="http://www.w3.org/2000/svg">
<path d="M30 3C15.0847 3 3 15.1935 3 30C3 44.9153 15.0847 57 30 57C44.8064 57 57 44.9153 57 30C57 15.1935 44.8064 3 30 3ZM42.4113 21.3992C42.0847 25.6452 40.3427 36.0968 39.3629 40.7782C39.0363 42.8468 38.2742 43.5 37.5121 43.6089C35.9879 43.7177 34.7903 42.5202 33.2661 41.5403C30.871 40.0161 29.5645 39.0363 27.2782 37.5121C24.5565 35.7702 26.2984 34.7903 27.8226 33.2661C28.2581 32.8306 35.1169 26.5161 35.2258 25.9718C35.3347 25.8629 35.3347 25.6452 35.1169 25.4274C35.0081 25.3185 34.7903 25.4274 34.5726 25.4274C34.3548 25.4274 30.5444 27.9315 23.25 32.9395C22.1613 33.7016 21.1815 34.0282 20.3105 34.0282C19.3306 34.0282 17.4798 33.4839 16.0645 33.0484C14.4315 32.504 13.0161 32.1774 13.125 31.3064C13.2339 30.7621 13.8871 30.3266 15.1935 29.7823C23.0323 26.2984 28.2581 24.121 30.871 23.0323C38.3831 19.875 40.0161 19.3306 40.996 19.3306C41.2137 19.3306 41.7581 19.3306 42.0847 19.6573C42.1935 19.7661 42.4113 20.0927 42.4113 20.3105C42.5202 20.746 42.5202 21.0726 42.4113 21.3992Z" fill="#1890FF"/>
</svg>
