<svg width="24" height="24" viewBox="0 0 24 24" fill="none" xmlns="http://www.w3.org/2000/svg">
<rect width="24" height="24" rx="4" fill="#6D9200"/>
<path d="M15.273 13.4034L15.2729 13.4035C15.3117 13.4268 15.3487 13.4463 15.3836 13.4642C15.3898 13.4674 15.3961 13.4706 15.4022 13.4738C15.43 13.488 15.4569 13.5018 15.4809 13.5155C15.5359 13.5469 15.5881 13.5846 15.6124 13.6456C15.6233 13.6594 15.631 13.6759 15.6367 13.6921C15.644 13.7129 15.6493 13.7371 15.6528 13.7637C15.66 13.817 15.6609 13.884 15.6546 13.9607C15.6422 14.1144 15.6008 14.312 15.5189 14.5251C15.4327 14.7492 15.2045 14.9573 14.9649 15.1117C14.7256 15.2658 14.4616 15.3747 14.2895 15.3924C13.9971 15.4411 13.7342 15.4575 13.4019 15.396C13.0707 15.3347 12.6728 15.1962 12.1091 14.9386C11.2005 14.5491 10.456 13.901 9.92734 13.3401C9.66275 13.0593 9.45174 12.7999 9.30089 12.6046C9.22547 12.507 9.16506 12.4254 9.12066 12.3654C9.09839 12.3353 9.08037 12.311 9.06641 12.2927C9.05166 12.2733 9.0436 12.2635 9.04043 12.2603L9.03538 12.2553L9.03578 12.255C8.98662 12.1894 8.80779 11.9455 8.64112 11.6041C8.4747 11.2631 8.31864 10.8213 8.31864 10.3607C8.31864 9.55812 8.69655 9.12876 8.88696 8.91243C8.90733 8.88929 8.92556 8.86859 8.94094 8.85012C9.11437 8.64201 9.32396 8.60713 9.4615 8.60713H9.46206H9.46263H9.46319H9.46376H9.46433H9.4649H9.46547H9.46604H9.46661H9.46718H9.46775H9.46833H9.4689H9.46948H9.47005H9.47063H9.4712H9.47178H9.47236H9.47294H9.47352H9.4741H9.47468H9.47526H9.47584H9.47643H9.47701H9.47759H9.47818H9.47876H9.47935H9.47994H9.48052H9.48111H9.4817H9.48229H9.48288H9.48347H9.48406H9.48465H9.48525H9.48584H9.48643H9.48703H9.48762H9.48822H9.48881H9.48941H9.49001H9.49061H9.4912H9.4918H9.4924H9.493H9.4936H9.49421H9.49481H9.49541H9.49601H9.49662H9.49722H9.49783H9.49843H9.49904H9.49964H9.50025H9.50086H9.50147H9.50208H9.50268H9.50329H9.5039H9.50452H9.50513H9.50574H9.50635H9.50696H9.50758H9.50819H9.50881H9.50942H9.51004H9.51065H9.51127H9.51189H9.5125H9.51312H9.51374H9.51436H9.51498H9.5156H9.51622H9.51684H9.51746H9.51808H9.5187H9.51933H9.51995H9.52057H9.5212H9.52182H9.52245H9.52307H9.5237H9.52432H9.52495H9.52558H9.5262H9.52683H9.52746H9.52809H9.52872H9.52935H9.52998H9.53061H9.53124H9.53187H9.5325H9.53313H9.53377H9.5344H9.53503H9.53567H9.5363H9.53693H9.53757H9.5382H9.53884H9.53947H9.54011H9.54075H9.54138H9.54202H9.54266H9.5433H9.54394H9.54457H9.54521H9.54585H9.54649H9.54713H9.54777H9.54841H9.54905H9.5497H9.55034H9.55098H9.55162H9.55226H9.55291H9.55355H9.55419H9.55484H9.55548H9.55613H9.55677H9.55742H9.55806H9.55871H9.55935H9.56H9.56064H9.56129H9.56194H9.56259H9.56323H9.56388H9.56453H9.56518H9.56582H9.56647H9.56712H9.56777H9.56842H9.56907H9.56972H9.57037H9.57102H9.57167H9.57232H9.57297H9.57362H9.57428H9.57493H9.57558H9.57623H9.57688H9.57754H9.57819H9.57884H9.57949H9.58015H9.5808H9.58145H9.58211H9.58276H9.58342H9.58407H9.58473H9.58538H9.58603H9.58669H9.58734H9.588H9.58866H9.58931H9.58997H9.59062H9.59128H9.59193H9.59259H9.59325H9.5939H9.59456H9.59522H9.59587H9.59653H9.59719H9.59784H9.5985H9.59916H9.59982H9.60047H9.60113H9.60179H9.60245H9.60311H9.60376H9.60442H9.60508H9.60574H9.6064H9.60705H9.60771H9.60837H9.60903H9.60969H9.61035H9.61101H9.61167H9.61232H9.61298H9.61364H9.6143H9.61496H9.61562H9.61628H9.61694H9.6176H9.61826H9.61891H9.61957H9.62023H9.62089H9.62155H9.62221H9.62287H9.62353H9.62419H9.62485H9.62551H9.62616H9.62682H9.62748H9.62814H9.6288H9.62946H9.63012H9.63078H9.63144H9.6321H9.63275H9.63341H9.63407H9.63473H9.63539H9.63605H9.63671H9.63737H9.63802H9.63868H9.63934H9.64H9.64066H9.64131H9.64197H9.64263H9.64329H9.64395H9.6446H9.64526H9.64592H9.64658H9.64723H9.64789H9.64855H9.6492H9.64986H9.65052H9.65117H9.65183H9.65249H9.65314H9.6538H9.65445H9.65511H9.65576H9.65642H9.65708H9.65773H9.65839H9.65904H9.65969H9.66035H9.661H9.66166H9.66231H9.66296H9.66362H9.66427H9.66493H9.66558H9.66623H9.66688H9.66754H9.66819H9.66884H9.66949H9.67014H9.67079H9.67145H9.6721H9.67275H9.6734H9.67405H9.6747H9.67535H9.676H9.67665H9.6773H9.67795H9.67859H9.67924H9.67989H9.68054H9.68119H9.68183H9.68248H9.68313H9.68377H9.68442H9.68507H9.68571H9.68636H9.687H9.68765H9.68829H9.68894H9.68958H9.69023H9.69087H9.69151H9.69216H9.6928H9.69344H9.69408H9.69472H9.69537H9.69601H9.69665H9.69729H9.69793H9.69857H9.69921H9.69985H9.70048H9.70112H9.70176H9.7024H9.70303H9.70367H9.70431H9.70494H9.70558H9.70622H9.70685H9.70749H9.70812H9.70875H9.70939H9.71002H9.71065H9.71129H9.71192H9.71255H9.71318H9.71381H9.71444H9.71507H9.7157H9.71633H9.71696H9.71759H9.71822H9.71884H9.71947H9.7201H9.72072H9.72135H9.72197H9.7226H9.72322H9.72385H9.72447H9.72509H9.72572H9.72634H9.72696H9.72758H9.7282H9.72882H9.72944H9.73006H9.73068H9.7313H9.73192H9.73253H9.73315H9.73377H9.73438H9.735H9.73561H9.73623H9.73684H9.73746H9.73807H9.73868H9.73929H9.7399H9.74052H9.74113H9.74174H9.74234H9.74295H9.74356H9.74417H9.74478H9.74538H9.74599H9.74659H9.7472H9.7478H9.74841H9.74901H9.74961H9.75021H9.75082H9.75142H9.75202H9.75262H9.75322H9.75381H9.75441H9.75501H9.75561H9.7562H9.7568H9.75739H9.75799H9.75858H9.75917H9.75977H9.76036H9.76095H9.76154H9.76213H9.76272H9.76331H9.7639H9.76448H9.76507H9.76566H9.76624H9.76683H9.76741H9.76799H9.76858H9.76916H9.76974H9.77032H9.7709H9.77148H9.77206H9.77264H9.77321H9.77379H9.77437H9.77494H9.77552H9.77609H9.77667H9.77724H9.77781H9.77838H9.77895H9.77952H9.78009H9.78066H9.78123H9.78179H9.78236H9.78292C9.79124 8.60713 9.80006 8.60693 9.80931 8.60672C9.86367 8.60547 9.93295 8.60388 10.0032 8.64107C10.0861 8.68496 10.1643 8.77753 10.2463 8.95787L10.2479 8.96142L10.2478 8.96147C10.3115 9.13671 10.4395 9.44069 10.5561 9.7143C10.5817 9.77422 10.6068 9.83285 10.6306 9.88838C10.7142 10.0839 10.7815 10.2411 10.7946 10.2806L10.7954 10.2828C10.8276 10.3794 10.8654 10.4929 10.7921 10.6398C10.7921 10.6399 10.792 10.6401 10.7919 10.6402L10.7472 10.6178L15.273 13.4034ZM15.273 13.4034L15.2696 13.4017M15.273 13.4034L15.2696 13.4017M15.2696 13.4017C15.0772 13.3055 14.2074 12.8866 14.0444 12.8214C13.9648 12.7896 13.8814 12.7603 13.799 12.77C13.7116 12.7802 13.6359 12.8322 13.5663 12.9365L13.5663 12.9365M15.2696 13.4017L13.5663 12.9365M13.5663 12.9365L13.5651 12.9385M13.5663 12.9365L13.5651 12.9385M13.5651 12.9385C13.5189 13.0154 13.4089 13.1571 13.2957 13.2987M13.5651 12.9385L13.2957 13.2987M13.2957 13.2987C13.2561 13.3481 13.2162 13.3974 13.1791 13.4434M13.2957 13.2987L13.1791 13.4434M13.1791 13.4434C13.1146 13.5232 13.0583 13.5929 13.0259 13.6356L13.1791 13.4434ZM4.8132 19.2484L8.55553 18.2888C9.61764 18.8331 10.7766 19.1536 11.9686 19.1536C15.9491 19.1536 19.2508 15.9176 19.2508 11.9678C19.2508 10.0244 18.4086 8.24433 17.0506 6.88628C15.7234 5.52683 13.9107 4.74999 11.9686 4.74999C8.0196 4.74999 4.78292 7.98666 4.78292 11.9357C4.78292 13.2234 5.13506 14.4468 5.74355 15.5105L4.7525 19.187L4.7302 19.2697L4.8132 19.2484ZM8.74126 16.8696L6.57619 17.4573L7.16322 15.3563L7.16966 15.3333L7.15575 15.3138L6.9962 15.0904C6.42265 14.1338 6.10435 13.0504 6.10435 11.9357C6.10435 8.71706 8.74965 6.07142 12.0008 6.07142C13.5625 6.07142 15.0283 6.67684 16.144 7.79249C17.2605 8.90903 17.9294 10.3752 17.9294 11.9678C17.9294 15.1858 15.2205 17.8321 11.9686 17.8321C10.9177 17.8321 9.89823 17.5457 8.97374 17.004L8.78209 16.8762L8.76318 16.8636L8.74126 16.8696Z" fill="white" stroke="white" stroke-width="0.1"/>
</svg>
