<svg width="24" height="24" viewBox="0 0 24 24" fill="none" xmlns="http://www.w3.org/2000/svg">
<rect width="24" height="24" rx="4" fill="#6D9200"/>
<g clip-path="url(#clip0_3145_5993)">
<path d="M11.8388 15.467H12.7358C12.7358 15.467 13.0068 15.439 13.1448 15.3C13.2718 15.172 13.2678 14.932 13.2678 14.932C13.2678 14.932 13.2498 13.806 13.8088 13.641C14.3588 13.478 15.0658 14.728 15.8148 15.209C16.3818 15.573 16.8118 15.493 16.8118 15.493L18.8148 15.467C18.8148 15.467 19.8628 15.407 19.3658 14.636C19.3248 14.573 19.0768 14.066 17.8768 13.025C16.6208 11.935 16.7888 12.111 18.3018 10.226C19.2228 9.07801 19.5918 8.37701 19.4768 8.07701C19.3668 7.79101 18.6898 7.86701 18.6898 7.86701L16.4348 7.88001C16.4348 7.88001 16.2678 7.85901 16.1438 7.92801C16.0594 7.98521 15.9909 8.06299 15.9448 8.15401C15.9448 8.15401 15.5878 9.04201 15.1118 9.79801C14.1078 11.392 13.7058 11.477 13.5418 11.378C13.1588 11.147 13.2538 10.45 13.2538 9.95601C13.2538 8.41101 13.5048 7.76701 12.7658 7.60001C12.5208 7.54401 12.3398 7.50801 11.7128 7.50201C10.9078 7.49401 10.2268 7.50401 9.84184 7.68101C9.58484 7.79801 9.38683 8.06001 9.50783 8.07501C9.65683 8.09401 9.99383 8.16001 10.1728 8.38801C10.4038 8.68201 10.3958 9.34201 10.3958 9.34201C10.3958 9.34201 10.5288 11.161 10.0858 11.387C9.78183 11.542 9.36483 11.226 8.46983 9.77901C8.01083 9.03801 7.66483 8.21901 7.66483 8.21901C7.66483 8.21901 7.59784 8.06601 7.47884 7.98401C7.33384 7.88501 7.13183 7.85301 7.13183 7.85301L4.98884 7.86701C4.98884 7.86701 4.66684 7.87501 4.54884 8.00601C4.44384 8.12201 4.54084 8.36301 4.54084 8.36301C4.54084 8.36301 6.21883 12.033 8.11883 13.883C9.86083 15.578 11.8388 15.467 11.8388 15.467Z" stroke="white" stroke-width="1.2" stroke-miterlimit="10"/>
</g>
<defs>
<clipPath id="clip0_3145_5993">
<rect width="16" height="16" fill="white" transform="translate(4 4)"/>
</clipPath>
</defs>
</svg>
