<svg width="60" height="60" viewBox="0 0 60 60" fill="none" xmlns="http://www.w3.org/2000/svg">
<path d="M30.0001 3C15.1126 3 3.00017 15.1124 3.00017 30C3.00017 34.6487 4.20108 39.2199 6.47847 43.2535L3.04361 55.5091C2.93091 55.9118 3.04009 56.3438 3.33122 56.6431C3.55543 56.8744 3.86065 57 4.17408 57C4.268 57 4.36308 56.9883 4.45582 56.966L17.2467 53.7976C21.1523 55.8942 25.551 57 30.0001 57C44.8876 57 57 44.8876 57 30C57 15.1124 44.8876 3 30.0001 3ZM43.5822 39.5275C43.0047 41.1263 40.2342 42.5855 38.903 42.7816C37.708 42.9565 36.196 43.0316 34.5361 42.5104C33.53 42.1934 32.2387 41.7732 30.5847 41.0677C23.6316 38.1023 19.0909 31.1892 18.7435 30.7325C18.3972 30.2759 15.9132 27.0218 15.9132 23.6538C15.9132 20.2859 17.7034 18.6295 18.3396 17.9439C18.9759 17.2583 19.726 17.087 20.1886 17.087C20.6511 17.087 21.1124 17.0928 21.5174 17.1116C21.9435 17.1327 22.5152 16.9508 23.0775 18.2867C23.6551 19.6578 25.0415 23.0258 25.2129 23.3697C25.3866 23.7125 25.5017 24.1128 25.2716 24.5695C25.0415 25.0261 24.9264 25.3114 24.579 25.7117C24.2315 26.112 23.8511 26.6039 23.5389 26.9114C23.1914 27.253 22.831 27.6228 23.2348 28.3084C23.6387 28.994 25.0298 31.235 27.0911 33.0498C29.7383 35.3812 31.9723 36.1043 32.6649 36.4471C33.3575 36.7899 33.7625 36.7324 34.1663 36.2757C34.5701 35.8179 35.899 34.2766 36.3603 33.5922C36.8217 32.9078 37.2842 33.0205 37.9204 33.2494C38.5567 33.4771 41.9646 35.1323 42.6572 35.4751C43.3498 35.8179 43.8123 35.9893 43.986 36.2746C44.1598 36.5587 44.1598 37.9298 43.5822 39.5275Z" fill="#8CC34B"/>
</svg>
